<?xml version="1.0" standalone="no"?><!DOCTYPE svg PUBLIC "-//W3C//DTD SVG 1.1//EN" "http://www.w3.org/Graphics/SVG/1.1/DTD/svg11.dtd" ><svg xmlns="http://www.w3.org/2000/svg"><metadata></metadata><defs><font id="LXGW WenKai Mono Light:Version 1.320" horiz-adv-x="1000"><font-face font-family="LXGW WenKai Mono Light" font-weight="300" font-stretch="normal" units-per-em="1000" panose-1="2 2 4 9 0 0 0 0 0 0" ascent="928" descent="-241" x-height="0" bbox="-15 -176 1000 875" underline-thickness="50" underline-position="-175" unicode-range="U+0020-f251" /><missing-glyph horiz-adv-x="1000" d="M500 343 l-322 -418 l644 0 l-322 418 ZM855 805 l-325 -423 l-2 -3 l327 -426 l0 852 ZM472 379 l-327 426 l0 -852 l325 423 l2 3 ZM823 835 l-646 0 l323 -420 l323 420 ZM105 -115 l0 990 l790 0 l0 -990 l-790 0 Z" /><glyph glyph-name="space" unicode=" " d="" /><glyph glyph-name="exclam" unicode="!" d="M269 173 q0 -7 -11.5 -7 q-11.5 0 -24 6 q-12.5 6 -12.5 16 q2 20 1 230.5 q-1 210.5 -2 225.5 l-4 50 q0 17 20 17 q14 0 30.5 -9 q16.5 -9 16.5 -20 l-6 -73 q-8 -386 -8 -436 ZM251 -5 q-20 0 -35.5 18.5 q-15.5 18.5 -15.5 37.5 q0 41 41 44 q18 0 34 -19 q16 -19 16 -39 q0 -42 -40 -42 Z" /><glyph glyph-name="quotedbl" unicode="&quot;" d="M324 477 q-24 0 -24 15 l-6 211 q0 20 30 20 q30 0 30 -20 l-6 -211 q0 -15 -24 -15 ZM176 477 q-24 0 -24 15 l-6 211 q0 20 30 20 q30 0 30 -20 l-6 -211 q0 -15 -24 -15 Z" /><glyph glyph-name="numbersign" unicode="#" d="M298 260 l25 207 l-121 0 l-27 -207 l123 0 ZM289 -6 q-26 0 -26 13 q0 3 5 24 q5 21 24 181 l-122 0 q-17 -140 -22 -200 q-2 -18 -29.5 -18 q-27.5 0 -27.5 13 q0 7 5.5 29 q5.5 22 24.5 176 q-54 0 -70 -3 q-22 0 -22 32 q0 21 17 21 q30 -2 80 -2 l25 207 q-60 0 -77 -3 q-22 0 -22 38 q0 15 17 15 q31 -2 89 -2 q20 164 21 190 q0 11 18 11 q37 0 37 -19 q-8 -28 -27 -182 l123 0 q19 164 21 190 q0 11 18 11 q37 0 37 -19 q-6 -14 -27 -182 q31 0 70 3 q11 0 16 -10.5 q5 -10.5 5 -20.5 q0 -21 -17 -21 q-19 1 -80 1 l-25 -207 q38 0 77 3 q11 0 16 -10.5 q5 -10.5 5 -20.5 q0 -21 -16 -21 q-34 1 -88 1 q-16 -132 -23 -203 q0 -6 -9.5 -10.5 q-9.5 -4.5 -20.5 -4.5 Z" /><glyph glyph-name="dollar" unicode="$" d="M230 418 l0 236 q-30 -5 -55 -23 q-57 -45 -57 -99 q0 -80 98 -109 l14 -5 ZM281 42 q51 10 86.5 49.5 q35.5 39.5 35.5 92.5 q0 129 -122 165 l0 -307 ZM269 -121 l-3 0 q-13 0 -25.5 6.5 q-12.5 6.5 -12.5 16.5 l2 84 q-118 8 -187 109 q-4 6 -4 17.5 q0 11.5 9.5 27 q9.5 15.5 19.5 15.5 q10 0 14 -8 q31 -57 72.5 -82 q41.5 -25 75.5 -27 l0 328 l-38 11 q-131 41 -131 157 q0 41 22 79 q47 79 146 94 l-2 54 q0 9 15 9 q15 0 28 -6.5 q13 -6.5 13 -16.5 l-1 -39 q39 -4 73 -22 q72 -40 72 -74 q0 -16 -6.5 -28 q-6.5 -12 -17 -12 q-10.5 0 -20.5 14 q-47 63 -102 69 l0 -253 l25 -7 q154 -51 154 -203 q0 -51 -21 -95 q-45 -92 -158 -109 l2 -31 q0 -21 1 -41 l0 -30 q0 -7 -15 -7 Z" /><glyph glyph-name="percent" unicode="%" d="M136 421 q27 0 40.5 35.5 q13.5 35.5 13.5 91.5 q0 121 -52 121 q-16 0 -35 -31.5 q-19 -31.5 -19 -98 q0 -66.5 23 -100.5 q12 -18 29 -18 ZM364 29 q27 0 40.5 35.5 q13.5 35.5 13.5 91.5 q0 121 -52 121 q-17 0 -35.5 -31.5 q-18.5 -31.5 -18.5 -98 q0 -66.5 24 -100.5 q11 -18 28 -18 ZM147 -18 q-3 -13 -14.5 -13 q-11.5 0 -21.5 12.5 q-10 12.5 -10 21.5 q0 9 28 75 l197 571 q10 28 22 78 q4 12 15 12 q11 0 21.5 -14.5 q10.5 -14.5 10.5 -21 q0 -6.5 -9.5 -30 q-9.5 -23.5 -118.5 -337.5 q-109 -314 -120 -354 ZM366 -15 q-49 0 -74.5 47 q-25.5 47 -25.5 123 q0 76 27 122 q11 18 19 18 l8 0 q18 25 48 25 q46 0 71 -47 q25 -47 25 -106 q0 -59 -11 -97 q-23 -85 -87 -85 ZM138 377 q-48 0 -74 47 q-26 47 -26 123 q0 76 27 122 q11 18 19 18 l8 0 q18 25 49 25 q46 0 70.5 -47 q24.5 -47 24.5 -106 q0 -59 -10 -97 q-24 -85 -88 -85 Z" /><glyph glyph-name="ampersand" unicode="&amp;" d="M183 436 q95 80 95 147 q0 79 -61 79 q-27 0 -46.5 -28 q-19.5 -28 -19.5 -73.5 q0 -45.5 32 -124.5 ZM179 33 q63 0 120 92 q-67 103 -134 230 q-76 -74 -76 -200 q0 -50 23.5 -86 q23.5 -36 66.5 -36 ZM178 -15 q-45 0 -77 25 q-64 48 -64 143 q0 155 106 249 q-45 95 -45 158 q0 63 33 106 q33 43 84.5 43 q51.5 0 83 -32 q31.5 -32 31.5 -90 q0 -38 -18 -73 q-39 -71 -108 -126 q60 -120 122 -213 q44 91 59 186 q2 12 5 21 q3 9 14.5 9 q11.5 0 24.5 -10 q13 -10 13 -26 q0 -16 -24.5 -90.5 q-24.5 -74.5 -59.5 -139.5 l12 -16 q48 -73 82 -90 q31 -14 31 -25 q0 -7 -21.5 -7 q-21.5 0 -40.5 6 q-37 6 -91 85 q-35 -50 -71 -71.5 q-36 -21.5 -81 -21.5 Z" /><glyph glyph-name="quotesingle" unicode="&#39;" d="M250 477 q-24 0 -24 15 l-6 211 q0 20 30 20 q30 0 30 -20 l-6 -211 q0 -15 -24 -15 Z" /><glyph glyph-name="parenleft" unicode="(" d="M379 -121 q9 -7 9 -21.5 q0 -14.5 -14 -14.5 q-8 0 -33 21 q-58 44 -128.5 160.5 q-70.5 116.5 -70.5 252.5 q0 136 60 277 q60 141 164 230 q6 5 13.5 5 q7.5 0 13 -4 q5.5 -4 5.5 -10.5 q0 -6.5 -6 -13.5 q-94 -96 -139.5 -234 q-45.5 -138 -45.5 -239 q0 -101 45 -220 q45 -119 127 -189 Z" /><glyph glyph-name="parenright" unicode=")" d="M126 -157 q-14 0 -14 14.5 q0 14.5 9 21.5 q82 70 127 189 q45 119 45 220 q0 101 -45.5 239 q-45.5 138 -139.5 234 q-6 7 -6 13.5 q0 6.5 5.5 10.5 q5.5 4 13 4 q7.5 0 13.5 -5 q104 -89 164 -227 q60 -144 60 -279 q0 -135 -72 -260 q-69 -110 -126 -154 q-26 -21 -34 -21 Z" /><glyph glyph-name="asterisk" unicode="*" d="M246 69 q-25 0 -25 18 l7 242 q-86 -74 -108.5 -94.5 q-22.5 -20.5 -29.5 -26.5 q-7 -6 -16 -6 q-9 0 -17 14 q-8 14 -8 23.5 q0 9.5 6 13.5 q33 22 159 116 q-97 74 -155 114 q-6 6 -6 18 q0 12 6.5 25.5 q6.5 13.5 15.5 13.5 q5 0 24.5 -18.5 q19.5 -18.5 128.5 -112.5 l-3 159 q-3 54 -3 72 q0 28 29.5 28 q29.5 0 29.5 -17 q-3 -58 -7 -242 q78 67 108 94.5 q30 27.5 41 32.5 q12 0 20 -13.5 q8 -13.5 8 -24 q0 -10.5 -6 -14.5 q-48 -33 -158 -115 q98 -74 121.5 -90 q23.5 -16 34.5 -25 q6 -3 6 -15.5 q0 -12.5 -6.5 -26.5 q-6.5 -14 -16.5 -14 q-5 0 -22.5 17 q-17.5 17 -56.5 50.5 q-39 33.5 -73 63.5 q2 -136 6 -238 q0 -9 -10.5 -15.5 q-10.5 -6.5 -23.5 -6.5 Z" /><glyph glyph-name="plus" unicode="+" d="M252 91 q-10 0 -19.5 6 q-9.5 6 -9.5 15 q3 47 3 209 q-139 0 -155 -3 q-22 0 -22 32 q0 21 17 21 q30 -2 160 -2 q0 171 -2 205 q0 15 17 15 q36 0 36 -20 q-2 -39 -2 -200 q98 0 153 3 q11 0 16 -10.5 q5 -10.5 5 -20.5 q0 -21 -16 -21 q-40 1 -158 1 q0 -150 1 -171 l0 -44 q0 -15 -24 -15 Z" /><glyph glyph-name="comma" unicode="," d="M184 -120 q-16 0 -16 16 q0 10 16 20.5 q16 10.5 35.5 33.5 q19.5 23 24.5 44 q-11 4 -17 10 q-29 25 -29 58 q0 55 49 55 q27 0 43.5 -21 q16.5 -21 18.5 -38 q2 -17 3 -18 l0 -2 q0 -62 -50.5 -110 q-50.5 -48 -77.5 -48 Z" /><glyph glyph-name="hyphen" unicode="-&#x2011;" d="M114 313 q-22 0 -22 32 q0 21 17 21 q29 -2 143.5 -2 q114.5 0 146.5 2 q10 0 15.5 -11 q5.5 -11 5.5 -26 q0 -15 -16 -15 l-147 2 q-125 0 -143 -3 Z" /><glyph glyph-name="period" unicode="." d="M256 -18 q-25 0 -44.5 24 q-19.5 24 -19.5 46 q0 56 50 56 q25 0 45.5 -23.5 q20.5 -23.5 20.5 -48.5 q0 -54 -52 -54 Z" /><glyph glyph-name="slash" unicode="/" d="M109 -28.5 q-7 -17.5 -11.5 -30 q-4.5 -12.5 -15 -12.5 q-10.5 0 -20.5 14 q-10 14 -10 23.5 q0 9.5 9.5 24 q9.5 14.5 22.5 41.5 q320 726 326 742 q6 16 17.5 16 q11.5 0 22.5 -16 q11 -16 11 -26 l-39 -73 q-306 -686 -313 -703.5 Z" /><glyph glyph-name="zero" unicode="0" d="M117 167 l237 429 q-35 65 -91.5 65 q-56.5 0 -111 -83.5 q-54.5 -83.5 -54.5 -238.5 q0 -97 20 -172 ZM240 38 q80 0 121 102 q37 104 37 218 q0 114 -21 179 l-238 -429 q39 -70 101 -70 ZM243 -16 q-84 0 -138 73 q-13 19 -24 46 q-42 97 -42 234 q0 60 10 116 q21 118 54 176 q16 28 29 28 q13 0 17 -4 q45 58 120 58 q75 0 119 -65 q68 -103 68 -274 q0 -171 -51 -274 q-57 -114 -162 -114 Z" /><glyph glyph-name="one" unicode="1" d="M293 672 l-5 -72 q0 -482 1 -503 l0 -42 q96 2 112 4 l8 0 q13 0 21 -16.5 q8 -16.5 8 -29.5 q0 -13 -11 -13 q-26 3 -76 3 l-229 -4 q-17 -3 -29 -3 l-2 0 q-11 0 -19.5 15 q-8.5 15 -8.5 28 q0 13 13 13 q45 0 151 2 q2 97 2 569 q-72 -43 -93.5 -58 q-21.5 -15 -32 -15 q-10.5 0 -19 12.5 q-8.5 12.5 -8.5 20 q0 7.5 4 9.5 l146 92 q18 24 30.5 24 q12.5 0 24.5 -12 q12 -12 12 -24 Z" /><glyph glyph-name="two" unicode="2" d="M84 -2 l-5 0 q-16 0 -26 15.5 q-10 15.5 -10 29 q0 13.5 18 37.5 q60 117 206 261 q120 114 120 206 q0 47 -28 78.5 q-28 31.5 -79.5 31.5 q-51.5 0 -89.5 -30 q-38 -30 -54 -75 q-7 -25 -23 -25 q-5 0 -13 6 q-21 13 -21 38 q0 11 13 33.5 q13 22.5 39 47.5 q61 59 144.5 59 q83.5 0 128.5 -46 q45 -46 45 -113.5 q0 -67.5 -36.5 -127 q-36.5 -59.5 -101.5 -121.5 q-133 -128 -198 -247 q56 5 202 5 l60 -1 l56 1 q12 0 21.5 -16 q9.5 -16 9.5 -30 q0 -14 -15 -14 q-8 0 -36 4 q-28 4 -222 4 q-46 0 -105 -11 Z" /><glyph glyph-name="three" unicode="3" d="M237 -16 q-69 0 -112.5 21 q-43.5 21 -78.5 59 q-7 8 -7 21 q0 13 9 28.5 q9 15.5 19 15.5 q10 0 15 -7 q27 -39 60 -62 q33 -23 87.5 -23 q54.5 0 92.5 26 q75 52 75 162 q0 55 -38 92.5 q-38 37.5 -89.5 37.5 q-51.5 0 -62.5 -5 q-11 -5 -20.5 -5 q-9.5 0 -18 14.5 q-8.5 14.5 -8.5 27 q0 12.5 11 12.5 q117 17 158 63 q41 46 41 93 q0 47 -28.5 75.5 q-28.5 28.5 -76.5 28.5 q-84 0 -150 -92 q-5 -7 -12 -7 q-7 0 -14 7 q-17 16 -17 36 q0 20 54 63 q61 45 136.5 45 q75.5 0 120.5 -41 q45 -41 45 -108 q0 -67 -38 -110 q-38 -43 -99 -62 q52 0 88 -21 q77 -47 77 -156 q0 -57 -24.5 -111 q-24.5 -54 -75 -86 q-50.5 -32 -119.5 -32 Z" /><glyph glyph-name="four" unicode="4" d="M366 -11 q-16 0 -31 8 q-15 8 -15 20 q0 25 2 63 l0 79 l-207 -12 l-38 -7 q-16 0 -29 14 q-13 14 -13 31 q0 17 18.5 41 q18.5 24 83.5 143 q143 263 163 331 q4 10 12 10 q18 0 36 -29 q6 -12 6 -21 q0 -9 -34 -66 q-138 -256 -219 -396 l221 11 q0 209 -3 316 q0 10 15.5 10 q15.5 0 30.5 -8 q15 -8 15 -20 q-2 -118 -2 -295 l70 7 q13 0 22 -16.5 q9 -16.5 9 -29 q0 -12.5 -12 -12.5 l-81 2 l-8 -1 l0 -59 q4 -62 4 -104 q0 -10 -16 -10 Z" /><glyph glyph-name="five" unicode="5" d="M431.5 106.5 q-22.5 -55.5 -72.5 -89.5 q-50 -34 -118.5 -34 q-68.5 0 -113.5 26.5 q-45 26.5 -78 66.5 q-6 7 -6 21 q0 14 9.5 31 q9.5 17 19 17 q9.5 0 13.5 -8 q57 -99 144 -99 q58 0 95 26 q71 51 71 159 q0 78 -38.5 121 q-38.5 43 -102 43 q-63.5 0 -112.5 -53 l-25 -26 q-4 -4 -14 -4 q-10 0 -23 13.5 q-13 13.5 -13 24.5 q0 11 4.5 30.5 q4.5 19.5 22 147 q17.5 127.5 17.5 159.5 q0 12 16 12 q16 0 35 -12 q226 19 236 21 q15 0 23 -15 q8 -15 8 -27 q0 -12 -12 -13 q-12 -1 -31 -1 l-223 -19 l-34 -236 q51 50 140 50 q49 0 92 -26 q43 -26 68 -74 q25 -48 25 -112.5 q0 -64.5 -22.5 -120 Z" /><glyph glyph-name="six" unicode="6" d="M250 35 q70 0 110 51.5 q40 51.5 40 133.5 q0 94 -64 140 q-30 22 -74.5 22 q-44.5 0 -82.5 -24 q-79 -59 -79 -161 q0 -46 18 -83 q18 -37 52 -58 q34 -21 80 -21 ZM436.5 102.5 q-22.5 -54.5 -69 -86.5 q-46.5 -32 -114 -32 q-67.5 0 -115.5 30 q-96 59 -96 189 q0 160 192 474 q14 23 20.5 28.5 q6.5 5.5 19 5.5 q12.5 0 27.5 -5.5 q15 -5.5 15 -15.5 q0 -5 -4 -10.5 q-4 -5.5 -6 -10.5 q-101 -134 -175 -303 q28 66 135 66 q59 0 103 -28 q90 -60 90 -181 q0 -66 -22.5 -120.5 Z" /><glyph glyph-name="seven" unicode="7" d="M182 -9 q-40 0 -40 19 q0 23 80.5 238.5 q80.5 215.5 161.5 395.5 l-286 -29 q-27 0 -42 35 q-4 12 -4 17 q0 5 7 5 l31 -2 q289 23 302 26.5 q13 3.5 24.5 3.5 q11.5 0 25 -14.5 q13.5 -14.5 13.5 -28.5 q-4 -14 -22 -48 q-123 -267 -203 -518 l-22 -85 q-3 -15 -26 -15 Z" /><glyph glyph-name="eight" unicode="8" d="M232 428 q91 65 152 132 q4 3 4 5 q0 2 -7.5 2 q-7.5 0 -15.5 14 q-19 37 -44 58 q-25 21 -65 21 q-78 0 -110 -58 q-15 -27 -15 -62 q0 -35 24 -60.5 q24 -25.5 77 -51.5 ZM236 38 q71 0 117 39.5 q46 39.5 46 101 q0 61.5 -37.5 106.5 q-37.5 45 -126.5 82 q-60 -45 -96.5 -91 q-36.5 -46 -36.5 -100 q0 -79 59 -119 q29 -19 75 -19 ZM236 -15 q-62 0 -105 25 q-87 52 -87 168 q0 116 139 215 q-61 35 -85 69.5 q-24 34.5 -24 80 q0 45.5 20.5 83.5 q20.5 38 61.5 61 q41 23 89.5 23 q48.5 0 79.5 -15 q59 -33 82 -71 q10 -17 10 -22 q0 -5 1 -5 q1 0 2.5 2 q1.5 2 13.5 2 q18 0 18 -19 q0 -12 -21 -41 q-48 -62 -148 -138 q91 -43 132.5 -94 q41.5 -51 41.5 -123 q0 -90 -58.5 -145.5 q-58.5 -55.5 -162.5 -55.5 Z" /><glyph glyph-name="nine" unicode="9" d="M189 317 q94 0 166 142 q22 43 35 110 q0 1 -10 1 q-10 0 -15 14 q-31 74 -103 74 q-72 0 -118 -70.5 q-46 -70.5 -46 -142.5 q0 -127 91 -128 ZM312 -11 q-23 0 -23 17 q0 5 1.5 9 q1.5 4 2 9.5 q0.5 5.5 12.5 70.5 l47 271 q-61 -104 -162 -104 q-65 0 -107 48 q-42 48 -42 140 q0 92 63 176 q63 84 158 84 q78 0 122 -53 q16 -20 18 -25 q2 13 3.5 31 q1.5 18 16 18 q14.5 0 28.5 -11.5 q14 -11.5 14 -22.5 q-30 -100 -83 -435 q-23 -136 -29 -203 q-1 -18 -40 -20 Z" /><glyph glyph-name="colon" unicode=":" d="M256 467 q-24 0 -42.5 22 q-18.5 22 -18.5 45 q0 49 49 53 q22 0 41 -23 q19 -23 19 -47 q0 -50 -48 -50 ZM256 92 q-24 0 -42.5 22 q-18.5 22 -18.5 45 q0 49 49 53 q22 0 41 -23 q19 -23 19 -47 q0 -50 -48 -50 Z" /><glyph glyph-name="semicolon" unicode=";" d="M269 467 q-24 0 -42.5 22 q-18.5 22 -18.5 45 q0 49 49 53 q22 0 41 -23 q19 -23 19 -47 q0 -50 -48 -50 ZM195 -11 q-7 0 -11.5 5 q-4.5 5 -4.5 12.5 q0 7.5 6 9.5 q60 43 70 89 q0 0 -16 8 q-28 24 -28 56 q0 52 49 52 q24 0 39.5 -20 q15.5 -20 17.5 -36.5 q2 -16.5 3 -17.5 l0 -6 q0 -52 -50.5 -102 q-50.5 -50 -74.5 -50 Z" /><glyph glyph-name="less" unicode="&lt;" d="M415 88 q-4 0 -10 4 q-78 64 -168.5 120.5 q-90.5 56.5 -113 69.5 q-22.5 13 -29.5 14 q-7 1 -15 6.5 q-8 5.5 -13 20.5 q-5 15 -5 25.5 q0 10.5 3.5 17.5 q3.5 7 17.5 11.5 q14 4.5 49 25.5 q185 108 274 185 q6 4 10 4 q11 0 16.5 -13 q5.5 -13 5.5 -27 q0 -14 -8 -20 q-58 -36 -129.5 -84.5 q-71.5 -48.5 -180.5 -109.5 q136 -75 276 -169 l28 -18 q9 -6 9 -34.5 q0 -28.5 -17 -28.5 Z" /><glyph glyph-name="equal" unicode="=" d="M80 408 q-21 0 -21 26.5 q0 26.5 17 26.5 q30 -2 168 -2 q138 0 177 3 q23 0 23 -38 q0 -15 -16 -15 l-176 2 q-155 0 -172 -3 ZM80 218 q-21 0 -21 26.5 q0 26.5 17 26.5 q30 -2 168 -2 q138 0 177 3 q23 0 23 -38 q0 -15 -16 -15 l-176 2 q-155 0 -172 -3 Z" /><glyph glyph-name="greater" unicode="&gt;" d="M76 88 q-11 0 -16.5 13.5 q-5.5 13.5 -5.5 28 q0 14.5 8 18.5 l59 37 q110 77 251 157 q-214 125 -252.5 152.5 q-38.5 27.5 -52.5 34.5 q-8 8 -8 24 q0 39 17 39 q5 0 10 -4 q117 -96 298 -199 q7 -3 13 -4 q33 -8 33 -53 q0 -11 -3.5 -18 q-3.5 -7 -35.5 -18 q-219 -130 -305 -204 q-5 -4 -10 -4 Z" /><glyph glyph-name="question" unicode="?" d="M276 182 q0 -14 -27.5 -14 q-27.5 0 -32.5 18 q-5 18 -5 38 q0 111 73 170 l52 47 q57 55 57 127 q0 90 -91 94 q-82 0 -133 -52 q-46 -49 -52 -83 q-3 -14 -17.5 -14 q-14.5 0 -27 11 q-12.5 11 -12.5 19 q0 8 3 12 q81 156 234 156 q74 0 114.5 -36.5 q40.5 -36.5 40.5 -94 q0 -57.5 -17 -93.5 q-26 -54 -97 -112.5 q-71 -58.5 -71 -118.5 q0 -52 8 -68 q1 -2 1 -6 ZM248 -5 q-21 0 -35 19 q-14 19 -14 37 q0 41 40 44 q18 0 33 -19.5 q15 -19.5 15 -38.5 q0 -42 -39 -42 Z" /><glyph glyph-name="at" unicode="@" d="M211 204 q31 0 55.5 58.5 q24.5 58.5 29.5 168.5 q0 81 -32 81 q-22 0 -41 -28 q-43 -68 -43 -174 q0 -106 31 -106 ZM251 -15 q-69 0 -117 39.5 q-48 39.5 -74.5 111 q-26.5 71.5 -26.5 170.5 q0 160 61 281 q61 121 167 121 q65 0 111 -39 q89 -78 89 -254 q0 -79 -17 -138.5 q-17 -59.5 -42 -93 q-25 -33.5 -52 -33.5 q-57 0 -59 72 q-9 -29 -35 -50 q-26 -21 -48 -21 q-37 0 -58.5 39.5 q-21.5 39.5 -21.5 109 q0 69.5 17 126.5 q42 132 113 132 q42 0 49 -21 l0 -16 q2 12 2 20.5 q0 8.5 12 8.5 q12 0 27 -12.5 q15 -12.5 15 -28.5 q-10 -57 -16 -147 q-6 -90 -8 -105 l-1 -20 q0 -36 13 -36 q7 0 21 24 q36 65 36 190 q0 71 -18 128 q-37 117 -130 117 q-68 0 -121 -101 q-53 -101 -53 -241 q0 -140 44.5 -211.5 q44.5 -71.5 115.5 -71.5 q103 0 178 146 q7 13 17 13 q15 0 15 -14 q0 -9 -1 -11 q-31 -82 -83 -133 q-52 -51 -121 -51 Z" /><glyph glyph-name="A" unicode="A" d="M165 276 l169 10 q-53 201 -79 322 l-90 -332 ZM476 13.5 q0 -6.5 -13.5 -13.5 q-13.5 -7 -32 -7 q-18.5 0 -20.5 12 q-5 26 -63 233 q-190 -9 -195 -10 q-13 -44 -29.5 -96.5 q-16.5 -52.5 -33.5 -119.5 q-1 -8 -12 -13 q-11 -5 -23 -5 q-29 0 -29 18 q0 5 13.5 36 q13.5 31 56.5 176 l-4 -1 q-15 0 -23.5 15.5 q-8.5 15.5 -8.5 27.5 q0 12 13 12 q18 -3 39 -3 l9 33 q79 250 104 372 q4 30 23 30 q32 0 46 -30 q0 -42 73 -312 q73 -270 108 -344 q2 -4 2 -10.5 Z" /><glyph glyph-name="B" unicode="B" d="M131 403 q60 0 93.5 8.5 q33.5 8.5 62 25.5 q28.5 17 48 46 q19.5 29 19.5 68 q0 107 -120 107 q-56 0 -110 -16 l0 -239 l7 0 ZM124 33 q19 0 54 2 q71 2 142 36 q76 41 76 140.5 q0 99.5 -79 135.5 q-32 15 -61 16 q-75 0 -132 -7 l0 -323 ZM162 -8 q-134 0 -134 25 q0 6 5 11.5 q5 5.5 12 5.5 q7 0 24 2 l0 592 q-9 3 -17 15.5 q-8 12.5 -8 21.5 q0 9 11.5 15.5 q11.5 6.5 65.5 17.5 q54 11 115 11 q92 0 133.5 -44.5 q41.5 -44.5 41.5 -107.5 q0 -42 -17 -74 q-39 -66 -90 -86 q40 -3 74 -27 q76 -56 76 -163 q0 -57 -22 -99 q-48 -82 -137 -100 q-67 -16 -133 -16 Z" /><glyph glyph-name="C" unicode="C" d="M246 -14 q-59 0 -108 32 q-102 66 -102 275 q0 175 70 296 q70 121 173 121 q44 0 77 -14 q64 -34 86 -68 q9 -16 9 -23 q0 -7 -9.5 -21 q-9.5 -14 -20 -14 q-10.5 0 -15.5 10 q-41 77 -130 77 q-52 0 -94 -47 q-91 -110 -91 -315 q0 -137 44 -197 q44 -60 115 -60 q102 0 181 134 q9 14 19 14 q16 0 16 -16 q0 -3 -8 -24 q-16 -44 -69 -99 q-61 -61 -143 -61 Z" /><glyph glyph-name="D" unicode="D" d="M120 34 q66 3 112.5 20.5 q46.5 17.5 84.5 55.5 q89 87 89 266 q0 100 -30 163.5 q-30 63.5 -77 91 q-47 27.5 -94.5 27.5 q-47.5 0 -84.5 -12 l0 -612 ZM133 -6 q-55 0 -80 4 q-25 4 -25 18 q0 18 36 18 l0 597 q-9 3 -16.5 15 q-7.5 12 -7.5 22 q0 10 9 15 q62 27 164 27 q65 0 123.5 -35.5 q58.5 -35.5 92.5 -111 q34 -75.5 34 -189.5 q0 -114 -30.5 -189 q-30.5 -75 -76.5 -118.5 q-46 -43.5 -97 -56.5 q-71 -16 -126 -16 Z" /><glyph glyph-name="E" unicode="E" d="M125 684 l285 26 q10 0 18.5 -15.5 q8.5 -15.5 8.5 -28 q0 -12.5 -12 -13.5 l-63 0 q-14 0 -239 -19 l0 -237 q196 14 235 19 q15 0 22.5 -14 q7.5 -14 7.5 -26 q0 -12 -12 -12 q-45 0 -253 -15 l0 -298 q280 6 304 8 l8 0 q13 0 21 -16.5 q8 -16.5 8 -29.5 q0 -13 -11 -13 q-26 3 -75 3 q-246 -4 -256 -7.5 q-10 -3.5 -21.5 -3.5 q-11.5 0 -25.5 14 q-14 14 -14 31 l7 47 l0 265 q-11 7 -18.5 20.5 q-7.5 13.5 -7.5 21 q0 7.5 7.5 7 q7.5 -0.5 18.5 -0.5 q0 252 -2 264 q-2 12 -2 23 q0 14 16 14 q16 0 45 -14 Z" /><glyph glyph-name="F" unicode="F" d="M134 1 q0 -10 -15.5 -10 q-15.5 0 -30 8 q-14.5 8 -14.5 20 q2 62 2 330 q-11 7 -18.5 20 q-7.5 13 -7.5 21.5 q0 8.5 8 8.5 l18 -1 l0 231 l-7 58 q0 5 1.5 8 q1.5 3 18.5 3 q17 0 46 -11 q203 12 278 20 q16 0 24 -15 q8 -15 8 -27.5 q0 -12.5 -12 -13.5 l-68 0 q-9 0 -234 -14 l0 -239 q157 10 233 17 q13 0 21.5 -14.5 q8.5 -14.5 8.5 -26.5 q0 -12 -13 -12.5 q-13 -0.5 -36 -0.5 q-23 0 -214 -12 l0 -242 l3 -106 Z" /><glyph glyph-name="G" unicode="G" d="M397 302 l-3 14 q0 1 1 1 q-62 -6 -124 -16 q-13 0 -22 16.5 q-9 16.5 -9 28 q0 11.5 11 11.5 q34 0 146 9 q16 4 24.5 4 q8.5 0 16.5 -9 q19 -18 19 -32 l-4 -27 q0 -170 2 -298 q0 -12 -16.5 -12 q-16.5 0 -30 7 q-13.5 7 -13.5 15 q3 36 3 77 q-5 -13 -28 -42 q-51 -64 -119.5 -64 q-68.5 0 -116.5 29 q-103 55 -103 281 q0 166 71 291 q71 125 176 125 q77 0 116 -38 q41 -35 46 -55 q0 -12 -10 -27.5 q-10 -15.5 -21 -15.5 q-11 0 -16 10 q-29 74 -115 74 q-73 0 -132.5 -112 q-59.5 -112 -59.5 -262 q0 -176 75 -224 q36 -23 82 -23 q91 0 133 124 q21 60 21 140 Z" /><glyph glyph-name="H" unicode="H" d="M68 17 l1 320 l2 0 l-7 -2 q-17 0 -28 30 q-4 11 -4 18 q0 11 12 11 l25 -1 l0 196 q0 34 -2 106 q0 10 15.5 10 q15.5 0 30.5 -8 q15 -8 15 -20 q0 -12 -1 -37.5 q-1 -25.5 -1 -244.5 l167 9 q17 2 31.5 2.5 q14.5 0.5 19.5 1.5 l21 1 q9 0 15 -6 q0 184 -3 292 q0 10 16 10 q16 0 30.5 -8 q14.5 -8 14.5 -20 q0 -12 -1 -37.5 q-1 -25.5 -1 -533.5 l3 -106 q0 -10 -15 -10 q-15 0 -30.5 8 q-15.5 8 -15.5 20 q0 12 1 38 q1 26 1 297 q-5 1 -33.5 1 q-28.5 0 -220.5 -11 l0 -238 l3 -106 q0 -10 -15.5 -10 q-15.5 0 -30.5 8 q-15 8 -15 20 Z" /><glyph glyph-name="I" unicode="I" d="M103 -4 l-2 0 q-11 0 -19.5 15 q-8.5 15 -8.5 28 q0 13 13 13 q55 0 134 3 q1 26 1 585 q-58 -3 -74.5 -6 q-16.5 -3 -29 -3 q-12.5 0 -21 15 q-8.5 15 -8.5 28 q0 13 13 13 l20 0 q13 -1 47 -1 l153 8 q41 3 66 8 q16 0 24 -15 q8 -15 8 -28.5 q0 -13.5 -13 -13.5 l-21 1 q-54 0 -107 -2 q0 -565 1 -589 q94 2 112 4 l8 0 q13 0 21 -16.5 q8 -16.5 8 -29.5 q0 -13 -11 -13 q-26 3 -76 3 l-209 -4 q-17 -3 -29 -3 Z" /><glyph glyph-name="J" unicode="J" d="M245 -15 q-89 0 -140 59 q-41 51 -41 82 q0 14 14 30 q14 16 27 16 q13 0 13 -10 q11 -53 43 -87 q32 -34 74 -34 q25 0 48 12 q57 27 57 127 q0 407 -3 515 q0 10 16 10 q16 0 31.5 -8 q15.5 -8 15.5 -20 q0 -12 -1 -37.5 q-1 -25.5 -1 -462.5 q0 -74 -22 -116 q-42 -76 -131 -76 Z" /><glyph glyph-name="K" unicode="K" d="M108 -11 q-15 0 -29.5 8 q-14.5 8 -14.5 20 q0 12 1 39.5 q1 27.5 1 309 q0 281.5 -3 324.5 l0 6 q0 10 16 10 q16 0 30 -8 q14 -8 14 -20 q-1 -37 -1 -268 q146 154 249 291 q4 4 12.5 4 q8.5 0 26.5 -10 q18 -10 18 -22 q0 -2 -15 -16.5 q-15 -14.5 -67 -76.5 q-52 -62 -161 -181 q95 -140 174.5 -244.5 q79.5 -104.5 93.5 -118.5 q14 -14 14 -20 q0 -6 -14.5 -15 q-14.5 -9 -32.5 -9 q-18 0 -25 14 q-5 16 -25 41 q-147 203 -222 314 l-26 -28 l1 -334 q0 -10 -15 -10 Z" /><glyph glyph-name="L" unicode="L" d="M110 -7 q-23 0 -36 29 q-5 10 -5 16 q0 6 3 12.5 q3 6.5 3 289.5 q0 283 -2 355 q0 10 15.5 10 q15.5 0 30.5 -8 q15 -8 15 -20 q0 -12 -1 -37.5 q-1 -25.5 -1 -588.5 q69 5 285 5 q14 0 22.5 -17 q8.5 -17 8.5 -29.5 q0 -12.5 -16 -12.5 q-55 5 -90 6 l-118 0 q-87 0 -114 -10 Z" /><glyph glyph-name="M" unicode="M" d="M66 -6 q-31 0 -31 13 q0 7 8 77 q31 542 31 569 l-1 15 q0 15 18 24.5 q18 9.5 33 9.5 q15 0 16 -4 q1 -4 2 -5.5 q1 -1.5 1.5 -5 q0.5 -3.5 5.5 -23 q5 -19.5 93 -456.5 q44 198 80.5 336.5 q36.5 138.5 38 151.5 q1.5 13 12 13 q10.5 0 25.5 -5 q35 -15 35 -28 l-4 -46 l2 -39 q9 -112 27 -494 q2 -43 10 -79 q0 -11 -12 -17 q-12 -6 -26 -6 q-27 0 -27 16 q0 112 -5 230 l-17 329 l2 10 q-19 -69 -61.5 -242 q-42.5 -173 -42.5 -204 q-1 -11 -14.5 -19 q-13.5 -8 -33.5 -8 q-20 0 -22.5 20 q-2.5 20 -45.5 227.5 q-43 207.5 -43 213.5 l1 -2 q-6 -107 -18 -395 q-5 -79 -5 -159 q-1 -18 -32 -18 Z" /><glyph glyph-name="N" unicode="N" d="M116 -1 q0 -10 -15.5 -10 q-15.5 0 -29.5 8 q-14 8 -14 20 q0 12 1 38 q1 26 1 586 l-6 35 q0 12 18 21 q18 9 28 9 l11 -1 q11 -4 21 -25 q140 -351 253 -582 l0 491 q0 34 -2 106 q0 10 15 10 q15 0 29.5 -8 q14.5 -8 14.5 -20 q0 -12 -1 -37.5 q-1 -25.5 -1 -551.5 q0 -18 4 -38 l1 -17 q0 -13 -16.5 -27.5 q-16.5 -14.5 -36.5 -14.5 q-17 0 -37 47 q-135 274 -241 543 q0 -507 1.5 -536 q1.5 -29 1.5 -46 Z" /><glyph glyph-name="O" unicode="O" d="M240 38 q91 0 132 102 q36 91 36 213 q0 122 -33 216 q-36 92 -108 92 q-61 0 -117.5 -84 q-56.5 -84 -56.5 -253.5 q0 -169.5 60 -245.5 q33 -40 87 -40 ZM244 -16 q-70 0 -117 47 q-89 91 -89 306 q0 59 10 115 q20 118 55 175 q17 28 31 28 q14 0 19 -8 q45 64 113.5 64 q68.5 0 110.5 -46 q86 -100 86 -302 q0 -153 -52 -265 q-59 -114 -167 -114 Z" /><glyph glyph-name="P" unicode="P" d="M122 368 q0 -2 38.5 -2 q38.5 0 108.5 16 q69 18 102.5 53.5 q33.5 35.5 33.5 102 q0 66.5 -41 91.5 q-41 25 -113 25 q-72 0 -129 -19 l0 -267 ZM125 -1 q0 -10 -15.5 -10 q-15.5 0 -30.5 8 q-15 8 -15 20 q0 12 1 41.5 q1 29.5 1 559.5 q-14 0 -25 15.5 q-11 15.5 -11 25 q0 9.5 7 14.5 q7 5 135 29 q31 5 73 5 q217 0 217 -169 q0 -214 -280 -214 q-58 0 -60 2 l0 -211 l3 -116 Z" /><glyph glyph-name="Q" unicode="Q" d="M238 38 q53 0 86 32 q-59 87 -67 97 q-16 17 -16 23.5 q0 6.5 12 13.5 q12 7 26 7 q14 0 22.5 -10.5 q8.5 -10.5 57.5 -87.5 q49 83 49 258 q0 104 -33 198 q-36 92 -108 92 q-61 0 -117.5 -84 q-56.5 -84 -56.5 -253.5 q0 -169.5 60 -245.5 q32 -40 85 -40 ZM469 -64 q-13 0 -34 13 q-42 20 -81 75 q-43 -40 -111.5 -40 q-68.5 0 -115.5 47 q-89 91 -89 306 q0 59 10 115 q20 118 54 175 q18 28 32 28 q14 0 19 -8 q45 64 113.5 64 q68.5 0 110.5 -46 q86 -100 86 -297 q0 -197 -72 -303 q52 -75 83 -104 q8 -8 8 -16.5 q0 -8.5 -13 -8.5 Z" /><glyph glyph-name="R" unicode="R" d="M119 378 q2 5 30 5 l15 -1 q173 0 214 104 q11 26 11 49 q0 114 -139 118 q-82 0 -131 -18 l0 -257 ZM122 -1 q0 -10 -15.5 -10 q-15.5 0 -29 8 q-13.5 8 -13.5 20 l1 42 l0 557 q-14 0 -25 17 q-11 17 -11 28.5 q0 11.5 10 12.5 q18 4 35 7 q17 3 53 12 q34 12 116.5 12 q82.5 0 124.5 -26 q75 -44 75 -140 q0 -51 -22 -92 q-57 -94 -168 -103 q-34 -4 -43 -4 l-9 -1 q43 -47 91 -114 q127 -180 177 -211 q13 -8 13 -15.5 q0 -7.5 -18 -7.5 q-18 0 -48.5 15 q-30.5 15 -58.5 46 q-14 17 -88 118 q-119 168 -150 168 l0 -223 l3 -116 Z" /><glyph glyph-name="S" unicode="S" d="M246 -14 q-125 0 -203 109 q-4 6 -4 17.5 q0 11.5 9.5 27 q9.5 15.5 19.5 15.5 q10 0 14 -8 q43 -77 92 -94 q37 -15 77 -15 q40 0 75 20 q77 51 77 131 q0 123 -113 157 l-98 31 q-131 46 -131 153 q0 56 25 95 q63 84 172 84 q46 0 84.5 -16.5 q38.5 -16.5 61 -39 q22.5 -22.5 22.5 -39.5 q0 -17 -6 -30.5 q-6 -13.5 -16 -13.5 q-10 0 -21 16 l-18 23 q-43 48 -104 48 q-40 0 -73 -16 q-70 -38 -70 -104 q0 -50 27 -75.5 q27 -25.5 71 -39 q44 -13.5 90 -27.5 q154 -50 154 -203 q0 -54 -25.5 -102 q-25.5 -48 -73 -76 q-47.5 -28 -115.5 -28 Z" /><glyph glyph-name="T" unicode="T" d="M221 640 l-162 -13 q-11 0 -19.5 15 q-8.5 15 -8.5 28 q0 13 13 13 l66 -1 q300 20 327 25 q16 0 24 -15 q8 -15 8 -28.5 q0 -13.5 -13 -13.5 l-21 1 q-46 0 -157 -7 l0 -539 l3 -106 q0 -10 -15.5 -10 q-15.5 0 -31 8 q-15.5 8 -15.5 20 q0 12 1 38 q1 26 1 585 Z" /><glyph glyph-name="U" unicode="U" d="M232 -15 q-94 0 -134 56 q-40 56 -40 158 q0 417 -1.5 448 q-1.5 31 -1.5 47 q0 11 17 11 q17 0 30.5 -7.5 q13.5 -7.5 13.5 -19 q0 -11.5 -1 -40.5 q-1 -29 -1 -427 q0 -91 26 -132 q26 -41 92 -41 q48 0 81 26 q72 60 72 179 l0 349 l-3 104 q0 11 17 11 q17 0 30.5 -7.5 q13.5 -7.5 13.5 -19 q0 -11.5 -1 -36.5 q-1 -25 -1 -413 q0 -71 -24.5 -126.5 q-24.5 -55.5 -72 -87.5 q-47.5 -32 -112.5 -32 Z" /><glyph glyph-name="V" unicode="V" d="M257 -16 q-34 0 -50 64 q-39 167 -95.5 378 q-56.5 211 -65.5 233.5 q-9 22.5 -10 29.5 q0 14 29 14 q29 0 36 -18 q2 -5 12 -55 q73 -249 133 -524 q62 232 143 512 q9 33 17 80 q2 12 16.5 12 q14.5 0 29.5 -12.5 q15 -12.5 15 -20.5 q0 -8 -7 -24.5 q-7 -16.5 -18 -50.5 q-20 -73 -59.5 -207 q-39.5 -134 -88.5 -314 q-9 -55 -15.5 -76 q-6.5 -21 -21.5 -21 Z" /><glyph glyph-name="W" unicode="W" d="M369 -14 q-19 0 -39 17 q-20 17 -23 43 q-30 320 -60 536 q-6 -47 -31.5 -282.5 q-25.5 -235.5 -27.5 -292.5 q-2 -20 -23.5 -20 q-21.5 0 -40.5 16 q-19 16 -23 43 q-37 413 -51.5 514.5 q-14.5 101.5 -25.5 133.5 q0 10 18.5 10 q18.5 0 33.5 -7.5 q15 -7.5 18 -17 q3 -9.5 3.5 -24 q0.5 -14.5 0.5 -21 q0 -6.5 13.5 -126 q13.5 -119.5 35.5 -398.5 q23 251 39.5 387 q16.5 136 17.5 173 q0 19 35 19 q16 0 31 -6.5 q15 -6.5 17 -14 q2 -7.5 2 -20 q0 -12.5 19.5 -153 q19.5 -140.5 44.5 -388.5 q22 252 39.5 392.5 q17.5 140.5 17.5 191.5 q1 13 18 13 q17 0 32.5 -9 q15.5 -9 15.5 -19 q-17 -44 -73 -591 q-7 -77 -11 -88 q-4 -11 -23 -11 Z" /><glyph glyph-name="X" unicode="X" d="M399 -9 q-17 0 -21 14 q-11 31 -128 282 l-97 -200 l-36 -85 q-3 -11 -21 -11 q-18 0 -33 8 q-15 8 -15 17 q0 3 22 38.5 q22 35.5 37 63.5 l113 236 l-111 239 q-22 48 -44 80 q-2 5 -2 7 q0 10 15 18 q15 8 30 8 q15 0 18 -9 q18 -44 125 -278 q117 246 127 272 q4 8 17 8 q13 0 28 -11.5 q15 -11.5 15 -21.5 l-2 -5 q-22 -32 -42 -74 l-113 -234 l108 -235 q19 -40 56 -95 l2 -4 q0 -9 -15.5 -18.5 q-15.5 -9.5 -32.5 -9.5 Z" /><glyph glyph-name="Y" unicode="Y" d="M274 294 l2 -294 q0 -10 -16 -10 q-16 0 -31 8 q-15 8 -15 20 q1 62 1 276 q-36 91 -89.5 207.5 q-53.5 116.5 -84.5 169.5 l-1 4 l-3 6 q0 8 13.5 13.5 q13.5 5.5 28 5.5 q14.5 0 20.5 -8 q6 -8 12 -30 l12 -31 q67 -137 122 -277 l108 245 q19 42 26 60 q7 18 10.5 25 q3.5 7 6 15.5 q2.5 8.5 18.5 8.5 q16 0 31 -9 q15 -9 15 -16 q0 -1 -2 -3 q-65 -102 -184 -386 Z" /><glyph glyph-name="Z" unicode="Z" d="M79 -2 q-6 -3 -15.5 -3 q-9.5 0 -18.5 15.5 q-9 15.5 -9 29 q0 13.5 9.5 27 q9.5 13.5 12.5 19.5 q123 248 313 559 q-252 -22 -262 -25 q-17 0 -26.5 18.5 q-9.5 18.5 -9.5 29.5 q0 11 9 11 l20 -1 q50 0 247 17 l61 8 q15 0 25.5 -18 q10.5 -18 10.5 -27.5 q0 -9.5 -5 -15.5 q-12 -11 -24 -30 q-181 -285 -311 -556 q59 4 275 4 l55 0 q9 0 16 -16.5 q7 -16.5 7 -29 q0 -12.5 -10 -13.5 q-27 4 -81 6 l-130 0 q-140 0 -159 -9 Z" /><glyph glyph-name="bracketleft" unicode="[" d="M252 -145 q-18 0 -42 -4 q-11 0 -22.5 12 q-11.5 12 -11.5 23 l3 29 q1 22 1 763 l-6 58 q0 15 8.5 20.5 q8.5 5.5 43.5 5.5 q35 0 83 2 l29 0 q11 0 19.5 -10 q8.5 -10 8.5 -22.5 q0 -12.5 -12 -13.5 l-121 0 l0 -820 l57 2 q22 1 39 1 q17 0 26 -10.5 q9 -10.5 9 -22.5 q0 -12 -12 -13 l-100 0 Z" /><glyph glyph-name="backslash" unicode="\" d="M461 -33.5 q0 -9.5 -10 -23.5 q-10 -14 -20.5 -14 q-10.5 0 -15 12.5 q-4.5 12.5 -11.5 30 q-7 17.5 -313 703.5 l-39 73 q0 10 11 26 q11 16 22.5 16 q11.5 0 15.5 -11 q13 -34 175.5 -401.5 q162.5 -367.5 173.5 -384.5 q11 -17 11 -26.5 Z" /><glyph glyph-name="bracketright" unicode="]" d="M237 -146 q-24 -1 -44 -1 q-20 0 -31 -0.5 q-11 -0.5 -19.5 10 q-8.5 10.5 -8.5 23 q0 12.5 12 12.5 l121 0 l0 820 l-56 -2 q-21 -1 -38.5 -1 q-17.5 0 -27 10.5 q-9.5 10.5 -9.5 23 q0 12.5 12 12.5 l101 0 q36 0 41 4 q11 0 22.5 -11.5 q11.5 -11.5 11.5 -25.5 q0 -14 -2 -33 q-2 -19 -2 -757 q0 -18 5 -37 l1 -21 q0 -14 -8.5 -20 q-8.5 -6 -36.5 -6 l-44 0 Z" /><glyph glyph-name="asciicircum" unicode="^" d="M103 464 q-14 0 -27 6.5 q-13 6.5 -13 14.5 q0 4 5 12 q14 17 142 244 q6 14 7 24.5 q1 10.5 15.5 15 q14.5 4.5 23.5 4.5 q16 0 25 -24 q1 -4 61.5 -112 q60.5 -108 75.5 -133 q15 -25 21 -37 q0 -13 -28.5 -13 q-28.5 0 -33.5 12.5 q-5 12.5 -12.5 29 q-7.5 16.5 -114.5 203.5 l-98 -173 q-15 -28 -32 -66 q-3 -8 -17 -8 Z" /><glyph glyph-name="underscore" unicode="_" d="M476 -160 l-450 0 q-17 0 -17 25.5 q0 25.5 17 25.5 l450 0 q16 0 16 -25.5 q0 -25.5 -16 -25.5 Z" /><glyph glyph-name="grave" unicode="`" d="M329 579 q-4 0 -22 11.5 q-18 11.5 -61.5 28 q-43.5 16.5 -88.5 35.5 q-4 2 -4 7 q0 5 9.5 16.5 q9.5 11.5 21.5 21 q12 9.5 18 9.5 q6 0 9 -1 q85 -63 108.5 -87 q23.5 -24 23.5 -29 q0 -12 -14 -12 Z" /><glyph glyph-name="a" unicode="a" d="M198 34 q40 0 81 32 q97 77 97 268 q0 27 1 41 q0 1 -10.5 1 q-10.5 0 -14.5 5 q-32 55 -84 55 q-52 0 -107 -73 q-55 -77 -55 -183 q0 -146 92 -146 ZM376 115 q-28 -61 -78 -96 q-50 -35 -110.5 -35 q-60.5 0 -100 49 q-39.5 49 -39.5 142 q0 123 71 216 q71 93 153 93 q35 0 65.5 -18.5 q30.5 -18.5 39.5 -42.5 l2 52 q0 9 16 9 q16 0 31 -7.5 q15 -7.5 15 -19.5 q-6 -49 -9 -146 q-3 -97 -3 -118 l2 -40 q1 -61 29 -120 l2 -6 q0 -10 -9.5 -24 q-9.5 -14 -24.5 -14 q-20 0 -35 50.5 q-15 50.5 -17 75.5 Z" /><glyph glyph-name="b" unicode="b" d="M231 33 q35 0 73 27.5 q38 27.5 64 82 q26 54.5 26 134.5 q0 80 -29.5 118.5 q-29.5 38.5 -68 38.5 q-38.5 0 -73.5 -22 q-74 -48 -98 -158 q-7 -35 -7 -146 l-1 -2 q0 -3 10 -3 q10 0 20 -17 q35 -53 84 -53 ZM228 -15 q-37 0 -69 20.5 q-32 20.5 -42 42.5 l-3 -21 q-2 -10 -13 -20 q-11 -10 -24.5 -10 q-13.5 0 -13.5 15 q0 15 1 42 q1 27 1 299 q0 272 -1.5 300.5 q-1.5 28.5 -1.5 45.5 q0 9 15.5 9 q15.5 0 30 -8 q14.5 -8 14.5 -19.5 q0 -11.5 -1 -37 q-1 -25.5 -1 -276.5 q59 117 175 117 q69 0 112 -53 q43 -53 43 -144.5 q0 -91.5 -29 -157.5 q-69 -144 -193 -144 Z" /><glyph glyph-name="c" unicode="c" d="M399 55.5 q-26 -29.5 -66 -50.5 q-40 -21 -91.5 -21 q-51.5 0 -91.5 24.5 q-40 24.5 -64 71.5 q-24 47 -24 110 q0 120 73 208 q76 86 160 86 q39 0 65 -13 q49 -27 60 -56 q7 -13 7 -20.5 q0 -7.5 -11 -20 q-11 -12.5 -21 -12.5 q-10 0 -13 6 q-32 66 -90 66 q-58 0 -115.5 -69.5 q-57.5 -69.5 -57.5 -165.5 q0 -58 19 -95 q37 -70 107 -70 q35 0 67 16 q65 37 107 88 q13 14 22.5 14 q9.5 0 9.5 -8 q0 -8 -13 -33.5 q-13 -25.5 -39 -55 Z" /><glyph glyph-name="d" unicode="d" d="M197 34 q62 0 122.5 74 q60.5 74 60.5 168 l0 97 q0 3 -9 3 q-9 0 -13 6 q-30 54 -84 54 q-68 0 -118.5 -78.5 q-50.5 -78.5 -50.5 -163.5 q0 -85 28 -122.5 q28 -37.5 64 -37.5 ZM197 -16 q-67 0 -108 53 q-41 53 -41 149 q0 118 68.5 208 q68.5 90 153 90 q84.5 0 110.5 -54 l-2 269 q0 9 15 9 q15 0 29.5 -8 q14.5 -8 14.5 -19.5 q0 -11.5 -1 -37 q-1 -25.5 -1 -458.5 q0 -105 31 -148 q1 -2 1 -9.5 q0 -7.5 -10 -22.5 q-10 -15 -23 -15 q-13 0 -25 22 q-26 51 -26 109 q-73 -137 -186 -137 Z" /><glyph glyph-name="e" unicode="e" d="M142 250 q113 0 193 26 q29 9 40 16 q19 13 19 53.5 q0 40.5 -26 65.5 q-26 25 -71 25 q-62 0 -111 -63.5 q-49 -63.5 -60 -122.5 l16 0 ZM234 -16 q-102 0 -147 100 q-22 47 -22 127 q-19 14 -19 29 q0 12 18 12 l7 1 q13 75 77 153 q64 78 150 78 q57 0 90 -23 q60 -40 60 -121 q0 -28 -6 -47 q-15 -56 -180 -83 q-59 -9 -142 -9 q0 -86 33.5 -126.5 q33.5 -40.5 76.5 -40.5 q116 0 188 89 q11 14 21.5 14 q10.5 0 10.5 -9 q0 -9 -13.5 -31.5 q-13.5 -22.5 -40 -48.5 q-26.5 -26 -68.5 -45 q-42 -19 -94 -19 Z" /><glyph glyph-name="f" unicode="f" d="M266 -1 q0 -5 -14.5 -5 q-14.5 0 -32 6.5 q-17.5 6.5 -17.5 17.5 q0 11 1.5 42 q1.5 31 1.5 370 q-116 -1 -126 -2 l-2 0 q-16 0 -16 37 q0 15 13 15 q30 -2 131 -2 l0 111 q0 73 66 102 q30 12 64.5 12 q34.5 0 59.5 -9.5 q25 -9.5 38 -23 q13 -13.5 13 -26.5 q0 -13 -9 -26 q-9 -13 -19 -13 q0 2 -4 6 q-27 41 -85 41 q-28 0 -47.5 -17.5 q-19.5 -17.5 -19.5 -49.5 l0 -107 q120 0 159 3 q19 0 19 -38 q0 -15 -12 -15 l-166 2 q0 -356 2 -385 q2 -29 2 -46 Z" /><glyph glyph-name="g" unicode="g" d="M207 59 q82 0 141 74 q43 54 44 137 q1 32 1 110 q-2 -5 -12 -5 q-10 0 -15 6 q-37 54 -95.5 54 q-58.5 0 -108 -72 q-49.5 -72 -49.5 -152.5 q0 -80.5 28 -116 q28 -35.5 66 -35.5 ZM230 -173 q-56 0 -88 16 q-62 33 -75 68 l-7 16 q0 11 11 24.5 q11 13.5 23 13.5 q12 0 16 -11 q25 -76 119 -76 q94 0 141 75 q23 39 23 98 l0 72 q-31 -57 -80 -85.5 q-49 -28.5 -99 -28.5 q-73 0 -115 52 q-42 52 -42 151.5 q0 99.5 63 184.5 q30 40 70 63.5 q40 23.5 82 23.5 q95 0 121 -63 l-1 54 q0 9 15.5 9 q15.5 0 29.5 -8 q14 -8 14 -18 q-3 -141 -3 -408 q0 -71 -30 -121 q-30 -50 -81 -76 q-51 -26 -107 -26 Z" /><glyph glyph-name="h" unicode="h" d="M439 -1 q0 -9 -15.5 -9 q-15.5 0 -29 7.5 q-13.5 7.5 -13.5 17.5 q0 48 1 69 l0 209 q0 41 -7 72 q-12 66 -73 66 q-29 0 -63 -15 q-69 -27 -100 -128 q-12 -61 -12 -126 l-2 -65 q0 -26 3 -98 q0 -9 -15 -9 q-15 0 -29.5 8 q-14.5 8 -14.5 19 l0 29 q1 46 1 303.5 q0 257.5 -2 314.5 l0 33 q0 9 15 9 q15 0 29.5 -8 q14.5 -8 14.5 -19 q-2 -134 -2 -308 q12 27 41 55 q68 57 136 57 q82 0 112 -64 q22 -48 22 -122 q0 -198 1.5 -236.5 q1.5 -38.5 1.5 -61.5 Z" /><glyph glyph-name="i" unicode="i" d="M103 -4 l-2 0 q-11 0 -19.5 15 q-8.5 15 -8.5 28 q0 13 13 13 q55 0 136 2 l0 368 q-31 -5 -106 -5 q-14 0 -22 17 q-8 17 -8 29.5 q0 12.5 16 12.5 q31 -5 65 -6 q50 1 77 11 q23 0 36 -29 q5 -10 5 -16 q0 -6 -3 -12.5 q-3 -6.5 -3 -368.5 q96 2 112 4 l8 0 q13 0 21 -16.5 q8 -16.5 8 -29.5 q0 -13 -11 -13 q-26 3 -76 3 l-209 -4 q-17 -3 -29 -3 ZM255 602 q-20 0 -33 18 q-13 18 -13 35 q0 38 37 41 q18 0 31.5 -18 q13.5 -18 13.5 -37 q0 -39 -36 -39 Z" /><glyph glyph-name="j" unicode="j" d="M357 602 q-20 0 -33.5 18 q-13.5 18 -13.5 35 q0 38 37 41 q18 0 32 -18 q14 -18 14 -37 q0 -39 -36 -39 ZM203 -173 q-49 0 -79 17 q-52 34 -63 69 l-5 14 q0 10 9.5 24 q9.5 14 24 14 q14.5 0 17.5 -12 q21 -75 95.5 -75 q74.5 0 111.5 74 q20 39 20 99 l0 371 q-32 -5 -151 -5 q-14 0 -22.5 17 q-8.5 17 -8.5 29.5 q0 12.5 16 12.5 q32 -5 110 -6 q51 1 78 11 q22 0 35 -29 q6 -10 6 -16 q0 -6 -3.5 -12.5 q-3.5 -6.5 -3.5 -373.5 q0 -138 -94 -196 q-44 -27 -93 -27 Z" /><glyph glyph-name="k" unicode="k" d="M460 17.5 q0 -6.5 -14.5 -18.5 q-14.5 -12 -28 -12 q-13.5 0 -59.5 49 q-122 147 -196 226 l-28 -20 q0 -136 3 -242 q0 -9 -15 -9 q-15 0 -29.5 8 q-14.5 8 -14.5 19 q2 52 2 316 q0 264 -3 363 q0 9 15.5 9 q15.5 0 29.5 -8 q14 -8 14 -19 q-2 -118 -2 -374 l172 133 q23 20 40 39 q5 6 19.5 6 q14.5 0 30.5 -8.5 q16 -8.5 16 -16.5 q0 -3 -4 -6 q-36 -26 -205 -158 q28 -29 63 -70.5 q35 -41.5 82 -94.5 q61 -77 106 -102 q6 -3 6 -9.5 Z" /><glyph glyph-name="l" unicode="l" d="M286 -13 q-51 0 -72 30 q-21 30 -21 93 l-1 542 q-44 -6 -69 -6 q-25 0 -36.5 -0.5 q-11.5 -0.5 -20 16.5 q-8.5 17 -8.5 30 q0 13 5 13 q38 -6 79.5 -6 q41.5 0 81.5 10 q15 0 28 -25 q6 -10 6 -16.5 q0 -6.5 -3.5 -13 q-3.5 -6.5 -3.5 -546.5 q0 -41 9 -54 q9 -13 36 -13 q48 0 112 42 q16 12 21.5 12 q5.5 0 5.5 -7 q0 -7 -11.5 -23 q-11.5 -16 -33.5 -34.5 q-22 -18.5 -51 -31 q-29 -12.5 -53 -12.5 Z" /><glyph glyph-name="m" unicode="m" d="M461 297 l2 -297 q0 -10 -15 -10 q-15 0 -30 8 q-15 8 -15 20 l2 64 q0 250 -3 282 q-8 69 -53 69 q-15 0 -30 -22 q-41 -62 -41 -186 l3 -225 q0 -10 -15.5 -10 q-15.5 0 -30 8 q-14.5 8 -14.5 20 q2 64 2 275 q0 140 -50 140 q-14 0 -29 -20 q-31 -50 -43 -117 q-5 -55 -5 -164 l3 -132 q0 -10 -15.5 -10 q-15.5 0 -30 8 q-14.5 8 -14.5 20 q2 54 2 202.5 q0 148.5 -3 250.5 q0 10 15.5 10 q15.5 0 29.5 -8 q14 -8 14 -20 q0 -37 -3 -37 l0 3 q2 10 26 38 q24 28 60.5 28 q36.5 0 58.5 -28 q22 -28 26 -56 q4 22 27 53 q23 31 64.5 31 q41.5 0 64.5 -28 q40 -51 40 -160 Z" /><glyph glyph-name="n" unicode="n" d="M435 298 l2 -299 q0 -9 -14.5 -9 q-14.5 0 -29.5 8 q-15 8 -15 19 q2 62 2 277 q0 41 -6 72 q-14 66 -74 66 q-29 0 -63 -15 q-69 -27 -99 -128 q-15 -69 -15 -146.5 q0 -77.5 1.5 -103 q1.5 -25.5 1.5 -40.5 q0 -9 -15 -9 q-15 0 -29.5 8 q-14.5 8 -14.5 19 q2 52 2 204 q0 152 -3 251 q0 9 15 9 q15 0 29.5 -8 q14.5 -8 14.5 -19 q0 -62 -1 -81 q12 26 42 54 q66 57 140 57 q129 0 129 -186 Z" /><glyph glyph-name="o" unicode="o" d="M237 35 q43 0 79 28 q82 66 82 182 q0 85 -33 137 q-33 52 -97.5 52 q-64.5 0 -116.5 -72 q-49 -75 -49 -154 q0 -166 135 -173 ZM399 68 q-59 -84 -156.5 -84 q-97.5 0 -147 60.5 q-49.5 60.5 -49.5 162.5 q0 45 13 88 q29 90 68 135 q18 22 30 22 q12 0 15 -7 q44 39 106 39 q79 0 127.5 -63.5 q48.5 -63.5 48.5 -167 q0 -103.5 -55 -185.5 Z" /><glyph glyph-name="p" unicode="p" d="M150 86 q35 -53 83.5 -53 q48.5 0 85.5 35 q77 71 77 215 q0 71 -27.5 111 q-27.5 40 -67.5 40 q-40 0 -74 -22 q-77 -50 -100 -159 q-4 -21 -4 -152 l3 1 q13 0 24 -16 ZM111 -171 q-15 0 -29.5 8 q-14.5 8 -14.5 19.5 q0 11.5 1 37.5 q1 26 1 267.5 q0 241.5 -3 310.5 q0 9 15 9 q15 0 30 -8 q15 -8 15 -19 l-2 -79 q9 21 37 49 q64 60 138 60 q74 0 114 -54.5 q40 -54.5 40 -159.5 q0 -105 -58.5 -195 q-58.5 -90 -152.5 -90 q-36 0 -71 18 q-35 18 -48 41 q0 -131 1.5 -160 q1.5 -29 1.5 -46 q0 -9 -15 -9 Z" /><glyph glyph-name="q" unicode="q" d="M197 34 q62 0 123.5 74 q61.5 74 61.5 166 l0 100 q0 2 -9 2 q-9 0 -12 6 q-32 54 -87 54 q-69 0 -119 -78 q-50 -78 -50 -163 q0 -85 28 -123 q28 -38 64 -38 ZM424 -175 q-15 0 -29.5 8 q-14.5 8 -14.5 19.5 q0 11.5 1 37.5 q1 26 1 224 q-65 -130 -185 -130 q-67 0 -107.5 54 q-40.5 54 -40.5 148 q0 118 66 208 q66 90 158 90 q73 0 107 -55 l0 46 q0 9 15 9 q15 0 29 -8 q14 -8 14 -19.5 q0 -11.5 -1 -37 q-1 -25.5 -1 -479.5 l3 -106 q0 -9 -15 -9 Z" /><glyph glyph-name="r" unicode="r" d="M161 106 l3 -106 q0 -9 -14 -9 q-14 0 -29.5 7.5 q-15.5 7.5 -15.5 19.5 l2 63 q0 297 -1.5 335 q-1.5 38 -1.5 58 q0 9 14.5 9 q14.5 0 29.5 -7.5 q15 -7.5 15 -19.5 l-1 -65 q21 39 63 66 q42 27 95 27 q27 0 53.5 -9.5 q26.5 -9.5 43 -23 q16.5 -13.5 16.5 -27 q0 -13.5 -9 -28.5 q-9 -15 -17.5 -15 q-8.5 0 -15.5 10 q-11 20 -34.5 29 q-23.5 9 -39.5 9 q-43 0 -83 -29 q-60 -43 -69 -134 q-4 -46 -4 -160 Z" /><glyph glyph-name="s" unicode="s" d="M256 -16 q-53 0 -89 14 q-70 32 -86 68 q-9 16 -9 25 q0 9 10.5 23 q10.5 14 20.5 14 q10 0 13 -8 q24 -68 84 -80 q27 -6 54 -6 q54 0 86.5 28 q32.5 28 32.5 64.5 q0 36.5 -20 60 q-20 23.5 -69 35.5 l-90 24 q-100 24 -100 106 q0 41 22 70 q54 62 143 62 q53 0 91 -18 q58 -28 58 -59 q0 -12 -10 -22.5 q-10 -10.5 -17.5 -10.5 q-7.5 0 -9 3 q-1.5 3 -3.5 5 q-2 2 -4 5 q-27 50 -105 50 q-50 0 -81 -23.5 q-31 -23.5 -31 -59.5 q0 -45 69 -62 l86 -23 q126 -30 126 -141 q0 -38 -20.5 -71 q-20.5 -33 -59.5 -53 q-39 -20 -92 -20 Z" /><glyph glyph-name="t" unicode="t" d="M277 -13 q-51 0 -74.5 29.5 q-23.5 29.5 -23.5 93.5 l0 320 q-83 0 -100 -3 q-18 0 -18 38 q0 15 13 15 q31 -2 105 -2 l0 81 q-2 56 -2 76 q0 5 11 5 q51 0 51 -23 q-2 -54 -3 -139 q146 0 185 3 q19 0 19 -38 q0 -15 -12 -15 l-192 2 l0 -322 q0 -40 11 -53.5 q11 -13.5 51.5 -13.5 q40.5 0 113.5 43 q17 11 22 11 q2 0 2 -6 q0 -22 -54 -62 q-54 -40 -105 -40 Z" /><glyph glyph-name="u" unicode="u" d="M204 -16 q-53 0 -83 29 q-53 49 -53 158 q0 197 -3 303 q0 9 15.5 9 q15.5 0 30 -8 q14.5 -8 14.5 -19 q-2 -116 -2 -281 q0 -60 20.5 -100.5 q20.5 -40.5 61 -40.5 q40.5 0 78.5 35 q87 80 93 252 q2 77 2 154 q0 9 15.5 9 q15.5 0 30 -7.5 q14.5 -7.5 14.5 -19.5 q-11 -72 -11 -214.5 q0 -142.5 34 -209.5 l2 -6 q0 -9 -9.5 -23.5 q-9.5 -14.5 -24.5 -14.5 q-23 0 -36 55.5 q-13 55.5 -13 74.5 q-60 -135 -176 -135 Z" /><glyph glyph-name="v" unicode="v" d="M254 -15 q-11 0 -21 7 q-18 10 -24 28 q-130 387 -141.5 414 q-11.5 27 -11.5 30 q0 16 30 16 q30 0 35 -15 q7 -25 123 -390 q136 365 145 399 q3 10 18 10 q15 0 29.5 -8 q14.5 -8 14.5 -17 q-29 -64 -96.5 -242.5 q-67.5 -178.5 -75 -205 q-7.5 -26.5 -25.5 -26.5 Z" /><glyph glyph-name="w" unicode="w" d="M360 -15 q-12 0 -24 9 q-23 13 -26 33 l-64 341 l-68 -366 q-5 -17 -19 -17 q-14 0 -27 8 q-23 12 -27 32 q-68 406 -76 437 q0 18 25 18 q12 0 23.5 -5 q11.5 -5 12.5 -12 q5 -48 55 -381 q66 364 66.5 375.5 q0.5 11.5 18 11.5 q17.5 0 33.5 -7 q16 -7 18 -16 l68 -366 l58 325 q6 37 8 70 q0 11 15.5 11 q15.5 0 29.5 -8 q14 -8 14 -21 l-5 -20 l-83 -423 q-4 -17 -9 -23 q-5 -6 -17 -6 Z" /><glyph glyph-name="x" unicode="x" d="M98 -10 q-16 0 -30 6 q-14 6 -14 12 q0 6 32 42 q12 14 134 195 l-101 149 q-19 29 -47 59 l-3 4 q0 7 16 14 q16 7 30.5 7 q14.5 0 17.5 -7 q10 -20 28 -49 l89 -132 l93 136 q18 29 28 49 q4 7 18 7 q14 0 29.5 -7 q15.5 -7 15.5 -14 l-2 -4 q-29 -30 -48 -59 l-103 -153 l105 -155 q29 -40 44.5 -57.5 q15.5 -17.5 15.5 -21.5 q0 -7 -13.5 -13 q-13.5 -6 -29.5 -6 q-16 0 -23 11 q-12 22 -130 196 q-120 -180 -128 -194.5 q-8 -14.5 -24 -14.5 Z" /><glyph glyph-name="y" unicode="y" d="M145 -162 q-31 0 -52.5 4.5 q-21.5 4.5 -43.5 23.5 q-5 3 -5 13 q0 10 8.5 25 q8.5 15 19.5 15 q11 0 16 -8 q17 -20 50 -20 q33 0 57 58 l40 94 l-135 336 q0 0 -39 86 q0 15 30.5 15 q30.5 0 36.5 -15 q12 -35 136 -351 l116 267 q20 44 33 93 q4 10 17 10 q13 0 26 -11 q13 -11 13 -20.5 q0 -9.5 -3.5 -17 q-3.5 -7.5 -14 -28.5 q-10.5 -21 -210.5 -487 q-35 -82 -96 -82 Z" /><glyph glyph-name="z" unicode="z" d="M127 47 q67 5 216 5 l15 0 l44 1 q12 0 20 -16 q8 -16 8 -29 q0 -13 -13 -13 q-36 5 -72 6 l-121 0 q-129 0 -138 -9 q-27 0 -27 41 l2 15 q2 11 12 20 q10 9 16 19 q127 190 249 336 q-182 -14 -204 -18 q-18 0 -29.5 18.5 q-11.5 18.5 -11.5 29 q0 10.5 11 10.5 q24 -2 52.5 -2 q28.5 0 106.5 6 q78 6 86.5 9 q8.5 3 22 3 q13.5 0 27 -19.5 q13.5 -19.5 13.5 -28.5 q0 -9 -9 -16 q-22 -17 -109.5 -133 q-87.5 -116 -166.5 -235 Z" /><glyph glyph-name="braceleft" unicode="{" d="M386 -157 q-4 0 -29.5 6.5 q-25.5 6.5 -56.5 21.5 q-77 41 -77 125 q0 32 9 76 q9 44 9 91.5 q0 47.5 -8 70.5 q-14 51 -100 59 q-12 2 -21 12 q-9 10 -9 23 q0 13 13 13 l13 0 q111 0 111 131 q0 41 -5 111 l-1 10 l-1 36 q0 40 23 68 q49 55 103 72 q23 8 26 8 q11 0 11 -11.5 q0 -11.5 -10 -17.5 q-100 -48 -100 -121 l1 -29 q6 -30 6 -93 q0 -63 -7 -94 q-11 -64 -83 -100 q45 -9 67.5 -42.5 q22.5 -33.5 22.5 -75.5 q0 -79 -9 -130.5 q-9 -51.5 -9 -66.5 q0 -42 29 -72 q29 -30 81 -54 q11 -7 11 -17 q0 -10 -10 -10 Z" /><glyph glyph-name="bar" unicode="|" d="M283 -33 q0 -21 1 -41 l0 -30 q0 -7 -13.5 -7.5 q-13.5 -0.5 -27.5 6 q-14 6.5 -14 17.5 l1 805 l-2 54 q0 9 14 9 q14 0 27.5 -6 q13.5 -6 13.5 -17 l-1 -39 l1 -751 Z" /><glyph glyph-name="braceright" unicode="}" d="M259 151 l8 -157 q0 -40 -22 -68 q-51 -55 -105 -71 q-23 -9 -25 -9 q-12 0 -12 13 q0 10 10 16 q100 49 100 121 l-2 65 q-5 53 -5 87.5 q0 34.5 7 64.5 q11 64 83 99 q-45 9 -67.5 43 q-22.5 34 -22.5 75 q0 80 9 131 q9 51 9 66 q0 43 -29 72.5 q-29 29.5 -81 53.5 q-11 7 -11 17 q0 10 8 10 q33 0 88 -28 q77 -39 77 -125 q0 -31 -9 -75 q-9 -44 -9 -91.5 q0 -47.5 8 -70.5 q15 -52 100 -60 q12 -1 21 -11 q9 -10 9 -23.5 q0 -13.5 -13 -13.5 l-13 0 q-111 0 -111 -131 Z" /><glyph glyph-name="asciitilde" unicode="~&#x223c;" d="M60 181 q-17 0 -17 17 q0 2 6 17 q36 99 121 99 q52 0 92 -40 q17 -16 33 -27.5 q16 -11.5 40 -11.5 q56 0 89 68 q5 14 17 14 q17 0 17 -17 q0 -3 -6 -20 q-37 -96 -116 -96 q-60 0 -106.5 39.5 q-46.5 39.5 -68 39.5 q-21.5 0 -45.5 -17.5 q-24 -17.5 -39 -50.5 q-5 -14 -17 -14 Z" /><glyph glyph-name="nonbreakingspace" unicode=" " d="" /><glyph glyph-name="section" unicode="§" d="M347 262 q51 31 51 106 q0 58 -28 86 q-28 28 -91 43 q-29 8 -33 8 q-91 0 -119 -48 q-14 -24 -14 -52 q0 -24 7 -42 q8 -19 28 -34 q19 -14 59 -24 l77 -21 l0 0 q35 -7 57 -22 l3 -2 l3 2 ZM245 -74 q-64 0 -111.5 25.5 q-47.5 25.5 -84.5 77.5 q-4 6 -4 13 q0 15 9 31 q8 14 18 14 q6 0 10 -5 q9 -22 50 -61 q22 -21 50.5 -31.5 q28.5 -10.5 62.5 -10.5 q64 0 100.5 33.5 q36.5 33.5 36.5 88.5 q0 56 -29 86 q-28 30 -89 46 l-79 22 q-70 21 -98 59.5 q-28 38.5 -28 88.5 q0 42 21.5 75.5 q21.5 33.5 64.5 52.5 l9 5 l-9 4 q-41 22 -57 52 q-15 30 -15 69 q0 37 21 70.5 q21 33.5 60.5 55.5 q39.5 22 92.5 22 q105 0 166 -66 q7 -8 7 -20 q0 -14 -7 -29 q-6 -13 -15 -13 q-4 0 -9 6 q-16 28 -72 58 l0 1 q-27 11 -71 11 q-58 0 -88.5 -29 q-30.5 -29 -30.5 -65 q0 -24 7 -41 q8 -17 28 -30 q20 -12 60 -22 q39 -11 78 -22 q75 -19 114 -64 q38 -44 38 -115 q0 -81 -61 -135 l-4 -4 l3 -3 q47 -50 47 -125 q0 -102 -88 -153 q-43 -23 -104 -23 Z" /><glyph glyph-name="copyright" unicode="©" d="M413.5 175 q-67.5 -68 -164 -68 q-96.5 0 -162.5 69 q-69 67 -69 163 q0 96 67.5 163.5 q67.5 67.5 164 67.5 q96.5 0 164 -67.5 q67.5 -67.5 67.5 -164.5 q0 -95 -67.5 -163 ZM51 338.5 q0 -82.5 58.5 -141 q58.5 -58.5 140.5 -58.5 q82 0 140.5 58.5 q58.5 58.5 58.5 141 q0 82.5 -58.5 141 q-58.5 58.5 -140.5 58.5 q-82 0 -140.5 -58.5 q-58.5 -58.5 -58.5 -141 ZM357 255 q-43 -61 -116 -61 q-72 0 -106 58 q-16 27 -16 66 q0 69 49 120 q49 51 104 51 q32 0 50.5 -10.5 q18.5 -10.5 26.5 -22 q8 -11.5 8 -18.5 q0 -7 -8.5 -16.5 q-8.5 -9.5 -14.5 -9.5 q-5 0 -10 13 q-14 30 -46.5 30 q-32.5 0 -58 -17.5 q-25.5 -17.5 -42.5 -47.5 q-17 -30 -17 -65.5 q0 -35.5 11.5 -56.5 q11.5 -21 29.5 -30.5 q18 -9.5 33 -9.5 q66 0 110 39 q7 5 12 5 q5 0 5 -5 q0 -5 -4 -12 ZM357 255 q0 0 0 -1 l0 1 ZM344 267 l0 0 Z" /><glyph glyph-name="registered" unicode="®" d="M413.5 175 q-67.5 -68 -164 -68 q-96.5 0 -162.5 69 q-69 67 -69 163 q0 96 67.5 163.5 q67.5 67.5 164 67.5 q96.5 0 164 -67.5 q67.5 -67.5 67.5 -164.5 q0 -95 -67.5 -163 ZM165 447 q-14 12 -14 22.5 q0 10.5 2 11.5 q7 0 18 2 l27 5 q21 5 59 5 q38 0 58 -10 q39 -20 39 -62 q0 -46 -52 -72 q-23 -11 -45 -12 l-11 0 l7 -8 q14 -15 37 -43 q53 -64 75 -72 q13 -4 22 -17 l-13 -2 q-4 -1 -19.5 -1 q-15.5 0 -35.5 14 q-38 34 -69.5 74.5 q-31.5 40.5 -40.5 44.5 l-7 2 l0 -7 q0 -87 1 -100 l0 -22 q0 -4 -11 -4 q-28 0 -28 12 l1 17 l0 0 l0 222 ZM391 198 q58 59 58 141 q0 82 -58.5 140.5 q-58.5 58.5 -140.5 58.5 q-82 0 -140.5 -58.5 q-58.5 -58.5 -58.5 -141 q0 -82.5 58.5 -141 q58.5 -58.5 136.5 -58.5 q78 0 132 47 l15 13 l-2 -1 ZM206 366 q2 -1 4 -1 q2 0 3 -1 l17 0 q43 0 65 17.5 q22 17.5 22 38.5 q0 39 -59 39 q-30 0 -56 -7 l0 -77 q-4 -7 4 -9 Z" /><glyph glyph-name="degree" unicode="°" d="M94 706.5 q0 -28.5 20 -48.5 q20 -20 48.5 -20 q28.5 0 48 20 q19.5 20 19.5 48.5 q0 28.5 -19.5 48 q-19.5 19.5 -48 19.5 q-28.5 0 -48.5 -19.5 q-20 -19.5 -20 -48 ZM162 601 q-44 0 -74.5 30.5 q-30.5 30.5 -30.5 74.5 q0 44 30.5 74.5 q30.5 30.5 74.5 30.5 q44 0 74.5 -30.5 q30.5 -30.5 30.5 -74.5 q0 -44 -30.5 -74.5 q-30.5 -30.5 -74.5 -30.5 Z" /><glyph glyph-name="periodcentered" unicode="·&#x2219;" d="M258 285 q-22 0 -42 15 q-44 38 -44 76 q0 78 69 78 q20 0 40 -15 q45 -36 45 -83 q0 -66 -68 -71 Z" /><glyph glyph-name="Oslash" unicode="Ø" d="M118 167 l236 429 q-35 65 -91 65 q-56 0 -111 -83.5 q-55 -83.5 -55 -238.5 q0 -97 21 -172 ZM241 38 q80 0 121 102 q37 104 37 218 q0 114 -21 179 l-238 -429 q39 -70 101 -70 ZM61 -24 q-11 0 -20.5 13.5 q-9.5 13.5 -9.5 23 q0 9.5 6 18.5 q22 28 45 71 q-42 98 -42 235 q0 60 10 116 q20 118 54 176 q15 28 28.5 28 q13.5 0 17.5 -4 q44 58 119.5 58 q75.5 0 115.5 -60 q13 21 22.5 41.5 q9.5 20.5 16.5 35 q7 14.5 17.5 14.5 q10.5 0 21 -16 q10.5 -16 10.5 -26 l-2 -6 q-37 -58 -57 -93 q42 -93 42 -246.5 q0 -153.5 -51 -256.5 q-56 -114 -161 -114 q-85 0 -134 69 q-7 -10 -36 -69 q-2 -8 -13 -8 Z" /><glyph glyph-name="aacute" unicode="á" d="M198 34 q40 0 81 32 q97 77 97 268 q0 27 1 41 q0 1 -10.5 1 q-10.5 0 -14.5 5 q-32 55 -84 55 q-52 0 -107 -73 q-55 -77 -55 -183 q0 -146 92 -146 ZM179 574 q-16 0 -16 15 q0 5 5 11 q54 53 129 108 l8 2 q22 0 40 -23 q6 -10 6 -16.5 q0 -6.5 -7 -10.5 q-92 -42 -153 -82 q-6 -4 -12 -4 ZM376 115 q-28 -61 -78 -96 q-50 -35 -110.5 -35 q-60.5 0 -100 49 q-39.5 49 -39.5 142 q0 123 71 216 q71 93 153 93 q35 0 65.5 -18.5 q30.5 -18.5 39.5 -42.5 l2 52 q0 9 16 9 q16 0 31 -7.5 q15 -7.5 15 -19.5 q-6 -49 -9 -146 q-3 -97 -3 -118 l2 -40 q1 -61 29 -120 l2 -6 q0 -10 -9.5 -24 q-9.5 -14 -24.5 -14 q-20 0 -35 50.5 q-15 50.5 -17 75.5 Z" /><glyph glyph-name="igrave" unicode="ì" d="M103 -4 l-2 0 q-11 0 -19.5 15 q-8.5 15 -8.5 28 q0 13 13 13 q55 0 136 2 l0 368 q-31 -5 -106 -5 q-14 0 -22 17 q-8 17 -8 29.5 q0 12.5 16 12.5 q31 -5 65 -6 q50 1 77 11 q23 0 36 -29 q5 -10 5 -16 q0 -6 -3 -12.5 q-3 -6.5 -3 -368.5 q96 2 112 4 l8 0 q13 0 21 -16.5 q8 -16.5 8 -29.5 q0 -13 -11 -13 q-26 3 -76 3 l-209 -4 q-17 -3 -29 -3 ZM328 574 q-5 0 -12 4 q-61 40 -153 82 q-7 4 -7 10.5 q0 6.5 7 15.5 q17 24 39 24 l8 -2 q75 -55 129 -108 q5 -6 5 -11 q0 -15 -16 -15 Z" /><glyph glyph-name="alpha" unicode="&#x3b1;" d="M422 -8 q-32 0 -46 117 l-2 17 l-8 -16 q-27 -58 -74 -90.5 q-47 -32.5 -97 -32.5 q-66 0 -104.5 48.5 q-38.5 48.5 -38.5 139.5 q0 125 69 215.5 q69 90.5 148 90.5 q79 0 112 -60 l7 -15 l2 17 q2 22 3 39 q1 17 11 17 q14 0 29.5 -12 q15.5 -12 18.5 -25 q-26 -114 -26 -233 q0 -119 32 -177 l2 -4 q-1 -8 -11.5 -22 q-10.5 -14 -26.5 -14 ZM377 296 q0 8 1 15 q-11 38 -28 67 q-29 55 -81 55 q-52 0 -105.5 -71.5 q-53.5 -71.5 -53.5 -181.5 q0 -143 84 -143 q44 0 83 31 q95 77 100 228 Z" /><glyph glyph-name="gamma" unicode="&#x3b3;" d="M59 462 q2 14 43 14 q18 0 24 -13 q102 -175 120 -319 q1 -5 1 -10 l0 -17 l9 14 q110 166 127 343 q4 7 18.5 7 q14.5 0 28.5 -8 q14 -8 13 -14 q-32 -244 -188 -413 q3 -58 2.5 -112 q-0.5 -54 1.5 -108 q-2 -2 -12.5 -2 q-10.5 0 -30 8.5 q-19.5 8.5 -20.5 17.5 q0 1 1 26 q1 25 2 61 q7 285 -132 506 l-8 19 Z" /><glyph glyph-name="delta" unicode="&#x3b4;" d="M401 707 q10 0 21 -18 q11 -18 12 -27 q1 -9 -0.5 -10.5 q-1.5 -1.5 -22 -1.5 q-20.5 0 -77.5 -2 l-175 -6 l19 -9 q163 -76 231 -223 q32 -69 40.5 -150.5 q8.5 -81.5 -15 -142.5 q-23.5 -61 -69.5 -95.5 q-46 -34.5 -105 -34.5 q-87 0 -139 58 q-52 58 -62.5 154 q-10.5 96 47.5 175.5 q58 79.5 160 79.5 q33 0 58 -13 l22 -13 l-16 20 q-50 61 -111 109 q-61 48 -114 59 q-14 2 -16.5 21 q-2.5 19 10 34 q12.5 15 27.5 16.5 q15 1.5 29 1 q14 -0.5 34 0.5 l135 7 q27 2 75 11 l2 0 ZM365 389 q-7 -5 -13 -5 q-6 0 -27.5 10.5 q-21.5 10.5 -54.5 10.5 q-56 0 -92 -32 q-74 -67 -61 -190 q6 -59 41 -100 q35 -41 97 -41 q40 0 73.5 24 q33.5 24 52.5 72.5 q19 48.5 13 118.5 l-2 19 q-7 66 -27 113 Z" /><glyph glyph-name="epsilon" unicode="&#x3b5;" d="M274 430 q-62 0 -89.5 -27 q-27.5 -27 -26 -57.5 q1.5 -30.5 20.5 -40.5 q19 -10 57 -10 q38 0 76 12 l3 0 q12 0 22.5 -17 q10.5 -17 11.5 -30 q1 -13 -8 -14 q-92 -9 -129.5 -23 q-37.5 -14 -58.5 -42 q-21 -28 -19 -63 q2 -35 34 -56.5 q32 -21.5 78 -21.5 q111 0 174 63 q12 13 21 13 q17 0 3.5 -25.5 q-13.5 -25.5 -37.5 -47.5 q-61 -56 -151.5 -56 q-90.5 0 -136 37 q-45.5 37 -49.5 95 q-5 92 107 134 l17 7 l-18 3 q-39 7 -59 30 q-20 23 -22 54 q-2 31 17 61 q19 30 58.5 51.5 q39.5 21.5 86.5 21.5 q47 0 86 -11.5 q39 -11.5 58 -26.5 q19 -15 20 -22 q1 -17 -11 -28.5 q-12 -11.5 -17.5 -11.5 q-5.5 0 -9.5 3 l-9 10 q-38 36 -100 36 Z" /><glyph glyph-name="sigma" unicode="&#x3c3;" d="M462 423 q-48 2 -111 2 l-30 0 l12 -9 q36 -26 61.5 -70.5 q25.5 -44.5 30 -108.5 q4.5 -64 -15 -122 q-19.5 -58 -64.5 -93 q-45 -35 -107 -35 q-114 0 -166 103 q-23 46 -27 99 q-8 111 58 199.5 q66 88.5 178 88.5 l62 0 q57 0 92 3 l1 0 q14 0 24 -19 q21 -38 2 -38 ZM294 425 l-12 0 q-83 0 -133.5 -72.5 q-50.5 -72.5 -45 -152 q5.5 -79.5 38.5 -120 q33 -40.5 82.5 -40.5 q49.5 0 82.5 26 q67 54 59 167 q-8 113 -63 169 q-8 9 -9 15 l0 8 Z" /><glyph glyph-name="u2003" unicode="&#x2003;" d="" /><glyph glyph-name="u200B" unicode="&#x200b;" d="" /><glyph glyph-name="figuredash" unicode="&#x2012;&#x2013;" d="M500 285 q15 0 15 -25.5 q0 -25.5 -15 -25.5 l-500 0 q-7 0 -11 8 q-4 8 -4 17.5 q0 9.5 4 17.5 q4 8 11 8 l500 0 Z" /><glyph glyph-name="emdash" unicode="&#x2014;" d="M980 403 q14 0 14 -23 q0 -23 -14 -23 l-960 0 q-14 0 -14 23 q0 23 14 23 l960 0 Z" /><glyph glyph-name="quoteleft" unicode="&#x2018;" d="M297 685 q3 -31 17 -49 q14 -18 33 -18 q41 0 41 44 q0 15 -8 27.5 q-8 12.5 -13 16.5 q-5 4 -16 9 q4 19 21 40 q17 21 37 34 q5 3 5 10 q0 13 -13 13 q-23 0 -61 -40 q-43 -45 -43 -87 Z" /><glyph glyph-name="quoteright" unicode="&#x2019;" d="M203 745 q-3 31 -16.5 49 q-13.5 18 -33.5 18 q-41 0 -41 -44 q0 -25 24 -46 q2 -2 13 -7 q-4 -19 -21 -39.5 q-17 -20.5 -29.5 -28.5 q-12.5 -8 -12.5 -14 q0 -15 13 -15 q23 0 61 40 q43 45 43 87 Z" /><glyph glyph-name="quotedblleft" unicode="&#x201c;" d="M311 685 q3 -31 17 -49 q14 -18 33 -18 q41 0 41 44 q0 15 -8 27.5 q-8 12.5 -13 16.5 q-5 4 -16 9 q4 19 21 40 q17 21 37 34 q5 3 5 10 q0 13 -13 13 q-23 0 -61 -40 q-43 -45 -43 -87 ZM181 685 q3 -31 17 -49 q14 -18 33 -18 q41 0 41 44 q0 15 -8 27.5 q-8 12.5 -13 16.5 q-5 4 -16 9 q4 19 21 40 q17 21 37 34 q5 3 5 10 q0 13 -13 13 q-23 0 -61 -40 q-43 -45 -43 -87 Z" /><glyph glyph-name="quotedblright" unicode="&#x201d;" d="M319 745 q-3 31 -16.5 49 q-13.5 18 -33.5 18 q-41 0 -41 -44 q0 -25 24 -46 q2 -2 13 -7 q-4 -19 -21 -39.5 q-17 -20.5 -29.5 -28.5 q-12.5 -8 -12.5 -14 q0 -15 13 -15 q23 0 61 40 q43 45 43 87 ZM189 745 q-3 31 -16.5 49 q-13.5 18 -33.5 18 q-41 0 -41 -44 q0 -25 24 -46 q2 -2 13 -7 q-4 -19 -21 -39.5 q-17 -20.5 -29.5 -28.5 q-12.5 -8 -12.5 -14 q0 -15 13 -15 q23 0 61 40 q43 45 43 87 Z" /><glyph glyph-name="ellipsis" unicode="&#x2026;" d="M839 330 q-20 0 -35.5 18.5 q-15.5 18.5 -15.5 38 q0 19.5 10.5 31.5 q10.5 12 29.5 12 q19 0 35 -19 q16 -19 16 -39 q0 -42 -40 -42 ZM505 330 q-20 0 -35.5 18.5 q-15.5 18.5 -15.5 38 q0 19.5 10.5 31.5 q10.5 12 29.5 12 q19 0 35 -19 q16 -19 16 -39 q0 -42 -40 -42 ZM173 330 q-20 0 -35.5 18.5 q-15.5 18.5 -15.5 38 q0 19.5 10.5 31.5 q10.5 12 29.5 12 q19 0 35 -19 q16 -19 16 -39 q0 -42 -40 -42 Z" /><glyph glyph-name="exclamdbl" unicode="&#x203c;" d="M380 170 q-12 0 -26 6 q-11 4 -11 12 q2 20 2 39 q-6 413 -8 433 l-3 35 q4 12 21 12 q17 0 36 -9 q18 -7 18 -17 q-1 -11 -3 -35.5 q-2 -24.5 -3 -36.5 l0 0 l-12 -386 l0 -51 q-2 -2 -11 -2 ZM128 -4 q-19 0 -33 17 q-15 18 -15 38 q0 19 12 32 q11 13 36 13 q17 0 32 -19 q15 -19 15 -40 q0 -18 -11 -29.5 q-11 -11.5 -36 -11.5 ZM140 170 q-12 0 -26 6 q-11 4 -11 12 q2 20 2 39 q-6 413 -8 433 l-3 35 q4 12 21 12 q17 0 36 -9 q18 -7 18 -17 q-1 -11 -3 -35.5 q-2 -24.5 -3 -36.5 l0 0 l-12 -386 l0 -51 q-2 -2 -11 -2 ZM368 -4 q-19 0 -33 17 q-15 18 -15 38 q0 19 12 32 q11 13 36 13 q17 0 32 -19 q15 -19 15 -40 q0 -18 -11 -29.5 q-11 -11.5 -36 -11.5 Z" /><glyph glyph-name="u2049" unicode="&#x2049;" d="M135 170 q-12 0 -26 6 q-11 4 -11 12 q2 20 2 39 q-6 413 -8 433 l-3 35 q4 12 21 12 q17 0 36 -9 q18 -7 18 -17 q-1 -11 -3 -35.5 q-2 -24.5 -3 -36.5 l0 0 l-12 -386 l0 -51 q-2 -2 -11 -2 ZM373 -4 q-19 0 -33 17 q-15 18 -15 38 q0 19 12 32 q11 13 36 13 q17 0 32 -19 q15 -19 15 -40 q0 -18 -11 -29.5 q-11 -11.5 -36 -11.5 ZM376 173 q-28 0 -30 13 q-3 16 -3 38 q0 106 34 162 l0 1 l7 13 q24 38 39 90 q9 32 9 78 q0 41 -10 65 q-12 26 -22 26 q-58 0 -80 -136 q-1 -12 -18 -12 q-18 0 -25 13 q-7 14 -7 24 l0 4 q21 80 51 118 q30 38 79 38 q44 0 64 -36 q21 -38 21 -98 q0 -86 -28 -143 l-1 0 q-11 -27 -25 -49 q-36 -63 -36 -128 q0 -40 4 -70 q-1 -2 -5 -6 q-5 -5 -18 -5 ZM384 400 l0 -1 q0 0 0 1 ZM123 -4 q-19 0 -33 17 q-15 18 -15 38 q0 19 12 32 q11 13 36 13 q17 0 32 -19 q15 -19 15 -40 q0 -18 -11 -29.5 q-11 -11.5 -36 -11.5 Z" /><glyph glyph-name="u2103" unicode="&#x2103;" d="M323 -11 q-49 0 -83 32 q-35 33 -53 99 q-19 68 -19 173 q0 172 50 294 q48 120 129 120 q80 0 128 -93 l0 -4 q0 -10 -8 -28 q-6 -16 -23 -16 q-15 0 -18 10 q-29 76 -82 76 q-58 0 -98 -172 q-17 -82 -17 -185 q0 -252 97 -252 q65 0 118 124 q7 16 24 16 q17 0 17 -14 q0 -3 -5 -21 q-12 -42 -47 -95 q-45 -64 -110 -64 ZM165.5 749 q27.5 -27 27.5 -65.5 q0 -38.5 -27.5 -66 q-27.5 -27.5 -66 -27.5 q-38.5 0 -66 27.5 q-27.5 27.5 -27.5 66 q0 38.5 27.5 65.5 q27.5 27 66 27 q38.5 0 66 -27 ZM141.5 641.5 q17.5 17.5 17.5 42 q0 24.5 -17.5 41.5 q-17.5 17 -42 17 q-24.5 0 -42 -17 q-17.5 -17 -17.5 -41.5 q0 -24.5 17.5 -42 q17.5 -17.5 42 -17.5 q24.5 0 42 17.5 Z" /><glyph glyph-name="trademark" unicode="&#x2122;" d="M808 725 l-2 -21 l0 -4 q19 -183 22.5 -225 q3.5 -42 10.5 -87 l0 -2 q0 -7 -10 -12 q-10 -5 -21 -5 q-24 0 -24 17 q-1 62 -11 154.5 q-10 92.5 -14 118.5 q-81 -188 -85 -218 q-1 -7 -12 -13 q-11 -6 -26.5 -6 q-15.5 0 -17.5 10 q-6 23 -12 32 q-34 86 -67 181 q-21 -243 -21 -254 q0 -19 -27 -19 q-10 0 -18.5 4 q-8.5 4 -8.5 11 l0 2 q11 63 30 309 l0 5 l-1 18 l0 4 q2 8 16 16 q14 8 25.5 8 q11.5 0 16.5 -8 q5 -8 9 -18 q38 -115 83 -233 q86 227 103 254 q4 8 13.5 8 q9.5 0 29 -8 q19.5 -8 19.5 -19 ZM267 392 l1 56 l0 247 l-61 -3 l-42 -5 l-1 0 q-9 0 -15 12.5 q-6 12.5 -6 26 q0 13.5 10 13.5 l1 0 q7 -1 16 -1 l34 0 l176 9 q11 1 21.5 2.5 q10.5 1.5 19.5 2.5 l2 0 q10 0 16 -11.5 q6 -11.5 6 -25.5 q0 -14 -12 -14 q-6 1 -15 1 l-19 0 q-9 0 -16 -1 l-64 -3 l0 -250 l2 -66 q0 -10 -16 -10 q-38 0 -38 20 Z" /><glyph glyph-name="u2160" unicode="&#x2160;" d="M107 -1 q-13 0 -21 16 q-8 17 -8 30 q0 13 10 13 l40 -1 l83 1 l5 0 l0 5 l1 44 l1 522 l0 5 l-5 0 q-55 -3 -91 -9 q-13 0 -21 16 q-8 17 -8 30 q0 13 10 13 q7 0 25 -1 q19 -1 39 -1 q97 0 214 13 q10 0 17 -16 q8 -17 8 -30 q0 -13 -9 -13 q-57 3 -72 3 l0 0 l-43 -2 l-5 0 l0 -5 q1 -480 2 -568 l0 -5 l5 0 q99 0 113 1 q12 0 19 -16 q8 -19 8 -32 q0 -12 -8 -12 q-35 6 -112 6 q-95 0 -151 -2 l-1 0 l-45 -5 ZM397 636 l0 0 Z" /><glyph glyph-name="u2161" unicode="&#x2161;" d="M367 634 q1 -484 2 -570 l0 -5 l5 0 q54 0 63 1 q12 0 19 -16 q8 -19 8 -32 q0 -12 -8 -12 q-35 6 -112 6 q-175 0 -231 -2 l-1 0 l-45 -5 q-13 0 -21 16 q-8 17 -8 30 q0 13 10 13 l40 -1 l33 0 l5 0 l0 5 l1 45 l1 517 l0 5 l-5 0 q-30 -2 -41 -4 q-13 0 -21 16 q-8 17 -8 30 q0 13 10 13 q7 0 25 -1 q19 -1 39 -1 q177 0 294 13 q10 0 17 -16 q8 -17 8 -30 q0 -13 -9 -13 q-46 2 -65 3 l-5 0 l0 -5 ZM306 63 l1 44 l1 525 l0 5 l-5 0 q-65 -2 -111 -4 l-5 0 l0 -5 q1 -440 2 -565 l0 -5 l5 0 l107 0 l5 0 l0 5 Z" /><glyph glyph-name="u2162" unicode="&#x2162;" d="M393 633 q1 -443 1 -569 l0 -5 l5 0 q34 1 38 1 q12 0 19 -16 q8 -19 8 -32 q0 -12 -8 -12 q-35 6 -112 6 q-175 0 -231 -2 l-1 0 l-45 -5 q-13 0 -21 16 q-8 17 -8 30 q0 13 10 13 l40 -1 l7 0 l5 0 l0 5 l1 45 l1 515 l0 5 l-5 0 q-20 -1 -25 -2 q-13 0 -21 16 q-8 17 -8 30 q0 13 10 13 q7 0 30 -1 q24 -1 44 -1 q177 0 304 13 q10 0 17 -16 q8 -17 8 -30 q0 -13 -9 -13 q-23 1 -49 2 l-5 0 l0 -5 ZM153 626 q1 -439 1 -564 l0 -5 l5 0 q30 1 56 1 l5 0 l0 5 l1 44 l1 522 l0 5 l-5 0 q-33 -2 -59 -3 l-5 0 l0 -5 ZM340 64 l1 43 l1 526 l0 5 l-5 0 q-31 -1 -59 -2 l-5 0 l0 -5 q1 -441 1 -568 l0 -5 l5 0 q31 0 56 1 l5 0 l0 5 Z" /><glyph glyph-name="arrowboth" unicode="&#x2194;" d="M175 345 q59 -31 101.5 -61 q42.5 -30 50 -36.5 q7.5 -6.5 7.5 -16 q0 -9.5 -7 -19 q-7 -9.5 -12.5 -9.5 q-5.5 0 -13 5.5 q-7.5 5.5 -19.5 16 q-12 10.5 -34.5 26 q-22.5 15.5 -66 46 q-43.5 30.5 -93.5 52.5 q-11 5 -11 19.5 q0 14.5 11 19.5 q103 47 216 143 q3 3 9.5 3 q6.5 0 13.5 -9.5 q7 -9.5 7 -19 q0 -9.5 -8 -15.5 q-68 -55 -151 -99 l651 0 q-70 39 -106.5 66 q-36.5 27 -44.5 33 q-8 6 -8 15.5 q0 9.5 7 19 q7 9.5 13.5 9.5 q6.5 0 16.5 -8 q105 -90 209 -138 q11 -5 11 -19.5 q0 -14.5 -11 -19.5 q-49 -22 -92.5 -52.5 q-43.5 -30.5 -66 -46 q-22.5 -15.5 -41 -31.5 q-18.5 -16 -25.5 -16 q-7 0 -14 9.5 q-7 9.5 -7 19 q0 9.5 8 16.5 q61 49 151 97 l-651 0 Z" /><glyph glyph-name="arrowupdn" unicode="&#x2195;" d="M337 151 q-3 5 -3 10 q0 5 10 13 q12 8 21.5 8 q9.5 0 15.5 -8 q37 -46 86 -130 l9 -17 l0 643 l-9 -17 q-47 -81 -89 -134 q-3 -4 -12.5 -4 q-9.5 0 -21.5 8 q-10 8 -10 13 q0 5 3 10 l34 41 q26 37 57 81 q30 44 53 93 q4 11 20 11 q16 0 21 -13 q8 -15 40.5 -74 q32.5 -59 101.5 -139 q3 -5 3 -10 q0 -5 -10 -13 q-12 -8 -21.5 -8 q-9.5 0 -15.5 8 q-41 51 -87 130 l-9 17 l0 -642 l9 15 q45 77 90 135 q3 4 12.5 4 q9.5 0 21.5 -8 q10 -8 10 -13 q0 -5 -3 -10 q-98 -117 -143 -215 q-4 -11 -20 -11 q-16 0 -20 11 q-23 49 -53.5 92.5 q-30.5 43.5 -56.5 81.5 l-34 41 Z" /><glyph glyph-name="u2196" unicode="&#x2196;" d="M255 582 q18 -62 27.5 -114 q9.5 -52 10.5 -66 l0 -1 q0 -10 -9 -15.5 q-9 -5.5 -21.5 -5.5 q-12.5 0 -14.5 12 q-17 155 -52 254 q-1 2 -1 8 q0 6 6.5 13 q6.5 7 13 7 q6.5 0 32.5 -10 q61 -24 230 -43 q12 -1 12 -13.5 q0 -12.5 -6 -22 q-6 -9.5 -15 -9.5 l-1 0 q-108 17 -180 38 l548 -546 q5 -5 5 -14 q0 -9 -8 -17 q-8 -8 -15.5 -8 q-7.5 0 -11.5 4 l-550 549 Z" /><glyph glyph-name="u2197" unicode="&#x2197;" d="M711 616 q-80 -24 -180 -38 l-1 0 q-9 0 -15 9.5 q-6 9.5 -6 22 q0 12.5 12 13.5 q162 19 254 52 q2 1 8 1 q6 0 13 -6.5 q7 -6.5 7 -13 q0 -6.5 -10 -32.5 q-23 -59 -43 -230 q-1 -12 -13.5 -12 q-12.5 0 -22 5.5 q-9.5 5.5 -9.5 15.5 l0 1 q14 100 38 180 l-546 -548 q-5 -5 -14 -5 q-9 0 -17 8 q-8 8 -8 15.5 q0 7.5 4 11.5 l549 550 Z" /><glyph glyph-name="u2198" unicode="&#x2198;" d="M748 154 q-21 72 -38 180 l0 1 q0 10 9.5 15.5 q9.5 5.5 22 5.5 q12.5 0 13.5 -12 q19 -162 52 -254 q1 -2 1 -8 q0 -6 -6.5 -13 q-6.5 -7 -13 -7 q-6.5 0 -8.5 1 q-78 32 -254 52 q-12 1 -12 13.5 q0 12.5 6 22 q6 9.5 15 9.5 l1 0 q29 -2 86 -14.5 q57 -12.5 94 -23.5 l-548 546 q-5 5 -5 14 q0 9 8 17 q8 8 15.5 8 q7.5 0 11.5 -4 l550 -549 Z" /><glyph glyph-name="u2199" unicode="&#x2199;" d="M480 160 q9 0 15 -9.5 q6 -9.5 6 -22 q0 -12.5 -12 -13.5 q-174 -20 -254 -52 q-2 -1 -8.5 -1 q-6.5 0 -13 7 q-6.5 7 -6.5 13 q0 6 7.5 26.5 q7.5 20.5 21.5 81 q14 60.5 24 154.5 q2 12 14.5 12 q12.5 0 21.5 -5.5 q9 -5.5 9 -15.5 l0 -1 q-4 -67 -38 -180 l550 549 q4 4 11.5 4 q7.5 0 15.5 -8 q8 -8 8 -17 q0 -9 -5 -14 l-548 -546 q63 19 115 28 q52 9 65 10 l1 0 Z" /><glyph glyph-name="gradient" unicode="&#x2207;" d="M200 659 q-4 8 -4 17 q0 24 28 24 l560 0 q28 0 28 -24 q0 -9 -4 -17 l-290 -622 q-6 -14 -17 -14 q-11 0 -18 13 l-283 623 ZM761 648 l-486 0 l240 -529 l246 529 Z" /><glyph glyph-name="lessequal" unicode="&#x2264;" d="M767 220 q-1 0 -3 1 l-1 0 q-25 14 -51 27 q-58 26 -238.5 85.5 q-180.5 59.5 -211 67 q-30.5 7.5 -39.5 11.5 q-18 10 -18 44 q0 7 2 14 q8 10 38 19 q320 97 434 142 q38 16 81 41 l1 0 q2 1 3 1 q8 0 13.5 -14.5 q5.5 -14.5 5.5 -28.5 q0 -14 -6 -19 q-30 -8 -52 -17 l-22 -8 q-168 -59 -425 -136 l-17 -5 l298 -89 q94 -28 151 -49 l63 -22 l1 0 q7 -2 7 -21 q0 -44 -14 -44 ZM772 34 l-3 0 l-73 27 l-456 151 l-1 0 q-28 8 -34 9 q-11 5 -11 33 l1 11 q2 16 7 16 q5 -1 38 -14 l42 -16 q472 -156 488 -158 q12 -6 12 -36 l0 -6 q-3 -17 -10 -17 ZM194 254 l0 0 Z" /><glyph glyph-name="greaterequal" unicode="&#x2265;" d="M226 219 q-7 0 -13 15 q-6 15 -6 29.5 q0 14.5 6 17.5 q30 8 52 17 l22 8 q175 62 423 136 l17 5 l-132 39 q-235 70 -315 99 l-63 22 l-1 0 q-7 2 -7 21 q0 44 14 44 q1 0 3 -1 l1 0 q25 -14 51 -27 q58 -26 238.5 -85.5 q180.5 -59.5 211 -67 q30.5 -7.5 39.5 -11.5 q18 -10 18 -44 q0 -7 -2 -14 q-8 -10 -38 -19 q-423 -128 -495 -171 q-23 -13 -24 -13 ZM774 281 q8 -4 8 -28.5 q0 -24.5 -10 -31.5 l-1 0 q-33 -8 -254.5 -81.5 q-221.5 -73.5 -309.5 -105.5 l-3 0 q-10 0 -10 26.5 q0 26.5 12 32.5 q7 1 39 11 l31 9 q425 140 458.5 153 q33.5 13 39.5 15 Z" /><glyph glyph-name="u2266" unicode="&#x2266;" d="M268 487 q99 -29 246.5 -75.5 q147.5 -46.5 173 -55.5 q25.5 -9 47 -17 q21.5 -8 48.5 -17 q11 -2 11 -22 q0 -41 -17 -41 q-2 0 -19 9.5 q-17 9.5 -65 29 q-48 19.5 -104.5 39.5 q-56.5 20 -113.5 38.5 q-57 18.5 -104.5 33 q-47.5 14.5 -77.5 23.5 q-30 9 -35.5 10.5 q-5.5 1.5 -13.5 3.5 q-8 2 -15.5 6.5 q-7.5 4.5 -12.5 18.5 q-5 14 -5 28 q0 14 9.5 20.5 q9.5 6.5 37.5 15 q28 8.5 72 21.5 q94 29 207.5 67 q113.5 38 157 56.5 q43.5 18.5 60.5 28.5 q17 10 19 10 q10 0 15.5 -13.5 q5.5 -13.5 5.5 -28.5 q0 -15 -8 -18 q-22 -6 -40 -13 q-18 -7 -41 -15 q-23 -8 -67 -23 q-44 -15 -94.5 -32 q-50.5 -17 -102 -33.5 q-51.5 -16.5 -97 -30.5 q-45.5 -14 -77.5 -24 ZM731 194 q13 0 76 3 l1 0 q9 0 14.5 -10 q5.5 -10 5.5 -21 q0 -21 -15 -21 l-83 1 l-452 -6 q-63 0 -81 -3 l-2 0 q-8 0 -13 10.5 q-5 10.5 -5 21.5 q0 21 15 21 q30 -2 87 -2 l452 6 ZM731 50 q13 0 76 3 l1 0 q9 0 14.5 -10 q5.5 -10 5.5 -21 q0 -21 -15 -21 l-83 1 l-452 -6 q-63 0 -81 -3 l-2 0 q-8 0 -13 10.5 q-5 10.5 -5 21.5 q0 21 15 21 q30 -2 87 -2 l452 6 Z" /><glyph glyph-name="u2267" unicode="&#x2267;" d="M732 489 q-99 29 -246.5 75.5 q-147.5 46.5 -173 55.5 q-25.5 9 -47 17 q-21.5 8 -48.5 17 q-11 4 -11 23 q0 40 17 40 q2 0 19 -9.5 q17 -9.5 65 -29 q48 -19.5 104.5 -39.5 q56.5 -20 113.5 -38.5 q57 -18.5 104.5 -33 q47.5 -14.5 77.5 -23.5 q30 -9 35.5 -10.5 q5.5 -1.5 13.5 -3.5 q8 -2 15.5 -6.5 q7.5 -4.5 12.5 -18.5 q5 -14 5 -28 q0 -14 -9.5 -20.5 q-9.5 -6.5 -37.5 -15 q-28 -8.5 -72 -21.5 q-314 -97 -384 -131 q-34 -17 -46 -24 q-12 -7 -14 -7 q-10 0 -15.5 13.5 q-5.5 13.5 -5.5 28.5 q0 15 8 18 q23 6 40.5 13 q17.5 7 40.5 15 q23 8 67 23 q44 15 94.5 32 q50.5 17 102 33.5 q51.5 16.5 97 30.5 q45.5 14 77.5 24 ZM731 194 q13 0 76 3 l1 0 q9 0 14.5 -10 q5.5 -10 5.5 -21 q0 -21 -15 -21 l-83 1 l-452 -6 q-63 0 -81 -3 l-2 0 q-8 0 -13 10.5 q-5 10.5 -5 21.5 q0 21 15 21 q30 -2 87 -2 l452 6 ZM731 50 q13 0 76 3 l1 0 q9 0 14.5 -10 q5.5 -10 5.5 -21 q0 -21 -15 -21 l-83 1 l-452 -6 q-63 0 -81 -3 l-2 0 q-8 0 -13 10.5 q-5 10.5 -5 21.5 q0 21 15 21 q30 -2 87 -2 l452 6 Z" /><glyph glyph-name="u2468" unicode="&#x2468;" d="M978 367 q0 -99 -37 -185.5 q-37 -86.5 -103 -152 q-66 -65.5 -152.5 -102.5 q-86.5 -37 -185.5 -37 q-99 0 -185.5 37 q-86.5 37 -152.5 102.5 q-66 65.5 -103 152 q-37 86.5 -37 185.5 q0 99 37 185.5 q37 86.5 103 152.5 q66 66 152.5 103 q86.5 37 185.5 37 q99 0 185.5 -37 q86.5 -37 152.5 -103 q66 -66 103 -152.5 q37 -86.5 37 -185.5 ZM937 367 q0 90 -34 169.5 q-34 79.5 -94 139.5 q-60 60 -139.5 94 q-79.5 34 -169.5 34 q-90 0 -169.5 -34 q-79.5 -34 -139.5 -94 q-60 -60 -94 -139.5 q-34 -79.5 -34 -169.5 q0 -90 34 -169 q34 -79 94 -139 q60 -60 139.5 -94 q79.5 -34 169.5 -34 q90 0 169.5 34 q79.5 34 139.5 94 q60 60 94 139 q34 79 34 169 ZM564 76 q-18 0 -18 14 q0 5 5 27.5 q5 22.5 12.5 62 q7.5 39.5 16 82 q8.5 42.5 24.5 130.5 q-28 -43 -79 -68.5 q-51 -25.5 -95.5 -25.5 q-44.5 0 -79 17 q-34.5 17 -55.5 49.5 q-21 32.5 -21 75.5 q0 86 65 153 q65 67 149.5 67 q84.5 0 132.5 -42 q19 -16 25 -28 q4 17 4.5 32 q0.5 15 11.5 15 l2 0 q10 -1 22 -9.5 q12 -8.5 12 -17.5 l0 -3 q-29 -80 -80 -381 q-9 -50 -14 -85.5 q-5 -35.5 -7 -47.5 q-1 -16 -31 -17 l-2 0 ZM638 554 q-7 -7 -12.5 -7 q-5.5 0 -11.5 10 q-5 11 -20 25 q-38 36 -93.5 36 q-55.5 0 -96 -27.5 q-40.5 -27.5 -62.5 -67.5 q-22 -40 -22 -84.5 q0 -44.5 30 -70.5 q30 -26 75 -26 q67 0 122.5 45.5 q55.5 45.5 82.5 127.5 l8 39 Z" /><glyph glyph-name="u24C2" unicode="&#x24c2;" d="M978 367 q0 -99 -37 -185.5 q-37 -86.5 -103 -152 q-66 -65.5 -152.5 -102.5 q-86.5 -37 -185.5 -37 q-99 0 -185.5 37 q-86.5 37 -152.5 102.5 q-66 65.5 -103 152 q-37 86.5 -37 185.5 q0 99 37 185.5 q37 86.5 103 152.5 q66 66 152.5 103 q86.5 37 185.5 37 q99 0 185.5 -37 q86.5 -37 152.5 -103 q66 -66 103 -152.5 q37 -86.5 37 -185.5 ZM937 367 q0 90 -34 169.5 q-34 79.5 -94 139.5 q-60 60 -139.5 94 q-79.5 34 -169.5 34 q-90 0 -169.5 -34 q-79.5 -34 -139.5 -94 q-60 -60 -94 -139.5 q-34 -79.5 -34 -169.5 q0 -90 34 -169 q34 -79 94 -139 q60 -60 139.5 -94 q79.5 -34 169.5 -34 q90 0 169.5 34 q79.5 34 139.5 94 q60 60 94 139 q34 79 34 169 ZM743 591 q49 -437 69 -498 q0 -7 -10.5 -11 q-10.5 -4 -21.5 -4 q-25 0 -25 13 q-1 17 -1.5 29 q-0.5 12 -3.5 40 q-3 28 -10 82 q-23 179 -41 345 q-96 -192 -165 -365 q-14 -33 -14.5 -41.5 q-0.5 -8.5 -11.5 -14.5 q-11 -6 -26 -6 q-15 0 -18 12 l-17 47 q-12 29 -31 73 q-94 225 -116 286 q-37 -295 -46 -386.5 q-9 -91.5 -10 -99 q-1 -7.5 -12 -11.5 q-11 -4 -27 -4 q-16 0 -16 10 l0 2 q14 55 23.5 134.5 q9.5 79.5 19.5 160 q10 80.5 24 203.5 l1 11 l-1 19 q0 16 14.5 24 q14.5 8 25.5 8 q11 0 16.5 -3 q5.5 -3 8 -10 q2.5 -7 17.5 -43 q15 -36 59 -146 q44 -110 93 -219 q112 257 148.5 333 q36.5 76 41 86 q4.5 10 15 10 q10.5 0 22.5 -4 q30 -10 30 -23 l-4 -35 l0 -4 Z" /><glyph glyph-name="H18543" unicode="&#x25aa;" d="M361 240 l0 276 l277 0 l0 -276 l-277 0 Z" /><glyph glyph-name="H18551" unicode="&#x25ab;" d="M361 240 l0 276 l277 0 l0 -276 l-277 0 ZM593 471 l-187 0 l0 -186 l187 0 l0 186 Z" /><glyph glyph-name="u25B6" unicode="&#x25b6;" d="M205 -93 l0 940 l712 -470 l-712 -470 Z" /><glyph glyph-name="u25C0" unicode="&#x25c0;" d="M81 377 l712 470 l0 -940 l-712 470 Z" /><glyph glyph-name="u25C6" unicode="&#x25c6;" d="M500 -92 l-460 460 l460 460 l460 -460 l-460 -460 Z" /><glyph glyph-name="u25FB" unicode="&#x25fb;" d="M261 140 l0 476 l477 0 l0 -476 l-477 0 ZM693 571 l-387 0 l0 -386 l387 0 l0 386 Z" /><glyph glyph-name="u25FC" unicode="&#x25fc;" d="M261 140 l0 476 l477 0 l0 -476 l-477 0 Z" /><glyph glyph-name="u2600" unicode="&#x2600;" d="M480 798 q0 12 20 12 q20 0 20 -12 l0 -138 q0 -9 -6 -11 q-6 -2 -14 -2 q-20 0 -20 13 l0 138 ZM719 561 q-3 -3 -9 -3 q-6 0 -14 8.5 q-8 8.5 -8 14 q0 5.5 3 8.5 l97 97 q4 4 10.5 4 q6.5 0 14 -7.5 q7.5 -7.5 7.5 -14 q0 -6.5 -4 -10.5 l-97 -97 ZM181 658 q-3 3 -3 8 q0 5 9 14 q9 9 14 9 q5 0 8 -3 l98 -98 q3 -3 3 -7.5 q0 -4.5 -7.5 -14 q-7.5 -9.5 -14 -9.5 q-6.5 0 -9.5 3 l-98 98 ZM745 368 q0 -68 -33 -123.5 q-33 -55.5 -89 -88.5 q-56 -33 -124 -33 q-68 0 -123.5 33 q-55.5 33 -88.5 88.5 q-33 55.5 -33 123.5 q0 68 33 123.5 q33 55.5 88.5 88.5 q55.5 33 123.5 33 q68 0 124 -33 q56 -33 89 -88.5 q33 -55.5 33 -123.5 ZM942 368 q0 -20 -14 -20 l-137 0 q-13 0 -13 20 q0 20 13 20 l137 0 q9 0 11.5 -5.5 q2.5 -5.5 2.5 -14.5 ZM220 368 q0 -20 -13 -20 l-139 0 q-11 0 -11 20 q0 20 11 20 l139 0 q13 0 13 -20 ZM692 147 q-3 3 -3 9.5 q0 6.5 9.5 14.5 q9.5 8 13.5 8 q4 0 8 -4 l97 -97 q4 -4 4 -9.5 q0 -5.5 -6.5 -14 q-6.5 -8.5 -14 -8.5 q-7.5 0 -11.5 4 l-97 97 ZM208 50 q-3 -3 -7.5 -3 q-4.5 0 -13.5 8 q-9 8 -9 14.5 q0 6.5 2 8.5 l98 98 q2 2 7.5 2 q5.5 0 14.5 -5 q9 -5 9 -13.5 q0 -8.5 -3 -11.5 l-98 -98 ZM520 -62 q0 -13 -20 -13 q-20 0 -20 13 l0 138 q0 12 20 12 q20 0 20 -12 l0 -138 Z" /><glyph glyph-name="u2601" unicode="&#x2601;" d="M849 305 q111 -38 111 -133 q0 -70 -44.5 -108 q-44.5 -38 -133 -38 q-88.5 0 -147.5 22.5 q-59 22.5 -96.5 65 q-37.5 42.5 -62.5 103.5 q-24 -69 -89.5 -103.5 q-65.5 -34.5 -145.5 -34.5 q-80 0 -121 23 q-77 45 -77 150 q0 39 21 74 q21 35 57 57 q36 22 80 22 l5 0 q-3 18 -3 49 q0 31 15 73.5 q15 42.5 44 77.5 q66 78 179 78 q66 0 116.5 -28 q50.5 -28 81.5 -78.5 q31 -50.5 38 -117.5 q13 41 44.5 61.5 q31.5 20.5 67 20.5 q35.5 0 65 -17.5 q29.5 -17.5 47.5 -47 q18 -29.5 18 -66.5 q0 -37 -19.5 -67 q-19.5 -30 -50.5 -38 Z" /><glyph glyph-name="u2602" unicode="&#x2602;" d="M480 405 q-19 65 -95 65 q-44 0 -67 -29.5 q-23 -29.5 -25 -67.5 q0 -11 -12 -11 q-12 0 -12 11 q-1 39 -24.5 68 q-23.5 29 -72.5 29 q-49 0 -72 -31 q-23 -31 -26 -66 q-1 -11 -12.5 -11 q-11.5 0 -11.5 11 q3 81 54 167 q65 107 200 158 q73 27 176 32 l0 17 q1 17 3 35.5 q2 18.5 17 18.5 q16 0 18 -24 q2 -13 2 -30 l0 -17 q199 -9 310 -108 q85 -78 110 -181 q10 -42 10 -68 q0 -11 -12 -11 q-12 0 -12 11 q0 23 -11 45 q-25 52 -86.5 52 q-61.5 0 -86.5 -52 q-11 -22 -11 -45 q0 -11 -11 -11 q-11 0 -13 11 q-2 55 -41 83 q-21 14 -57.5 14 q-36.5 0 -58.5 -20.5 q-22 -20.5 -30 -45.5 l0 -371 q0 -55 -29 -81.5 q-29 -26.5 -71.5 -26.5 q-42.5 0 -73.5 22.5 q-31 22.5 -31 80.5 q0 15 20 15 q20 0 20 -15 q0 -38 19 -51 q19 -13 46 -13 q27 0 43.5 17.5 q16.5 17.5 16.5 51.5 l0 372 Z" /><glyph glyph-name="u2603" unicode="&#x2603;" d="M872.5 743 q13.5 0 22.5 -9 q9 -9 9 -22.5 q0 -13.5 -9 -23 q-9 -9.5 -22.5 -9.5 q-13.5 0 -23 9.5 q-9.5 9.5 -9.5 23 q0 13.5 9.5 22.5 q9.5 9 23 9 ZM160 712 q0 -11 -8.5 -19.5 q-8.5 -8.5 -19.5 -8.5 q-11 0 -19.5 8.5 q-8.5 8.5 -8.5 19.5 q0 11 8.5 19.5 q8.5 8.5 19.5 8.5 q11 0 19.5 -8.5 q8.5 -8.5 8.5 -19.5 ZM515 710 q0 -11 -8.5 -19.5 q-8.5 -8.5 -19.5 -8.5 q-11 0 -19.5 8.5 q-8.5 8.5 -8.5 19.5 q0 11 8.5 19.5 q8.5 8.5 19.5 8.5 q11 0 19.5 -8.5 q8.5 -8.5 8.5 -19.5 ZM696 293 q129 -73 129 -181 q0 -49 -26.5 -85 q-26.5 -36 -65 -55.5 q-38.5 -19.5 -75.5 -19.5 l-317 0 q-36 0 -73 19.5 q-37 19.5 -62.5 55.5 q-25.5 36 -25.5 87 q0 93 123 180 q-22 26 -35 48.5 q-13 22.5 -13 60.5 q0 38 29 72 q29 34 77 57 q48 23 105 28 l148 165 q5 6 8.5 6 q3.5 0 10.5 -5 l145 -127 q5 -5 5 -7.5 q0 -2.5 -2 -8.5 l-57 -112 q31 -33 31 -70 q0 -53 -59 -108 ZM888 711 q0 16 -16 16 q-16 0 -16 -16 q0 -16 16 -16 q16 0 16 16 ZM146 712 q0 14 -14 14 q-14 0 -14 -14 q0 -14 14 -14 q14 0 14 14 ZM501 710 q0 5 -4.5 9.5 q-4.5 4.5 -9.5 4.5 q-5 0 -9.5 -4.5 q-4.5 -4.5 -4.5 -9.5 q0 -5 4.5 -9.5 q4.5 -4.5 9.5 -4.5 q5 0 9.5 4.5 q4.5 4.5 4.5 9.5 ZM491 547 q76 -71 151 -71 q27 0 37.5 1.5 q10.5 1.5 18.5 2.5 l54 106 l-127 111 l-134 -150 ZM308.5 674 q13.5 0 22.5 -9 q9 -9 9 -22.5 q0 -13.5 -9 -23 q-9 -9.5 -22.5 -9.5 q-13.5 0 -23 9.5 q-9.5 9.5 -9.5 23 q0 13.5 9.5 22.5 q9.5 9 23 9 ZM324 642 q0 16 -16 16 q-16 0 -16 -16 q0 -16 16 -16 q16 0 16 16 ZM200.5 570 q13.5 0 22.5 -9 q9 -9 9 -22.5 q0 -13.5 -9 -23 q-9 -9.5 -22.5 -9.5 q-13.5 0 -23 9.5 q-9.5 9.5 -9.5 23 q0 13.5 9.5 22.5 q9.5 9 23 9 ZM216 538 q0 16 -16 16 q-16 0 -16 -16 q0 -16 16 -16 q16 0 16 16 ZM702 454 q-36 -4 -46 -4 q-87 0 -149 46 q-26 20 -41 38 q-47 -3 -89.5 -22 q-42.5 -19 -68.5 -48 q-26 -29 -26 -64.5 q0 -35.5 16 -58 q16 -22.5 30.5 -35 q14.5 -12.5 14.5 -18 q0 -5.5 -10 -11.5 q-56 -30 -91 -72.5 q-35 -42.5 -35 -88 q0 -45.5 21 -75.5 q21 -30 52.5 -46 q31.5 -16 60.5 -16 l317 0 q31 0 63.5 16 q32.5 16 54.5 46 q22 30 22 75.5 q0 45.5 -34.5 89 q-34.5 43.5 -96.5 73.5 q-10 5 -10 10.5 q0 5.5 16 16.5 q16 11 35.5 40 q19.5 29 19.5 50 q0 37 -26 58 ZM837.5 533 q13.5 0 22.5 -9 q9 -9 9 -22.5 q0 -13.5 -9 -23 q-9 -9.5 -22.5 -9.5 q-13.5 0 -23 9.5 q-9.5 9.5 -9.5 23 q0 13.5 9.5 22.5 q9.5 9 23 9 ZM853 501 q0 16 -16 16 q-16 0 -16 -16 q0 -16 16 -16 q16 0 16 16 ZM604 396 q0 -14 -10.5 -24 q-10.5 -10 -24.5 -10 q-14 0 -24 10 q-10 10 -10 24 q0 14 10 24 q10 10 24 10 q14 0 24.5 -10 q10.5 -10 10.5 -24 ZM463 396 q0 -14 -10.5 -24 q-10.5 -10 -24.5 -10 q-14 0 -24 10 q-10 10 -10 24 q0 14 10 24 q10 10 24 10 q14 0 24.5 -10 q10.5 -10 10.5 -24 ZM197 358 q0 -11 -8.5 -19.5 q-8.5 -8.5 -19.5 -8.5 q-11 0 -19.5 8.5 q-8.5 8.5 -8.5 19.5 q0 11 8.5 19.5 q8.5 8.5 19.5 8.5 q11 0 19.5 -8.5 q8.5 -8.5 8.5 -19.5 ZM183 358 q0 5 -4.5 9.5 q-4.5 4.5 -9.5 4.5 q-5 0 -9.5 -4.5 q-4.5 -4.5 -4.5 -9.5 q0 -5 4.5 -9.5 q4.5 -4.5 9.5 -4.5 q5 0 9.5 4.5 q4.5 4.5 4.5 9.5 ZM586 324 q0 -2 -8 -12 q-23 -27 -77 -27 q-31 0 -61 23 q-13 10 -13 15 q0 10 12 10 q4 0 20 -11.5 q16 -11.5 38 -11.5 q46 0 68 19 q7 5 10 5 q11 0 11 -10 ZM875.5 320 q13.5 0 22.5 -9 q9 -9 9 -22.5 q0 -13.5 -9 -23 q-9 -9.5 -22.5 -9.5 q-13.5 0 -23 9.5 q-9.5 9.5 -9.5 23 q0 13.5 9.5 22.5 q9.5 9 23 9 ZM891 288 q0 16 -16 16 q-16 0 -16 -16 q0 -16 16 -16 q16 0 16 16 ZM159 213 q0 -11 -8.5 -19.5 q-8.5 -8.5 -19.5 -8.5 q-11 0 -19.5 8.5 q-8.5 8.5 -8.5 19.5 q0 11 8.5 19.5 q8.5 8.5 19.5 8.5 q11 0 19.5 -8.5 q8.5 -8.5 8.5 -19.5 ZM145 213 q0 5 -4.5 9.5 q-4.5 4.5 -9.5 4.5 q-5 0 -9.5 -4.5 q-4.5 -4.5 -4.5 -9.5 q0 -5 4.5 -9.5 q4.5 -4.5 9.5 -4.5 q5 0 9.5 4.5 q4.5 4.5 4.5 9.5 ZM532 163 q0 -14 -10.5 -24 q-10.5 -10 -24.5 -10 q-14 0 -24 10 q-10 10 -10 24 q0 14 10 24 q10 10 24 10 q14 0 24.5 -10 q10.5 -10 10.5 -24 ZM532 58 q0 -14 -10.5 -24 q-10.5 -10 -24.5 -10 q-14 0 -24 10 q-10 10 -10 24 q0 14 10 24 q10 10 24 10 q14 0 24.5 -10 q10.5 -10 10.5 -24 Z" /><glyph glyph-name="u260E" unicode="&#x260e;" d="M681 601 l-4 -42 q0 -17 5 -35 q18 -60 51 -110 q33 -50 67 -94.5 q34 -44.5 58 -87.5 q24 -43 24 -101.5 q0 -58.5 -24.5 -82.5 q-24.5 -24 -77.5 -24 l-560 0 q-66 0 -89 44 q-13 26 -13 73 q0 47 24 90 q24 43 58 88 q34 45 67 95 q33 50 51 110 q5 18 5 36.5 q0 18.5 -4 40.5 q-58 -22 -58 -72 l1 -11 q2 -14 2 -28 q0 -31 -38 -42 q-70 -19 -110.5 -26.5 q-40.5 -7.5 -44.5 -7.5 q-30 0 -33 34 l0 12 q0 67 39 124 q19 28 48 46 q29 18 85 41 q134 55 290 55 q156 0 290 -55 q56 -23 85.5 -41 q29.5 -18 48.5 -46 q38 -58 38 -124 l0 -8 q-2 -38 -33 -38 q-27 0 -155 34 q-38 11 -38 42 q0 14 2 28 l1 11 q0 50 -58 72 ZM594 619 q-48 5 -93 5 q-45 0 -95 -5 q0 -57 94 -57 q56 0 82 24 q12 12 12 33 ZM594 185.5 q42 22.5 67.5 61 q25.5 38.5 25.5 85 q0 46.5 -25.5 84.5 q-25.5 38 -67.5 60.5 q-42 22.5 -93.5 22.5 q-51.5 0 -94 -22.5 q-42.5 -22.5 -68 -60.5 q-25.5 -38 -25.5 -84.5 q0 -46.5 25.5 -85 q25.5 -38.5 68 -61 q42.5 -22.5 94 -22.5 q51.5 0 93.5 22.5 Z" /><glyph glyph-name="u261D" unicode="&#x261d;" d="M735 407 q-8 -152 -62 -314 l3 0 q12 0 12 -13 l0 -154 q0 -10 -10 -13 q-71 -21 -178 -21 l-10 0 q-83 0 -180 20 q-11 3 -11 14 l0 154 q0 15 11 15 q4 0 6 -1 q0 22 -14 38 q-95 124 -95 237 q0 53 22.5 86 q22.5 33 53.5 61 q7 85 12 150 q5 65 11.5 107 q6.5 42 27 58.5 q20.5 16.5 43 16.5 q22.5 0 41.5 -16.5 q19 -16.5 19 -47.5 l0 -2 q-1 -46 -2 -95.5 q-1 -49.5 -2 -95.5 q11 7 31 7 q20 0 41.5 -13.5 q21.5 -13.5 29.5 -37.5 q16 14 39 14 q23 0 47 -21.5 q24 -21.5 24 -55.5 l0 -2 q9 4 28.5 4 q19.5 0 40.5 -18.5 q21 -18.5 21 -54.5 l0 -6 ZM314 544 q28 22 52.5 22 q24.5 0 39.5 -9 l3 226 l0 2 q0 17 -10 26.5 q-10 9.5 -22.5 9.5 q-12.5 0 -24.5 -11 q-12 -11 -17 -35 q-8 -63 -13 -130 q-5 -67 -8 -101 ZM411 346 q0 -14 11 -24 q11 -10 23 -10 q26 0 34.5 35 q8.5 35 19 77.5 q10.5 42.5 16.5 91.5 l0 7 q0 23 -15.5 37 q-15.5 14 -30.5 14 q-33 0 -35 -37 q-3 -83 -23 -187 l0 -4 ZM234 367 l1 -15 q8 -91 89 -205 q17 -22 17.5 -34 q0.5 -12 2.5 -27 q65 -15 146.5 -15 q81.5 0 150.5 15 q41 113 60 220 q-34 -73 -47 -81 q-13 -8 -32 -8 q-19 0 -38.5 14.5 q-19.5 14.5 -22.5 35.5 q-10 -6 -25.5 -6 q-15.5 0 -31.5 11 q-16 11 -23 26 q-13 -10 -18 -10 q-5 0 -7 0.5 q-2 0.5 -4 0.5 q35 -33 55 -94 l1 -4 q0 -13 -15 -13 q-8 0 -12 10 q-23 67 -70 107 q-19 16 -34.5 27.5 q-15.5 11.5 -25.5 28 q-10 16.5 -10 32.5 q0 16 12.5 36 q12.5 20 33 45 q20.5 25 20.5 39.5 q0 14.5 -11.5 23.5 q-11.5 9 -28.5 9 q-17 0 -34 -13 q-23 -20 -46 -41 q-53 -48 -53 -115 ZM533 288 q29 0 40 32 q47 124 47 170 q0 16 -15 29.5 q-15 13.5 -29 13.5 q-29 0 -35 -32 q-16 -105 -27 -143.5 q-11 -38.5 -11 -47 q0 -8.5 9 -15.5 q9 -7 21 -7 ZM588 266.5 q0 -8.5 10 -16.5 q10 -8 26.5 -8 q16.5 0 24.5 21 q14 30 29.5 63 q15.5 33 22.5 56.5 q7 23.5 7 27.5 l0 7 q0 18 -12.5 30.5 q-12.5 12.5 -23.5 12.5 q-23 0 -32 -26 q-13 -41 -22.5 -75.5 q-9.5 -34.5 -19.5 -59 q-10 -24.5 -10 -33 ZM397 436 q-15 -19 -22.5 -30 q-7.5 -11 -7.5 -21 q0 -10 9 -24 q2 -6 8 -8 l13 83 ZM326 -63 q85 -18 164 -18 l10 0 q85 0 160 17 l1 127 q-165 -40 -335 0 l0 -126 Z" /><glyph glyph-name="female" unicode="&#x2640;" d="M714 258 l28 0 q6 0 69 3 l1 0 q9 0 14.5 -10 q5.5 -10 5.5 -21 q0 -21 -15 -21 l-83 1 l-209 -3 l0 -124 l3 -106 q0 -8 -12.5 -8 q-12.5 0 -27.5 7.5 q-15 7.5 -15 18.5 l2 88 l0 123 l-208 -2 q-63 0 -81 -3 l-2 0 q-8 0 -13 10.5 q-5 10.5 -5 21.5 q0 21 15 21 q30 -2 87 -2 l207 3 l0 100 q-43 6 -79 30.5 q-36 24.5 -58 63.5 q-22 39 -22 91.5 q0 52.5 26 94 q26 41.5 68.5 65 q42.5 23.5 90 23.5 q47.5 0 89 -22.5 q41.5 -22.5 67.5 -64 q26 -41.5 26 -96 q0 -54.5 -21 -94.5 q-44 -79 -137 -92 l0 -99 l21 1 q21 0 52.5 0.5 q31.5 0.5 63 1 q31.5 0.5 52.5 0.5 ZM501 399 q37 0 67.5 17.5 q30.5 17.5 49 49 q18.5 31.5 18.5 72 q0 40.5 -18.5 71.5 q-18.5 31 -49 49.5 q-30.5 18.5 -67.5 18.5 q-37 0 -68.5 -18 q-31.5 -18 -50.5 -49.5 q-19 -31.5 -19 -71.5 q0 -40 19 -71.5 q19 -31.5 50.5 -49.5 q31.5 -18 68.5 -18 Z" /><glyph glyph-name="male" unicode="&#x2642;" d="M488 323 q40 -49 40 -111 q0 -62 -25.5 -104 q-25.5 -42 -66.5 -64.5 q-41 -22.5 -89.5 -22.5 q-48.5 0 -91 23.5 q-42.5 23.5 -68.5 65 q-26 41.5 -26 96.5 q0 55 26 96.5 q26 41.5 68.5 65 q42.5 23.5 96.5 23.5 q54 0 101 -35 l251 251 l-179 -10 q-38 -2 -115 -11 l-1 0 q-7 0 -7 11 q0 11 7.5 25.5 q7.5 14.5 17.5 15.5 l309 15 l2 0 q17 0 30.5 -13 q13.5 -13 13.5 -30 l0 -2 l-14 -238 q-1 -20 -2 -48 q-1 -28 -2 -51 q0 -10 -12.5 -10 q-12.5 0 -25.5 8 q-13 8 -13 18 l0 1 l8 82 l14 200 l-247 -247 ZM346 67 q37 0 67.5 17.5 q30.5 17.5 49 49 q18.5 31.5 18.5 72 q0 40.5 -18.5 71.5 q-18.5 31 -49 49.5 q-30.5 18.5 -67.5 18.5 q-37 0 -68.5 -18 q-31.5 -18 -50.5 -49.5 q-19 -31.5 -19 -71.5 q0 -40 19 -71.5 q19 -31.5 50.5 -49.5 q31.5 -18 68.5 -18 Z" /><glyph glyph-name="spade" unicode="&#x2660;" d="M468 167 q-61 -87 -172 -87 q-52 0 -101.5 25.5 q-49.5 25.5 -81 74 q-31.5 48.5 -31.5 114 q0 65.5 25 111 q25 45.5 66 83.5 q41 38 89.5 73 q48.5 35 95.5 72.5 q47 37.5 85 83.5 q38 46 57 107 q33 -105 142 -190 q47 -38 95.5 -73 q48.5 -35 89.5 -73 q91 -83 91 -190 q0 -70 -31.5 -118.5 q-31.5 -48.5 -81 -74 q-49.5 -25.5 -101.5 -25.5 q-111 0 -172 87 l-7 0 q0 -48 8.5 -89 q8.5 -41 35 -75.5 q26.5 -34.5 81.5 -62.5 q-73 15 -126 15 q-53 0 -83 -1.5 q-30 -1.5 -91 -13.5 q55 28 81.5 62.5 q26.5 34.5 35 75.5 q8.5 41 8.5 89 l-7 0 Z" /><glyph glyph-name="club" unicode="&#x2663;" d="M652 -60 q-63 13 -122 13 q-59 0 -91 -1 q-32 -1 -89 -12 q55 28 81.5 62 q26.5 34 35.5 75 q9 41 11 90 l4 97 q-50 -9 -65 -36 q-30 -52 -69.5 -87.5 q-39.5 -35.5 -97 -35.5 q-57.5 0 -97 24 q-39.5 24 -61.5 64.5 q-22 40.5 -22 89 q0 48.5 22 88.5 q22 40 61.5 64 q39.5 24 97 24 q57.5 0 97 -36 q39.5 -36 69.5 -87 q18 -28 65 -37 q-1 62 -11.5 94.5 q-10.5 32.5 -36.5 48.5 q-53 34 -84 71.5 q-31 37.5 -31 95 q0 57.5 25.5 97.5 q25.5 40 67 61.5 q41.5 21.5 90 21.5 q48.5 0 89.5 -21.5 q41 -21.5 66.5 -61.5 q25.5 -40 25.5 -97.5 q0 -57.5 -31.5 -96 q-31.5 -38.5 -83.5 -70.5 q-24 -15 -34.5 -48.5 q-10.5 -33.5 -12.5 -95.5 q43 4 63 38 q30 51 69.5 87 q39.5 36 97 36 q57.5 0 97.5 -24 q40 -24 61.5 -64 q21.5 -40 21.5 -88.5 q0 -48.5 -21.5 -89 q-21.5 -40.5 -61.5 -64.5 q-40 -24 -97.5 -24 q-57.5 0 -97 35.5 q-39.5 35.5 -69.5 87.5 q-17 29 -63 36 q0 -150 23 -212 q13 -37 39 -63.5 q26 -26.5 69 -48.5 Z" /><glyph glyph-name="heart" unicode="&#x2665;" d="M501 599 q26 74 78.5 108 q52.5 34 109.5 34 q57 0 109.5 -28.5 q52.5 -28.5 86 -80.5 q33.5 -52 33.5 -120.5 q0 -68.5 -25 -118.5 q-25 -50 -66 -90.5 q-41 -40.5 -89.5 -78.5 q-48.5 -38 -95.5 -78 q-109 -93 -142 -206 q-32 112 -142 206 q-47 41 -95.5 78.5 q-48.5 37.5 -89.5 78.5 q-91 91 -91 205 q0 72 32.5 124 q32.5 52 84 80.5 q51.5 28.5 108.5 28.5 q57 0 109.5 -34 q52.5 -34 81.5 -108 l3 0 Z" /><glyph glyph-name="diamond" unicode="&#x2666;" d="M64 379 q101 73 180 142 q161 141 256 321 q98 -183 256 -321 q79 -69 180 -142 q-207 -148 -322 -289 q-62 -78 -114 -175 q-94 178 -256 322 q-79 70 -180 142 Z" /><glyph glyph-name="u26A0" unicode="&#x26a0;" d="M19 -44 l480 832 l479 -832 l-959 0 ZM499 711 l-414 -716 l827 0 l-413 716 ZM528 559 q-4 -48 -4 -54 l-8 -293 l0 -38 q0 -5 -9.5 -5 q-9.5 0 -19 4 q-9.5 4 -9.5 11 l0 1 q2 12 2 30 l-3 294 q0 44 -4 60 l0 2 q0 12 14.5 12 q14.5 0 27.5 -7 q13 -7 13 -16 l0 -1 ZM502 40 q-15 0 -26.5 14 q-11.5 14 -11.5 27 q0 32 30 32 q14 0 26 -14 q12 -14 12 -28 q0 -31 -30 -31 Z" /><glyph glyph-name="u26AA" unicode="&#x26aa;" d="M784 378 q0 -116 -84 -200 q-84 -84 -200 -84 q-116 0 -200 84 q-84 84 -84 200 q0 116 84 200 q84 84 200 84 q116 0 200 -84 q84 -84 84 -200 ZM740 378 q0 66 -32.5 120.5 q-32.5 54.5 -87 87 q-54.5 32.5 -120.5 32.5 q-66 0 -120.5 -32.5 q-54.5 -32.5 -87 -87 q-32.5 -54.5 -32.5 -120.5 q0 -66 32.5 -120.5 q32.5 -54.5 87 -87 q54.5 -32.5 120.5 -32.5 q66 0 120.5 32.5 q54.5 32.5 87 87 q32.5 54.5 32.5 120.5 Z" /><glyph glyph-name="u26AB" unicode="&#x26ab;" d="M790 378 q0 -120 -85 -205 q-85 -85 -205 -85 q-120 0 -205 85 q-85 85 -85 205 q0 120 85 205 q85 85 205 85 q120 0 205 -85 q85 -85 85 -205 Z" /><glyph glyph-name="u26BE" unicode="&#x26be;" d="M975 378 q0 -98 -37 -184 q-37 -86 -102.5 -151.5 q-65.5 -65.5 -151.5 -102.5 q-86 -37 -184 -37 q-98 0 -184 37 q-86 37 -151.5 102.5 q-65.5 65.5 -102.5 151.5 q-37 86 -37 184 q0 98 37 184 q37 86 102.5 151.5 q65.5 65.5 151.5 102.5 q86 37 184 37 q98 0 184 -37 q86 -37 151.5 -102.5 q65.5 -65.5 102.5 -151.5 q37 -86 37 -184 ZM227 42 q29 23 57 56 l35 -25 q-13 -16 -27.5 -29.5 q-14.5 -13.5 -29.5 -27.5 q109 -71 240.5 -71 q131.5 0 234.5 72 q-39 36 -55 56 q0 0 12 9 q12 9 22 16 q35 -37 57 -55 q73 59 116.5 146.5 q43.5 87.5 43.5 188.5 q0 101 -43.5 188 q-43.5 87 -115.5 147 q-32 -25 -60 -59 l-35 25 q30 36 59 60 q-108 72 -238 72 q-130 0 -238 -72 q31 -27 58 -60 l-34 -24 q-26 32 -60 58 q-73 -60 -116 -147 q-43 -87 -43 -188.5 q0 -101.5 43.5 -189 q43.5 -87.5 116.5 -146.5 ZM678 605 q-18 -29 -35 -67 l-40 14 q18 40 40 78 l35 -25 ZM356 538 q-16 40 -34 67 l35 25 q27 -47 38 -78 l-39 -14 ZM625 480 q-6 -27 -11 -74 l-42 0 q3 46 13 87 l40 -13 ZM386 406 q-2 32 -11 74 l39 13 q13 -56 14 -87 l-42 0 ZM614 345 q4 -40 12 -73 l-40 -14 q-10 45 -14 87 l42 0 ZM374 272 q11 45 12 73 l42 0 q-4 -42 -14 -87 l-40 14 ZM320 148 q16 22 34 65 l41 -14 q-21 -43 -40 -77 l-35 26 ZM646 213 q23 -49 33 -65 l-34 -25 q-26 42 -40 76 l41 14 Z" /><glyph glyph-name="u2702" unicode="&#x2702;" d="M421 415 q-92 46 -188.5 94 q-96.5 48 -124.5 63 q-57 29 -57 84 q0 32 26 53.5 q26 21.5 71 21.5 q96 0 132 -59 q15 -24 15 -65 l0 -11 q0 -6 -1 -11 l0 -8 q0 -31 25.5 -52.5 q25.5 -21.5 138.5 -88.5 l-37 -21 ZM225 561 q34 0 34 52 q0 52 -59 71 q-26 9 -53 9 q-27 0 -44 -11 q-17 -11 -17 -27 q0 -33 41.5 -52.5 q41.5 -19.5 64.5 -30.5 q23 -11 33 -11 ZM294 191 q1 -5 1 -11 l0 -11 q0 -72 -53 -102 q-39 -22 -89 -22 q-50 0 -76 22 q-26 22 -26 53 q0 56 55 84 l260 129 q15 8 27 15.5 q12 7.5 19 24.5 q7 17 16 26.5 q9 9.5 34 22.5 l442 226 q6 3 15 3 q9 0 19 -5.5 q10 -5.5 10 -13 q0 -7.5 -10 -13.5 q-114 -67 -308.5 -178.5 q-194.5 -111.5 -297.5 -179.5 q-38 -25 -38 -62 l0 -8 ZM555 379 q273 -156 383 -222 q10 -6 10 -13.5 q0 -7.5 -10 -13 q-10 -5.5 -19 -5.5 q-9 0 -15 3 q-214 112 -415 212 l66 39 ZM259 162 q0 53 -34 53 q-12 0 -47.5 -16 q-35.5 -16 -63.5 -33.5 q-28 -17.5 -28 -44.5 q0 -16 17 -27 q17 -11 44 -11 q63 0 95 35 q17 18 17 44 Z" /><glyph glyph-name="u27A1" unicode="&#x27a1;&#x2b95;" d="M594 71 l0 178 l-484 0 l0 261 l484 0 l0 178 l364 -308 l-364 -309 Z" /><glyph glyph-name="u2B05" unicode="&#x2b05;" d="M410 249 l0 -178 l-364 309 l364 308 l0 -178 l484 0 l0 -261 l-484 0 Z" /><glyph glyph-name="u2B06" unicode="&#x2b06;" d="M368 -15 l0 484 l-178 0 l309 364 l308 -364 l-178 0 l0 -484 l-261 0 Z" /><glyph glyph-name="u2B07" unicode="&#x2b07;" d="M190 289 l178 0 l0 484 l261 0 l0 -484 l178 0 l-308 -364 l-309 364 Z" /><glyph glyph-name="u3000" unicode="&#x3000;" d="" /><glyph glyph-name="u3001" unicode="&#x3001;" d="M251 -63 q-11 0 -20 12 q-47 63 -153 156 q-8 8 -8 15.5 q0 7.5 9.5 17.5 q9.5 10 18.5 10 q9 0 16 -6 q72 -46 160 -134 q13 -13 13 -28.5 q0 -15.5 -12.5 -29 q-12.5 -13.5 -23.5 -13.5 Z" /><glyph glyph-name="u3002" unicode="&#x3002;" d="M349 49 q0 -37 -18.5 -67.5 q-18.5 -30.5 -49 -48.5 q-30.5 -18 -67.5 -18 q-37 0 -67.5 18 q-30.5 18 -49 48.5 q-18.5 30.5 -18.5 67.5 q0 37 19 67.5 q19 30.5 50 49 q31 18.5 68 18.5 q37 0 67 -18.5 q30 -18.5 48 -49 q18 -30.5 18 -67.5 ZM214.5 -41 q37.5 0 64 26.5 q26.5 26.5 26.5 64 q0 37.5 -26.5 64 q-26.5 26.5 -64 26.5 q-37.5 0 -64.5 -26.5 q-27 -26.5 -27 -64 q0 -37.5 27 -64 q27 -26.5 64.5 -26.5 Z" /><glyph glyph-name="u300A" unicode="&#x300a;" d="M684 298 q-20 36 -20 64 q0 28 20 65 l164 289 q23 38 46 88 q4 9 14 9 q10 0 22 -11 q12 -11 12 -17 q0 -6 -2 -10 q-13 -20 -25.5 -38.5 q-12.5 -18.5 -23.5 -38.5 l-162 -287 q-15 -28 -15 -48 q0 -20 15 -49 l156 -275 q13 -22 24.5 -41.5 q11.5 -19.5 20.5 -33.5 q9 -14 9 -21.5 q0 -7.5 -12 -13.5 q-12 -6 -24.5 -6 q-12.5 0 -15.5 7 q-27 60 -40 82 l-163 286 ZM541 298 q-20 36 -20 64 q0 28 20 65 l158 289 q11 21 23 42.5 q12 21.5 23 45.5 q5 9 14.5 9 q9.5 0 21.5 -11.5 q12 -11.5 12 -18 q0 -6.5 -7 -17.5 q-28 -39 -44 -68 l-156 -287 q-15 -28 -15 -48 q0 -20 15 -49 l150 -275 q18 -35 36 -62 q18 -27 18 -34.5 q0 -7.5 -12 -13.5 q-12 -6 -24.5 -6 q-12.5 0 -15.5 7 q-27 60 -40 82 l-157 286 Z" /><glyph glyph-name="u300B" unicode="&#x300b;" d="M271 325 q15 29 15 49 q0 20 -15 48 l-156 275 q-20 36 -37 63 q-17 27 -17 34.5 q0 7.5 12 13 q12 5.5 24.5 5.5 q12.5 0 15.5 -7 q24 -53 40 -82 l163 -286 q20 -34 20 -63.5 q0 -29.5 -20 -65.5 l-164 -289 q-30 -53 -46 -88 q-4 -9 -14 -9 q-10 0 -22 11 q-12 11 -12 17 q0 6 2 10 q13 20 25.5 39 q12.5 19 23.5 38 l162 287 ZM414 325 q15 29 15 49 q0 20 -15 48 l-150 275 q-18 35 -36 62.5 q-18 27.5 -18 35 q0 7.5 12 13 q12 5.5 24.5 5.5 q12.5 0 15.5 -7 q10 -22 20 -42 q10 -20 20 -40 l157 -286 q20 -34 20 -63.5 q0 -29.5 -20 -65.5 l-158 -289 q-11 -21 -23 -42.5 q-12 -21.5 -23 -45.5 q-4 -9 -14 -9 q-10 0 -22 11.5 q-12 11.5 -12 18 q0 6.5 14.5 26.5 q14.5 20 36.5 59 l156 287 Z" /><glyph glyph-name="u300C" unicode="&#x300c;" d="M729 159 l2 89 l0 470 l-5 58 q0 14 8 20 q8 6 39 6 q0 0 79 0 q49 0 63 2 l1 0 q12 0 19.5 -12.5 q7.5 -12.5 7.5 -26 q0 -13.5 -13 -13.5 l-87 3 l-61 0 l0 -508 l3 -106 q0 -10 -14 -10 q-14 0 -28 7.5 q-14 7.5 -14 20.5 Z" /><glyph glyph-name="u300D" unicode="&#x300d;" d="M274 -40 q0 -26 -39 -26 l-87 0 q-47 0 -63 -2 l-1 0 q-12 0 -19.5 12.5 q-7.5 12.5 -7.5 26 q0 13.5 13 13.5 l87 -3 l61 0 l0 508 l-3 106 q0 10 14 10 q14 0 28 -7.5 q14 -7.5 14 -20.5 l-2 -89 l0 -470 l5 -58 Z" /><glyph glyph-name="u3010" unicode="&#x3010;" d="M722 -75 l0 886 l238 0 q-103 -95 -148 -291 q-21 -94 -21 -199.5 q0 -105.5 21.5 -176.5 q21.5 -71 59.5 -122 q38 -51 88 -97 l-238 0 Z" /><glyph glyph-name="u3011" unicode="&#x3011;" d="M40 -75 q103 95 148 291 q21 95 21 200.5 q0 105.5 -21.5 176 q-21.5 70.5 -59.5 121.5 q-38 51 -88 97 l238 0 l0 -886 l-238 0 Z" /><glyph glyph-name="u301C" unicode="&#x301c;&#xff5e;" d="M699 277 q-60 0 -113 27 q-53 27 -106.5 59 q-53.5 32 -90.5 50.5 q-37 18.5 -85 18.5 q-48 0 -86.5 -19 q-38.5 -19 -73.5 -74 q-11 -17 -22 -17 q-9 0 -9 10.5 q0 10.5 4 19.5 q32 73 80.5 101.5 q48.5 28.5 108.5 28.5 q60 0 113 -26.5 q53 -26.5 114 -64.5 q48 -28 84 -46 q36 -18 83.5 -18 q47.5 0 87 19 q39.5 19 73.5 74 q11 17 22 17 q9 0 9 -10.5 q0 -10.5 -4 -19.5 q-32 -73 -80.5 -101.5 q-48.5 -28.5 -108.5 -28.5 Z" /><glyph glyph-name="u3030" unicode="&#x3030;" d="M1000 449 q-33 0 -55.5 -18 q-22.5 -18 -40.5 -44.5 q-18 -26.5 -38 -52.5 q-45 -63 -117 -63 q-42 0 -69 18 q-27 18 -46.5 44.5 q-19.5 26.5 -37.5 53 q-18 26.5 -40.5 44.5 q-22.5 18 -55.5 18 q-33 0 -55.5 -18 q-22.5 -18 -40.5 -44.5 q-18 -26.5 -37.5 -53 q-19.5 -26.5 -46.5 -44.5 q-27 -18 -69 -18 q-72 0 -117 63 q-20 26 -38 52.5 q-18 26.5 -40.5 44.5 q-22.5 18 -55.5 18 l0 45 q73 0 118 -63 q20 -27 38 -54 q18 -27 40 -45 q22 -18 54.5 -18 q32.5 0 54.5 18 q22 18 39.5 45 q17.5 27 37.5 54 q45 63 118 63 q73 0 118 -63 q20 -27 37.5 -54 q17.5 -27 39.5 -45 q22 -18 54.5 -18 q32.5 0 54.5 18 q22 18 40 45 q18 27 38 54 q45 63 118 63 l0 -45 Z" /><glyph glyph-name="u303D" unicode="&#x303d;" d="M923 81 q6 -7 6 -16 q0 -9 -8.5 -17.5 q-8.5 -8.5 -18 -8.5 q-9.5 0 -17.5 9 q-121 155 -187 276 q-66 121 -99 195 q-33 74 -54.5 117 q-21.5 43 -38.5 43 q-17 0 -30.5 -14 q-13.5 -14 -27.5 -33 q-36 -47 -80 -47 q-29 0 -64 36 q-13 14 -26 25 q-13 11 -30 11 q-40 0 -119 -105 q-7 -10 -17.5 -10 q-10.5 0 -18.5 7.5 q-8 7.5 -8 16.5 q0 9 9 20 q35 43 65 72 q51 47 87.5 47 q36.5 0 72.5 -36 q14 -14 26 -25 q12 -11 26.5 -11 q14.5 0 28.5 14 q14 14 28 33 q36 47 78 47 q29 0 50.5 -26 q21.5 -26 43.5 -73 q22 -47 50 -112 q91 -210 273 -435 Z" /><glyph glyph-name="u306E" unicode="&#x306e;" d="M543 626 q-20 0 -36 -2 q9 -9 9 -17 q0 -8 -6 -42 q-16 -89 -60.5 -220 q-44.5 -131 -121.5 -223 q-15 -19 -41 -19 q-26 0 -44 16 q-101 89 -101 204 q0 100 82.5 194 q82.5 94 197.5 134 q58 20 117 21 l9 0 q107 0 174.5 -41 q67.5 -41 99.5 -108.5 q32 -67.5 32 -141 q0 -73.5 -23.5 -128 q-23.5 -54.5 -60.5 -97.5 q-69 -77 -164 -122 q-79 -39 -100.5 -39 q-21.5 0 -21.5 8 q0 11 34 27 q94 44 174 117 q108 100 108 213 l0 36 q0 28 -13 72.5 q-13 44.5 -43 79.5 q-64 78 -197 78 l-4 0 ZM457 616 q-123 -30 -199 -129 q-69 -89 -69 -167 q0 -37 15.5 -70.5 q15.5 -33.5 34.5 -55.5 q19 -22 27.5 -29.5 q8.5 -7.5 19 -7.5 q10.5 0 21.5 14 q86 115 135 303 q20 80 25 121 q0 5 -10 21 Z" /><glyph glyph-name="u30CE" unicode="&#x30ce;" d="M229 -5 q-12 -6 -23.5 -6 q-11.5 0 -11.5 9.5 q0 9.5 20 22.5 q170 105 306 276 q109 138 162 253 q22 47 22 59 q0 12 -3.5 17 q-3.5 5 -3.5 8 q0 3 3 7 q3 4 6.5 4 q3.5 0 17.5 -5 q41 -13 41 -36 q0 -10 -15.5 -46 q-15.5 -36 -46.5 -90 q-74 -127 -193.5 -258 q-119.5 -131 -280.5 -215 Z" /><glyph glyph-name="u3297" unicode="&#x3297;" d="M978 367 q0 -99 -37 -185.5 q-37 -86.5 -103 -152 q-66 -65.5 -152.5 -102.5 q-86.5 -37 -185.5 -37 q-99 0 -185.5 37 q-86.5 37 -152.5 102.5 q-66 65.5 -103 152 q-37 86.5 -37 185.5 q0 99 37 185.5 q37 86.5 103 152.5 q66 66 152.5 103 q86.5 37 185.5 37 q99 0 185.5 -37 q86.5 -37 152.5 -103 q66 -66 103 -152.5 q37 -86.5 37 -185.5 ZM486.5 369 q-13.5 8 -13 16 q0.5 8 0.5 15 l0 16 q0 5 -1 10 l-15 158 q-3 22 -9 33.5 q-6 11.5 -6 17.5 q0 6 14 6 q14 0 43 -13 l240 17 l5 0 q8 0 20 -7.5 q12 -7.5 12 -14.5 q0 -7 -2 -11.5 q-2 -4.5 -3 -7.5 l-22 -160 q20 -19 20 -26 q0 -10 -20 -13 l-71 -4 l-6 -246 l0 -7 q0 -23 12.5 -33 q12.5 -10 48.5 -10 q64 0 75 10.5 q11 10.5 24 109.5 q5 38 16 38 q11 0 13 -41 l0 -18 q0 -77 -6 -89 q81 113 81 252 q0 90 -34 169.5 q-34 79.5 -94 139.5 q-60 60 -139.5 94 q-79.5 34 -169.5 34 q-90 0 -169.5 -34 q-79.5 -34 -139.5 -94 q-60 -60 -94 -139.5 q-34 -79.5 -34 -169.5 q0 -90 34 -169 q34 -79 94 -139 q60 -60 139.5 -94 q79.5 -34 171.5 -34 q92 0 174 36.5 q82 36.5 141 99.5 q-30 -6 -65.5 -6 q-35.5 0 -62.5 4 q-61 9 -61 80 l5 253 l-27 -1 q-20 -132 -72.5 -214 q-52.5 -82 -132.5 -136 q-11 -8 -19.5 -8 q-8.5 0 -8.5 7.5 q0 7.5 13 19.5 q67 60 112.5 139.5 q45.5 79.5 58.5 189.5 l-37 -2 l2 -18 l0 -2 q0 -12 -13 -12 q-9 0 -22.5 8 ZM322 658 q20 -21 34 -39.5 q14 -18.5 14 -26 q0 -7.5 -10 -17.5 q-10 -10 -16 -10 q-6 0 -30.5 34 q-24.5 34 -67.5 75 q-8 8 -8 13.5 q0 5.5 8 13.5 q8 8 14.5 8 q6.5 0 24 -15 q17.5 -15 37.5 -36 ZM725 602 l-223 -14 l14 -156 l188 10 l21 160 ZM332 334 l3 -277 l0 -21 q0 -14 -13.5 -14 q-13.5 0 -24 10.5 q-10.5 10.5 -10.5 21.5 l0 4 q4 22 4 44 l1 232 q-62 -73 -124 -116 q-24 -17 -32 -17 q-8 0 -8 8.5 q0 8.5 19 26.5 q129 115 205 270 l-124 -13 q-11 -1 -18.5 -2.5 q-7.5 -1.5 -16 -1.5 q-8.5 0 -17 8.5 q-8.5 8.5 -13 18.5 q-4.5 10 -4.5 12 q0 6 7 6 l14 -2 l19 0 q8 0 14 1 l164 16 l7 1 q8 0 19.5 -7 q11.5 -7 11.5 -15 l0 -1 q0 -6 -30 -58 q-30 -52 -53 -83 l0 -6 q116 -75 116 -95 q0 -15 -9 -22 q-9 -7 -13 -7 q-4 0 -26 23 q-22 23 -68 55 Z" /><glyph glyph-name="u3299" unicode="&#x3299;" d="M978 367 q0 -99 -37 -185.5 q-37 -86.5 -103 -152 q-66 -65.5 -152.5 -102.5 q-86.5 -37 -185.5 -37 q-99 0 -185.5 37 q-86.5 37 -152.5 102.5 q-66 65.5 -103 152 q-37 86.5 -37 185.5 q0 99 37 185.5 q37 86.5 103 152.5 q66 66 152.5 103 q86.5 37 185.5 37 q99 0 185.5 -37 q86.5 -37 152.5 -103 q66 -66 103 -152.5 q37 -86.5 37 -185.5 ZM937 367 q0 90 -34 169.5 q-34 79.5 -94 139.5 q-60 60 -139.5 94 q-79.5 34 -169.5 34 q-90 0 -169.5 -34 q-79.5 -34 -139.5 -94 q-60 -60 -94 -139.5 q-34 -79.5 -34 -169.5 q0 -90 34 -169 q34 -79 94 -139 q60 -60 139.5 -94 q79.5 -34 169.5 -34 q90 0 169.5 34 q79.5 34 139.5 94 q60 60 94 139 q34 79 34 169 ZM290 45 q4 32 4 54 l2 274 q-33 -78 -70 -131 q-63 -92 -83 -92 q-7 0 -7 10 q0 10 25.5 44 q25.5 34 60.5 100 q35 66 60 143 l-80 -8 q-12 -2 -21 -2 q-9 0 -21.5 11.5 q-12.5 11.5 -12.5 20 q0 8.5 6 8.5 l4 0 q11 -3 19 -3 l121 10 l1 111 q-84 -31 -108.5 -31 q-24.5 0 -24.5 7 q0 10 23 19 q46 17 115.5 50.5 q69.5 33.5 77.5 52.5 q3 6 10 6 q7 0 19.5 -14 q12.5 -14 12.5 -24 q0 -10 -5 -13 q-52 -26 -82 -38 l0 -123 l50 5 q9 2 15 3 q6 1 10 2.5 q4 1.5 10.5 1.5 q6.5 0 18.5 -7.5 q12 -7.5 12 -18 q0 -10.5 -15 -12.5 l-101 -10 l0 -37 q5 3 10 3 q9 0 48.5 -43.5 q39.5 -43.5 39.5 -54.5 q0 -4 -6.5 -15 q-6.5 -11 -16.5 -11 q-10 0 -16 10 q-28 45 -59 76 l1 -347 q0 -15 -12 -15 q-7 0 -21 9.5 q-14 9.5 -14 18.5 ZM711 628 l-2 15 q0 9 8.5 9 q8.5 0 25.5 -10 q17 -10 17 -24 l0 -4 q-49 -248 -122 -357 q-18 -26 -30 -41 q26 -54 99 -80 q33 -11 64 -11 l9 0 q3 0 3 1 q-10 39 -21 75.5 q-11 36.5 -11 48 q0 11.5 6 11.5 q9 0 22 -27 q25 -54 42.5 -84 q17.5 -30 17.5 -38.5 q0 -8.5 -8.5 -20 q-8.5 -11.5 -43.5 -11.5 l-8 0 q-52 0 -97 20 q-66 28 -102 83 q-76 -78 -153 -115 q-29 -14 -37.5 -14 q-8.5 0 -8.5 9 q0 9 19 21 q101 62 161 137 q-26 74 -31 220 q0 9 3 14.5 q3 5.5 16.5 5.5 q13.5 0 16 -3.5 q2.5 -3.5 4.5 -35.5 q4 -96 21 -160 q74 105 115 320 q5 30 5 36 l0 10 ZM653 520 q0 -7 -8.5 -16.5 q-8.5 -9.5 -16.5 -9.5 q-8 0 -32 29 q-24 29 -75 68 q-7 5 -7 11 q0 6 7 13.5 q7 7.5 15 7.5 q8 0 15 -6 q52 -40 77 -65 q25 -25 25 -32 ZM824.5 369.5 q18.5 -22.5 32.5 -41.5 q14 -19 14 -25 q0 -6 -8.5 -17 q-8.5 -11 -17.5 -11 q-9 0 -17 13 q-38 66 -86 117 q-9 11 -9 18 q0 7 9 12 q9 5 14.5 5 q5.5 0 11.5 -6 q6 -6 22 -24 q16 -18 34.5 -40.5 ZM478 397 q23 -4 23 -20 l0 -5 q-7 -66 -34 -153 q-4 -12 -15 -12 q-4 0 -16 3.5 q-12 3.5 -12 12 q0 8.5 13 44 q13 35.5 26 114.5 q4 16 15 16 Z" /><glyph glyph-name="u4E00" unicode="&#x4e00;" d="M64 385 q28 -7 46 -7 l727 37 q25 2 35 6 q10 4 15 4 q5 0 18 -8 q13 -8 23.5 -19.5 q10.5 -11.5 10.5 -19.5 q0 -11 -18 -13 l-773 -40 l-1 0 q-7 -1 -14 -1 l-12 0 q-18 0 -27 6 q-16 13 -23 31.5 q-7 18.5 -7 23.5 Z" /><glyph glyph-name="u4E03" unicode="&#x4e03;" d="M454 341 l-2 -185 l0 -12 q0 -53 12 -80 q14 -27 51.5 -36 q37.5 -9 114.5 -9 q77 0 140 10 q63 10 80 18 q17 8 22 8 q5 0 20.5 -8.5 q15.5 -8.5 28.5 -20 q13 -11.5 13 -18.5 q0 -12 -27 -16 q-153 -26 -294 -26 q-141 0 -181 33 q-23 19 -31 52.5 q-8 33.5 -8 86.5 l0 7 l2 185 l0 6 l-236 -39 q-39 -7 -52.5 -7 q-13.5 0 -32.5 21 q-19 21 -19 27 q0 4 6 4 l2 0 q5 -1 11 -1 l9 0 q21 0 52 5 l257 41 l4 1 l0 4 l3 308 q0 30 -15 55 l-2 4 q0 3 10 3 q10 0 29 -7 l1 0 q36 -11 36 -25 l-3 -327 l0 -6 l350 56 q35 5 56 16 q21 11 28 11 q7 0 21.5 -7 q14.5 -7 26 -17.5 q11.5 -10.5 11.5 -20 q0 -9.5 -21 -12.5 l-469 -77 l-4 -1 l0 -4 Z" /><glyph glyph-name="u4E07" unicode="&#x4e07;" d="M84 650 q25 -5 52 -5 l13 0 l664 41 q35 3 45 6 q10 3 16.5 3 q6.5 0 19.5 -8 q13 -8 22.5 -18 q9.5 -10 9.5 -16 q0 -6 -14 -8 l-437 -26 l-5 0 l0 -5 q-8 -80 -28 -161 l-1 -6 l6 0 l265 14 l7 0 q20 0 34.5 -10 q14.5 -10 14.5 -19.5 q0 -9.5 -3.5 -16.5 q-3.5 -7 -4.5 -13 l0 -1 q-34 -354 -104 -461 q-20 -29 -38.5 -29 q-18.5 0 -42.5 15 q-55 31 -114.5 86 q-59.5 55 -59.5 70 q1 1 6 1 q5 0 32 -17 q82 -52 157 -79 q3 -1 10 -1 q7 0 9 7 q60 135 85 413 l0 5 l-5 0 l-263 -13 l-4 0 l-1 -4 q-62 -202 -172 -324 q-79 -88 -151 -119 q-21 -10 -24.5 -11 q-3.5 -1 -3.5 4.5 q0 5.5 19 21.5 q150 128 221 292 q71 164 87 352 l0 5 l-5 0 l-226 -14 l-1 0 q-15 -2 -27.5 -2 q-12.5 0 -31.5 6 q-17 6 -30 39 l-1 0 l0 4 q0 2 3 2 ZM712 461 l0 0 ZM912 645 l-1 0 l1 0 Z" /><glyph glyph-name="u4E09" unicode="&#x4e09;" d="M252 600 l-31 -1 q-21 0 -30.5 8.5 q-9.5 8.5 -15.5 26.5 l-7 21 q0 1 0 1.5 q0 0.5 2 0.5 q2 0 11.5 -3 q9.5 -3 38.5 -3 l13 0 l481 28 q22 2 35 6.5 q13 4.5 19 4.5 q6 0 18.5 -10 q12.5 -10 22 -21.5 q9.5 -11.5 9.5 -16.5 q0 -10 -22 -12 l-544 -30 ZM321 332 l-29 -1 q-20 0 -28 6 q-27 31 -27 49 q0 6 2 6 q2 0 14 -3.5 q12 -3.5 39 -3.5 l10 0 l366 18 q22 2 35 6.5 q13 4.5 18 4.5 q5 0 18.5 -9.5 q13.5 -9.5 23 -21.5 q9.5 -12 9.5 -19 q0 -10 -22 -12 l-429 -20 ZM114 76 l713 24 q17 1 37 5.5 q20 4.5 25.5 4.5 q5.5 0 19.5 -8.5 q14 -8.5 25 -20.5 q11 -12 11 -20 q0 -13 -21 -15 l-767 -26 l-27 -1 q-26 0 -38 9.5 q-12 9.5 -20.5 26.5 q-8.5 17 -8.5 24 l0 3 q5 0 16 -3 q11 -3 35 -3 Z" /><glyph glyph-name="u4E0A" unicode="&#x4e0a;" d="M104 32 l334 12 l5 0 l0 5 l-5 669 q0 30 -16 54 q-3 5 -3 7.5 q0 2.5 8.5 2.5 q8.5 0 40 -10.5 q31.5 -10.5 31.5 -24.5 l1 -291 l0 -5 l5 0 l181 10 q38 3 49.5 7.5 q11.5 4.5 20.5 4.5 q9 0 23 -10 q14 -10 23 -21.5 q9 -11.5 9 -15.5 q0 -8 -20 -10 l-286 -17 l-5 0 l0 -5 l2 -342 l0 -5 l5 0 l325 12 q29 2 43.5 6 q14.5 4 20 4 q5.5 0 19 -8.5 q13.5 -8.5 24.5 -20.5 q11 -12 11 -19 q0 -10 -20 -12 l-783 -28 l-33 -1 q-42 0 -55 38 q-7 16 -7 20 q4 0 16.5 -3 q12.5 -3 35.5 -3 ZM791 416 l-1 0 l1 0 ZM422 772 l0 -1 q0 1 0 1 Z" /><glyph glyph-name="u4E0B" unicode="&#x4e0b;" d="M443 647 l-277 -16 l-1 0 q-6 -1 -13 -1 l-12 0 q-20 0 -29 6 q-9 9 -19 24 q-10 15 -10 21 q0 6 1 8 q2 0 12 -3.5 q10 -3.5 37 -3.5 l12 0 l669 39 q24 1 34 5 q10 4 16.5 4 q6.5 0 20 -9 q13.5 -9 23 -20 q9.5 -11 9.5 -17 q0 -9 -21 -11 l-384 -22 l-5 0 l0 -202 l9 18 q7 12 18.5 12 q11.5 0 95.5 -50 q84 -50 123 -79 q39 -29 43 -34 q4 -5 4 -10 q0 -5 -5 -16 q-13 -26 -26 -26 q-6 0 -19 10 q-111 89 -227 152 l-16 10 l0 -9 l1 -492 q0 -22 -12 -22 q-12 0 -25 8 l-1 0 q-29 16 -29 35 l0 5 q0 3 4 23 q4 20 4 44 l0 619 l-5 0 ZM522 426 l-1 0 l1 0 Z" /><glyph glyph-name="u4E0D" unicode="&#x4e0d;" d="M103 686 l0 5 l1 0 q30 -6 50 -6 l9 0 l630 34 q26 2 36.5 5.5 q10.5 3.5 15.5 3.5 q5 0 17 -8 q32 -20 32 -36 q0 -8 -20 -10 l-259 -14 l-3 0 l-1 -3 q-44 -81 -100 -160 l-1 -1 l0 -2 l1 -560 q0 -21 -16 -21 q-6 0 -18.5 5 q-12.5 5 -22.5 15.5 q-10 10.5 -10 20 q0 9.5 4 27.5 q4 18 4 46 l0 394 l-9 -10 q-108 -123 -242 -212 q-57 -38 -95.5 -57.5 q-38.5 -19.5 -46 -19.5 q-7.5 0 -7.5 2 q0 7 17 19 q239 168 380 367 l1 2 l0 2 q-4 15 -12 24.5 q-8 9.5 -9 12.5 q2 2 9.5 2 q7.5 0 35.5 -7 q24 36 61 103 l5 7 l-9 0 l-347 -19 l-1 0 q-5 -1 -10 -1 l-16 0 q-10 0 -26.5 7.5 q-16.5 7.5 -26.5 41.5 l0 1 l-1 0 ZM874 674 l-1 0 l1 0 ZM879 160 q-9 0 -19 9 q-147 123 -275 200 q-13 8 -13 15.5 q0 7.5 8.5 20.5 q8.5 13 16.5 13 q8 0 49 -25 q115 -69 249 -171 q14 -11 14 -18 q0 -20 -10.5 -32 q-10.5 -12 -19.5 -12 Z" /><glyph glyph-name="u4E0E" unicode="&#x4e0e;" d="M755 255 q13 83 17 139 l0 5 l-5 0 l-448 -22 q-12 -1 -20 -3.5 q-8 -2.5 -18 -2.5 q-10 0 -24 7 q-13 5 -13 16 q0 11 19.5 90.5 q19.5 79.5 36 167 q16.5 87.5 16.5 104 q0 16.5 -3.5 29 q-3.5 12.5 -3.5 16 q0 3.5 6.5 3.5 q6.5 0 24.5 -8 q36 -14 37 -31 l-32 -165 l6 0 l305 16 q64 5 76 10 q12 5 20.5 5 q8.5 0 21.5 -7.5 q13 -7.5 22.5 -18 q9.5 -10.5 9.5 -17.5 q0 -7 -16 -9 l-451 -24 l-4 0 l-31 -126 l-1 -6 l6 0 l472 23 l8 0 q15 0 31 -9.5 q16 -9.5 16 -20 q0 -10.5 -2.5 -17.5 q-2.5 -7 -5.5 -34.5 q-3 -27.5 -15 -104.5 l-10 -55 q-21 -106 -42 -173 q-21 -67 -35 -90 q-22 -40 -46 -40 q-10 0 -52.5 19 q-42.5 19 -108 65 q-65.5 46 -65.5 62 q0 3 8.5 3 q8.5 0 52.5 -22 q44 -22 141 -54 l1 0 l4 -1 l1 0 q10 0 15 8 l0 1 q37 70 68 217 l10 55 ZM781 446 l0 0 ZM53 234 l7 0 q24 -7 56 -7 l14 0 l394 18 q28 1 54 7 q26 6 32.5 6 q6.5 0 17.5 -7 q31 -19 31 -36 q0 -8 -11 -9 l-501 -22 q-24 -2 -40 -2 q-29 0 -48 36 q-5 11 -6 16 ZM648 206 l-1 0 l1 0 Z" /><glyph glyph-name="u4E11" unicode="&#x4e11;" d="M374 391 q8 31 27 263 l0 5 l-5 0 l-118 -7 l-1 0 q-6 -1 -13 -1 l-15 0 q-26 0 -32 8 q-16 21 -24 50 q0 2 3 2 l3 0 q28 -9 50 -9 l5 0 l465 29 l9 0 q24 0 34 -12 q10 -12 10 -17.5 q0 -5.5 -3.5 -11 q-3.5 -5.5 -4.5 -14.5 l-62 -636 l-1 -5 l6 0 l103 3 q39 3 48 6 q9 3 13 3 q4 0 16 -8 q33 -23 33 -41 q0 -7 -18 -9 l-729 -22 l-28 -1 q-26 0 -33 9 q-15 19 -23 51 q0 2 2.5 2 q2.5 0 16 -5 q13.5 -5 37.5 -5 l5 0 l167 6 l4 0 q7 28 25.5 166 q18.5 138 20.5 149 l-6 0 l-135 -7 l-1 0 q-8 -1 -16 -1 l-14 0 q-23 0 -30 8 q-16 21 -24 50 q0 2 3 2 l3 0 q28 -9 50 -9 l5 0 l168 9 l4 0 ZM902 -11 l0 0 ZM719 731 l0 0 ZM700 678 l-236 -14 l-5 0 l0 -5 l-13 -125 q-11 -115 -15 -139 l6 0 l241 12 l5 0 l0 5 l22 261 l0 5 l-5 0 ZM671 355 l-243 -12 l-4 0 q-2 -6 -14.5 -102.5 q-12.5 -96.5 -32.5 -214.5 l6 0 l261 8 l5 0 l0 5 l27 311 l0 5 l-5 0 Z" /><glyph glyph-name="u4E13" unicode="&#x4e13;" d="M130 452 l9 0 l230 12 l3 0 q2 6 38 132 l-7 0 l-134 -8 l-1 0 q-7 -1 -15 -1 l-14 0 q-19 0 -25 4 q-21 14 -25 29.5 q-4 15.5 -5 18.5 l0 2 q5 0 15 -3 q10 -3 37 -3 l13 0 l169 10 l4 1 q0 0 12.5 55 q12.5 55 12.5 71.5 q0 16.5 -3.5 29 q-3.5 12.5 -3.5 16 q0 3.5 6 3.5 q6 0 25 -8 q36 -14 37 -31 q-30 -130 -31 -133 l7 0 l241 15 q24 2 36 6 q12 4 17 4 q5 0 17 -8 q33 -22 33 -37 q0 -8 -20 -10 l-340 -20 l-4 0 l0 -3 l-39 -129 l7 0 l390 20 q28 2 38.5 6.5 q10.5 4.5 15.5 4.5 q5 0 18.5 -9 q13.5 -9 24.5 -20.5 q11 -11.5 11 -16.5 q0 -8 -19 -10 l-499 -25 l-4 -1 l-48 -140 l7 0 l351 23 l13 0 q21 0 30 -12 q9 -12 9 -19 q0 -7 -3 -11 q-11 -10 -43 -54.5 q-32 -44.5 -147 -177.5 l-4 -4 l5 -3 q85 -54 92.5 -62 q7.5 -8 8.5 -13 q1 -5 -4 -15 l-1 0 q-12 -27 -25 -27 q-5 0 -18 10 q-110 89 -245 170 q-16 9 -17 16 q-1 7 5 19 q4 11 17 11 q24 0 130 -72 l4 -2 l3 2 q86 87 149 184 l6 9 l-306 -18 q-12 -1 -20 -3.5 q-8 -2.5 -18 -2.5 q-10 0 -24 7 q-13 5 -13 15 q0 10 15 52 l40 116 l-8 -1 l-183 -9 q-24 -2 -38.5 -2 q-14.5 0 -27 9.5 q-12.5 9.5 -19.5 23 q-7 13.5 -7 18.5 q0 5 2 5 l54 -6 ZM718 299 l0 0 Z" /><glyph glyph-name="u4E14" unicode="&#x4e14;" d="M734 693 l-6 -23 l-4 -621 l0 -5 l5 0 l122 3 q14 0 30 4 q16 4 21.5 4 q5.5 0 16.5 -7 q26 -20 26 -37 q0 -9 -22 -11 l-794 -22 l-9 0 q-27 0 -38 10.5 q-11 10.5 -20 42.5 l0 1 l-1 0 q0 1 0 2 q5 0 16 -3.5 q11 -3.5 42 -3.5 l145 4 l5 0 l0 5 l-5 613 q0 38 -7 51.5 q-7 13.5 -8 18.5 q3 1 13.5 1 q10.5 0 57.5 -19 l2 0 l356 22 l14 1 q18 0 30 -12 q12 -12 12 -19 ZM923 0 l0 0 ZM919 48 l0 0 ZM692 724 l0 0 ZM667 675 l-345 -20 l-5 0 l0 -5 l1 -157 l0 -5 l5 0 l344 18 l5 0 l0 169 l-5 0 ZM666 459 l-343 -18 l-5 0 l0 -5 l1 -153 l0 -5 l5 0 l342 16 l5 0 l0 165 l-5 0 ZM666 247 l-341 -15 l-5 0 l0 -5 l1 -189 l0 -5 l5 0 l339 9 l5 0 l0 5 l1 195 l0 5 l-5 0 Z" /><glyph glyph-name="u4E16" unicode="&#x4e16;" d="M444 751 q68 0 68 -35 l2 -223 l0 -5 l5 0 l153 8 l5 0 l0 5 l5 198 l0 5 q0 34 -17 56 q-3 4 -3 6 q0 2 6.5 2 q6.5 0 24.5 -4 q48 -10 48 -35 l0 -2 l-9 -222 l0 -5 l5 0 l97 5 q33 3 47.5 8.5 q14.5 5.5 20 5.5 q5.5 0 19 -8.5 q13.5 -8.5 24 -20 q10.5 -11.5 10.5 -18.5 q0 -10 -20 -12 l-201 -10 l-5 0 l0 -5 l-7 -184 l0 -2 l1 -1 q32 -35 32 -41.5 q0 -6.5 -6 -8.5 q-10 -2 -24 -3 l-204 -9 l-5 0 l0 -34 q0 -19 -11 -19 q-6 0 -18.5 5 q-12.5 5 -22 14 q-9.5 9 -9.5 19 q6 30 6 54 l0 201 l-5 0 l-163 -8 l-5 0 l0 -5 l3 -382 l0 -5 l5 0 l462 15 q42 2 60.5 8 q18.5 6 26.5 6 q8 0 22.5 -9.5 q14.5 -9.5 24 -21.5 q9.5 -12 9.5 -17 q0 -10 -24 -12 l-555 -17 q-23 -1 -34.5 -6 q-11.5 -5 -22.5 -5 q-11 0 -25 13 q-14 13 -14 22.5 q0 9.5 5 29.5 q5 20 5 46 l-3 331 l0 5 l-5 0 l-87 -4 l-25 -1 q-25 0 -33.5 5.5 q-8.5 5.5 -21 21 q-12.5 15.5 -12.5 21 q0 5.5 1 6.5 q5 0 15 -3 q10 -3 44 -3 l12 0 l106 6 l5 0 l0 5 l-1 149 q0 38 -9.5 47.5 q-9.5 9.5 -9.5 13.5 l0 1 q1 1 8 1 q7 0 23 -3 q43 -7 43 -24 l1 -182 l0 -5 l5 0 l163 9 l5 0 l0 201 q0 38 -19 59 l0 1 q-2 1 -2 3 q0 2 5 2 ZM671 447 l-152 -8 l-5 0 l0 -5 l1 -183 l0 -5 l5 0 l146 6 l5 0 l0 5 l5 185 l0 5 l-5 0 Z" /><glyph glyph-name="u4E1A" unicode="&#x4e1a;" d="M261 239 q-9 0 -16 18 q-29 99 -89 213 q-18 35 -18 40 q0 5 13 13 q13 9 22 9 q4 0 9 -6 q22 -21 80 -144 q17 -37 28.5 -70.5 q11.5 -33.5 11.5 -41.5 q0 -8 -15 -19 q-16 -12 -26 -12 ZM388 751.5 q22 -5.5 27.5 -13.5 q5.5 -8 5.5 -17 l4 -682 l134 4 l9 668 q-2 18 -10 28 q-8 10 -8 17 q0 3 10.5 3 q10.5 0 31.5 -5.5 q21 -5.5 28 -12.5 q7 -7 7 -18 l-10 -679 l218 4 q23 0 37 5.5 q14 5.5 19 5.5 q5 0 17 -9 q36 -25 36 -41 q0 -8 -21 -11 l-811 -19 q-37 0 -53 39 q-6 15 -7 18 q0 1 1 2 q1 1 10 1 q25 -6 57 -6 l248 4 l-6 674 q-1 16 -9 26 q-8 10 -8 17 q0 3 10.5 3 q10.5 0 32.5 -5.5 ZM709 262 q-23 -21 -30 -21 q-4 7 14 36 q14 24 56 118.5 q42 94.5 42 146.5 q0 15 1.5 16.5 q1.5 1.5 2.5 1.5 q8 0 21 -9 q13 -9 23 -19 q17 -16 17 -26 q0 -8 -12.5 -38.5 q-12.5 -30.5 -34 -64.5 q-21.5 -34 -48 -74.5 q-26.5 -40.5 -52.5 -66.5 Z" /><glyph glyph-name="u4E1C" unicode="&#x4e1c;" d="M280 329 q15 -2 24 -2 l15 0 l181 10 l-1 112 q0 25 -8 38 q-8 13 -8 17 q0 4 14.5 4 q14.5 0 43.5 -13 q12 -5 12 -16 l1 -139 l177 9 q25 2 34 5.5 q9 3.5 13 3.5 q4 0 13 -7 q27 -20 27 -35 q0 -6 -16 -8 l-248 -14 l2 -311 l1 -30 q0 -15 -10.5 -29.5 q-10.5 -14.5 -24.5 -14.5 q-39 0 -127 64 q-45 33 -45 43 q1 1 8 1 q7 0 51.5 -18 q44.5 -18 92.5 -27 l-2 319 l-227 -13 q-12 -1 -20.5 -3.5 q-8.5 -2.5 -18.5 -2.5 q-10 0 -24 7 q-14 7 -4 29 q85 124 146 267 l-142 -7 q-9 -1 -11 -1 l-9 0 q-42 0 -56 37 q-5 16 -2 16 q6 0 17.5 -3 q11.5 -3 33.5 -3 l9 0 l179 10 q48 119 51.5 134.5 q3.5 15.5 2 28 q-1.5 12.5 -0.5 16.5 q1 4 8 4 q7 0 23 -8 q33 -14 30 -30 q-4 -10 -55 -142 l345 19 q22 1 36 5 q14 4 20 4 q6 0 18 -7 q31 -19 31 -36 q0 -8 -21 -10 l-449 -23 q-53 -129 -130 -250 ZM802 308 l1 0 l-1 0 ZM859 602 q0 0 -1 0 l1 0 ZM298 211 q0 10 2 10 q7 0 22 -7 q41 -22 41 -40 q0 -4 -3 -8 q-63 -70 -120 -110 q-57 -40 -94.5 -55.5 q-37.5 -15.5 -43.5 -15.5 q-1 0 -1 5 q0 5 18 19 q64 49 121.5 105.5 q57.5 56.5 57.5 91.5 l0 5 ZM360 166 l0 0 ZM912 44 q0 -12 -12.5 -25 q-12.5 -13 -20.5 -13 q-8 0 -18 10 q-86 82 -204 158 q-6 4 -6 8 q0 4 5 12 q13 23 25.5 23 q12.5 0 92 -56 q79.5 -56 126.5 -96 q12 -9 12 -21 Z" /><glyph glyph-name="u4E1D" unicode="&#x4e1d;" d="M354 724 q-16 -67 -138 -261 l28 -17 q45 -27 77 -51 l7 10 q0 0 0 1 q75 136 82 171 q2 10 3 23 q1 13 2 16 q5 -1 15 -8 q35 -23 36 -44 q0 -7 -3 -14 q-92 -179 -189 -335 l-6 -10 l11 2 q27 5 69 12.5 q42 7.5 68 12.5 q49 9 49 0 l0 -1 q-1 -13 -68.5 -40 q-67.5 -27 -134 -46 q-66.5 -19 -76 -18 q-9.5 1 -15.5 6 q-23 31 -28 61 q1 5 6 4 l15 -1 q22 -2 45 -1 q46 75 85 149 q-80 63 -157 99 q-15 8 -16.5 15.5 q-1.5 7.5 5 22.5 q6.5 15 14 17 q7.5 2 18 -3 q10.5 -5 17.5 -7 q88 140 106 191.5 q18 51.5 18 77.5 l0 11 q0 7 3.5 7 q3.5 0 15.5 -8 q36 -23 36 -44 ZM164 493 l0 1 q0 -1 0 -1 ZM77 3 q-5 19 -2.5 19 q2.5 0 17 -3.5 q14.5 -3.5 37.5 -3.5 l8 0 l697 20 q26 1 37.5 5 q11.5 4 16.5 4 q5 0 18.5 -9 q13.5 -9 24 -21 q10.5 -12 10.5 -18 q0 -9 -19 -11 l-759 -23 l-34 0 q-39 0 -52 41 ZM922 -15 l0 0 ZM711 728 q-10 -63 -122 -268 l30 -15 q37 -20 68 -40 q81 138 89 172 q2 10 3 23 q1 13 3 16 q5 -1 15 -8 q34 -25 34 -46 q0 -7 -3 -14 q-94 -169 -211 -334 l-7 -9 l12 1 q178 20 189.5 22.5 q11.5 2.5 17 5.5 q5.5 3 10.5 3 q5 0 19 -8.5 q14 -8.5 28.5 -23 q14.5 -14.5 6.5 -18 q-8 -3.5 -18 -5.5 q-229 -19 -267 -25 q-38 -6 -49 -6 q-28 0 -42 41 q-2 4 -2 9 l30 -4 l7 0 q62 84 103 156 l-2 0 l4 6 q-77 49 -146 78 q-15 7 -17 14 q-2 7 3.5 22.5 q5.5 15.5 13 18 q7.5 2.5 18 -2 q10.5 -4.5 17.5 -6.5 q80 145 95 197.5 q15 52.5 13 78.5 l0 11 q0 7 2 7 q5 0 18 -6 q36 -22 37 -43 ZM535 487 l0 1 q0 -1 0 -1 ZM511 437 l0 0 ZM875 182 l1 0 q-1 0 -1 0 Z" /><glyph glyph-name="u4E22" unicode="&#x4e22;" d="M151 7 q0 0 38 -3 l18 0 q5 0 12 1 l22 2 l3 0 l1 2 q105 140 183 275 l5 8 l-9 0 l-282 -14 l-1 0 q-7 -1 -14 -1 l-11 0 q-15 0 -28 7 q-13 7 -24 36 l-1 0 q-2 4 -2 8 q1 0 2 0 l46 -6 l1 0 l353 19 l5 0 l0 5 l1 118 l0 5 l-5 0 l-162 -8 l-23 -1 q-11 0 -22 6 q-11 6 -22 41 l-1 0 q0 1 0 2 q21 -5 39 -5 l11 0 l181 10 l5 0 l0 5 l1 118 l0 6 l-18 -3 q-181 -30 -273 -30 q-11 1 -11 5 q1 8 21 11 q285 52 479 121 q20 8 30.5 21 q10.5 13 14.5 12 q4 -1 13.5 -13.5 q9.5 -12.5 18 -32.5 q8.5 -20 -4.5 -27 q-92 -29 -210 -52 l-4 -1 l0 -4 l-1 -128 l0 -5 l5 0 l150 8 q22 2 31 4 q9 2 12.5 2 q3.5 0 13.5 -7 q28 -19 28 -32 q0 -6 -16 -8 l-219 -11 l-5 0 l0 -5 l-1 -119 l0 -5 l5 0 l307 16 q33 3 40.5 6.5 q7.5 3.5 16 3.5 q8.5 0 26.5 -20.5 q18 -20.5 18 -25.5 q0 -5 -19 -7 l-413 -21 l-3 0 l-1 -2 q-94 -152 -187 -271 l-7 -9 l12 1 q183 20 372 50 l9 1 q-35 41 -94 101 q-8 7 -8 13 q0 6 12.5 16.5 q12.5 10.5 19.5 10.5 q7 0 16 -9 q99 -94 209 -224 q9 -10 9 -16 q0 -6 -11 -20.5 q-11 -14.5 -24.5 -14.5 q-13.5 0 -25.5 16 q-26 36 -71 88 l-2 2 l-3 0 q-275 -51 -398.5 -65 q-123.5 -14 -135 -14 q-11.5 0 -22.5 13.5 q-11 13.5 -14.5 23.5 q-3.5 10 -5 14 q-1.5 4 -1.5 6 ZM219 5 l-1 0 l1 0 ZM750 484 l0 0 Z" /><glyph glyph-name="u4E24" unicode="&#x4e24;" d="M594 720 q6 3 9.5 3 q3.5 0 12.5 -2 l1 0 l185 10 q29 2 42 5.5 q13 3.5 20 3.5 q7 0 18 -10 q22 -17 27 -33 q0 -8 -17 -10 l-230 -12 l-5 0 l0 -5 q-3 -73 -8 -154 l0 -5 l5 0 l164 9 l9 0 q5 0 17 -5 q29 -13 29 -30 q0 -6 -4 -12.5 q-4 -6.5 -4 -15.5 l-2 -454 l1 -37 q0 -28 -16.5 -40.5 q-16.5 -12.5 -28 -12.5 q-11.5 0 -54.5 23 q-43 23 -79.5 54 q-36.5 31 -44.5 54 l5 0 q8 0 33 -15 q57 -34 128 -46 l0 6 l1 475 l0 5 l-5 0 l-154 -7 l-5 0 l0 -5 q-6 -63 -13 -83 l3 -2 q36 -35 69 -76.5 q33 -41.5 59 -74.5 q6 -9 6 -15 q0 -6 -9.5 -18 q-9.5 -12 -19.5 -12 q-10 0 -19 14 q-43 72 -93 131 l-6 8 l-3 -10 q-31 -116 -97 -197 q-32 -40 -54 -60.5 q-22 -20.5 -27 -20.5 q-5 0 -5 5 q0 5 11 21 q128 175 148 387 l1 5 l-6 0 l-171 -9 l-4 0 l-10 -60 l0 -3 q41 -41 59 -64.5 q18 -23.5 44 -56.5 q6 -9 6 -15 q0 -6 -10 -18 q-10 -12 -19.5 -12 q-9.5 0 -23.5 22 q-14 22 -27 44 q-13 22 -34 47 l-6 8 l-3 -10 q-31 -116 -96.5 -197 q-65.5 -81 -83.5 -81 q-3 0 -3 5 q0 5 11 21 q120 162 146 361 l1 6 l-6 0 l-168 -8 l-5 0 l0 -5 l2 -376 l1 -129 q0 -19 -10 -19 q-5 0 -17 4.5 q-12 4.5 -21.5 14 q-9.5 9.5 -9.5 16.5 l0 13 q0 4 2 24.5 q2 20.5 2 69.5 l0 341 q0 71 -18 114 q-1 3 -1 5 q0 2 8.5 2 q8.5 0 69.5 -28 l2 0 l169 9 l5 0 l0 5 q5 67 7 155 l0 5 l-5 0 l-203 -10 q-20 -2 -29.5 -2 q-9.5 0 -20.5 3 q-25 5 -36 46 l0 1 l-1 0 q0 1 0 2 l3 0 q28 -5 43 -5 l464 25 l2 0 ZM844 515 l0 0 ZM818 520 l0 0 ZM507 266 l0 0 ZM762 221 l0 0 ZM600 672 l-166 -8 l-5 0 l0 -5 q-4 -85 -10 -156 l0 -5 l5 0 l170 10 l5 0 l0 5 q4 67 6 154 l0 5 l-5 0 Z" /><glyph glyph-name="u4E25" unicode="&#x4e25;" d="M238 389 l2 0 l146 8 l5 0 l0 5 l-8 286 l0 5 l-5 0 l-165 -9 q-30 -3 -44 -3 q-14 0 -27.5 13.5 q-13.5 13.5 -18.5 33.5 l1 0 q4 0 15 -2.5 q11 -2.5 31 -2.5 l583 33 q22 2 40.5 7 q18.5 5 27.5 5 q9 0 35 -26 q9 -10 9 -15.5 q0 -5.5 -15 -7.5 l-239 -13 l-5 0 l0 -5 l-11 -287 l0 -5 l5 0 l209 11 q21 1 35 5.5 q14 4.5 18.5 4.5 q4.5 0 21 -13 q16.5 -13 16.5 -25 q0 -9 -14 -11 l-647 -33 l-5 0 l0 -5 q-10 -133 -26 -190 q-16 -57 -39 -101 q-43 -81 -90 -120 q-18 -15 -23 -15 q-3 0 -3 6 q0 6 11 21 q36 51 68 132 q46 115 46 257 l0 9 q0 26 -6.5 45.5 q-6.5 19.5 -7.5 25.5 q3 1 11.5 1 q8.5 0 62.5 -25 ZM886 381 l-1 0 l1 0 ZM850 719 l0 0 ZM346 476 q0 -6 -14 -15.5 q-14 -9.5 -20 -9.5 q-9 0 -19 18 q-31 67 -83 139 q-7 10 -7 15 q0 5 12 13.5 q12 8.5 19 8.5 q10 0 61 -75.5 q51 -75.5 51 -93.5 ZM734 681 l1 6 l1 0 q5 0 20 -7 q40 -24 40 -40.5 q0 -16.5 -41 -69 q-41 -52.5 -73.5 -84.5 q-32.5 -32 -43.5 -32 q-1 1 -1 6 q0 5 28 47 q28 42 65 130 q4 11 4 33 l0 11 ZM756 680 l-1 0 q1 0 1 0 ZM448 400 l90 5 l5 0 l0 5 l10 287 l0 5 l-5 0 l-107 -5 l-5 0 l0 -5 l7 -287 l0 -5 l5 0 Z" /><glyph glyph-name="u4E2A" unicode="&#x4e2a;" d="M525 723 q122 -161 272 -263 q76 -53 170 -102 q12 -7 13 -11 q-2 -5 -20.5 -22.5 q-18.5 -17.5 -32.5 -17.5 q-6 1 -44 22 q-38 21 -101 66 q-156 112 -282 279 l-4 6 l-4 -6 q-91 -142 -223 -256 q-105 -92 -187 -137 q-32 -17 -36 -17 l-6 0 l0 1 q0 7 20 24 q185 156 295 295 q67 85 114 184 q10 23 10 41 l0 4 q0 7 7.5 7 q7.5 0 22.5 -8 q38 -22 38 -37 q0 -5 -4 -14 l-18 -33 l-2 -2 l2 -3 ZM470 439 q0 23 -19 47 q-3 5 -4 7 q0 3 13.5 3 q13.5 0 35.5 -7.5 q22 -7.5 27 -13 q5 -5.5 5 -16.5 l1 -533 q0 -22 -14 -22 q-7 0 -20 6 q-33 19 -33 39 q0 6 4 26 q4 20 4 44 l0 420 Z" /><glyph glyph-name="u4E2D" unicode="&#x4e2d;" d="M213 572 l2 0 l248 15 l5 0 l0 5 l1 172 q0 22 -7.5 36.5 q-7.5 14.5 -7.5 18.5 q0 4 5 4 q5 0 21 -3 q45 -8 45 -32 l-1 -192 l0 -5 l5 0 l270 16 l1 0 q6 1 12 1 l9 0 q32 0 40 -24 q4 -9 4 -13.5 q0 -4.5 -4 -10.5 q-4 -6 -5 -14 l-28 -216 l0 -3 l1 -1 q27 -31 27 -39 q0 -8 -8 -9.5 q-8 -1.5 -21 -2.5 l-300 -13 l-5 0 l0 -5 l-2 -346 q0 -20 -15 -20 q-20 0 -33 11.5 q-13 11.5 -13 24.5 q6 42 6 69 l1 258 l0 5 l-5 0 l-218 -9 l-6 0 l1 -5 l3 -30 l0 -3 q0 -14 -14 -14 q-11 0 -28 8 q-17 8 -17 26 l0 8 q2 16 2 29.5 q0 13.5 -2 28.5 l-18 217 q-2 34 -13.5 52 q-11.5 18 -11.5 24 l6 2 l3 0 q13 0 65 -21 ZM182 298 l0 -1 l0 1 ZM241 215 l0 0 ZM795 557 l-266 -15 l-5 0 l0 -5 l-2 -222 l0 -5 l5 0 l244 11 l5 0 l0 4 l24 226 l1 6 l-6 0 ZM463 538 l-243 -14 l-5 0 l0 -5 l19 -217 l0 -5 l5 0 l223 10 l5 0 l0 5 l1 221 l0 5 l-5 0 Z" /><glyph glyph-name="u4E30" unicode="&#x4e30;" d="M141 220 l9 0 l318 17 l5 0 l0 154 l-5 0 l-175 -9 l-25 -1 q-19 0 -28.5 8 q-9.5 8 -16.5 23.5 q-7 15.5 -7 19.5 q6 0 17.5 -2.5 q11.5 -2.5 30.5 -2.5 l8 0 l196 10 l5 0 l0 142 l-5 0 l-228 -13 l-1 0 q-7 -1 -15 -1 l-14 0 q-19 0 -25 4 q-21 14 -25 29.5 q-4 15.5 -5 18.5 l0 2 q5 0 15 -3 q10 -3 37 -3 l13 0 l248 15 l5 0 l0 113 q0 30 -13 46 q-3 5 -4 8 q0 2 9.5 2 q9.5 0 32.5 -5.5 q23 -5.5 27 -11 q4 -5.5 4 -15.5 l0 -133 l5 0 l203 12 q24 2 36 6 q12 4 17 4 q5 0 17 -8 q33 -22 33 -37 q0 -8 -20 -10 l-286 -16 l-5 0 l0 -142 l5 0 l170 9 l1 0 q27 3 34.5 6 q7.5 3 12 3 q4.5 0 16.5 -8 q12 -8 21 -18.5 q9 -10.5 9 -17 q0 -6.5 -17 -8.5 l-247 -13 l-5 0 l0 -5 l1 -144 l0 -5 l5 0 l282 15 q28 2 38.5 6.5 q10.5 4.5 15.5 4.5 q5 0 18.5 -9 q13.5 -9 24.5 -20.5 q11 -11.5 11 -16.5 q0 -8 -19 -10 l-371 -19 l-5 0 l0 -257 q0 -21 -11 -22 l-13 5 l-1 0 q-40 11 -40 38 l0 5 q0 3 4 23 q4 20 4 44 l0 160 l-5 0 l-291 -15 q-24 -2 -38.5 -2 q-14.5 0 -27 9.5 q-12.5 9.5 -19.5 23 q-7 13.5 -7 18.5 q0 5 2 5 l54 -6 Z" /><glyph glyph-name="u4E32" unicode="&#x4e32;" d="M818 654 q0 -3 -8 -16 l0 -1 l-26 -107 l0 -2 l1 -2 q20 -26 20 -32 q0 -6 -6.5 -7.5 q-6.5 -1.5 -18.5 -2.5 l-252 -12 l-5 0 l0 -108 l5 0 l286 15 l14 0 q20 0 30 -13 q10 -13 10 -17.5 q0 -4.5 -3.5 -8 q-3.5 -3.5 -4.5 -9.5 l-26 -121 l0 -2 l1 -2 q19 -26 19 -32 q0 -6 -6 -7.5 q-6 -1.5 -18 -2.5 l-304 -13 l-5 0 l0 -5 l-1 -228 q0 -20 -15 -20 q-20 0 -33 11.5 q-13 11.5 -13 24.5 q6 42 6 69 l1 140 l0 5 l-5 0 l-226 -10 l-6 0 l1 -5 l2 -20 l0 -3 q0 -13 -16.5 -13 q-16.5 0 -30 10.5 q-13.5 10.5 -13.5 22.5 l0 5 q2 16 2 28 q0 12 -2 27 l-13 106 q-3 27 -12.5 42 q-9.5 15 -9.5 19.5 q0 4.5 15 4.5 q15 0 58 -14 l2 0 l250 13 l5 0 l0 108 l-5 0 l-181 -9 l-5 0 l0 -5 l1 -10 l0 -4 q0 -12 -16 -12 q-16 0 -30 10.5 q-14 10.5 -14 22.5 l0 5 q2 18 2 29 q0 11 -2 26 l-12 79 q-5 34 -24 66 q-1 2 -1 4 q0 2 12.5 2 q12.5 0 62.5 -17 l2 0 l207 12 l5 0 l0 96 q0 22 -7.5 36.5 q-7.5 14.5 -7.5 18.5 q0 4 5 4 q5 0 21 -3 q45 -8 45 -32 l-1 -111 l0 -5 l5 0 l232 14 l1 0 q4 1 8 1 l9 0 q22 0 35 -22 q4 -8 4 -11 ZM814 379 l0 0 ZM277 445 l0 0 ZM232 113 l0 0 ZM750 643 l-221 -13 l-5 0 l0 -5 l-1 -106 l0 -5 l5 0 l200 10 l4 0 l23 113 l1 6 l-6 0 ZM463 627 l-201 -12 l-6 0 l14 -110 l1 -4 l4 0 l188 10 l5 0 l0 116 l-5 0 ZM800 336 l-273 -14 l-5 0 l0 -128 l5 0 l251 11 l4 0 l23 125 l1 6 l-6 0 ZM462 319 l-245 -12 l-6 0 l13 -123 l1 -4 l4 0 l232 11 l5 0 l0 5 l1 118 l0 5 l-5 0 Z" /><glyph glyph-name="u4E34" unicode="&#x4e34;" d="M626 534 q63 -30 176 -118 q8 -7 9 -11.5 q1 -4.5 -3 -12.5 l-1 0 q-10 -24 -22 -26 q-12 -3 -22 6 q-96 80 -176 128 q-9 7 -11 10 q0 2 6 16 q6 14 15.5 16 q9.5 2 28.5 -8 ZM137 555 q0 25 -8 36.5 q-8 11.5 -9 14.5 q0 3 8 3 q8 0 24 -4 q38 -8 38 -24 l-3 -464 q0 -14 -8 -15 l-2 1 l-1 0 q-16 0 -40 15 q-13 9 -13 21 l0 5 q0 2 4.5 21.5 q4.5 19.5 4.5 47.5 l5 342 ZM523 296 l2 0 l334 20 l12 0 q24 0 35 -12 q11 -12 11 -18.5 q0 -6.5 -3.5 -11.5 q-3.5 -5 -4.5 -11 l-29 -232 l0 -3 q10 -10 18 -23 q8 -13 8 -17.5 q0 -4.5 -27 -6.5 l-335 -10 l-5 0 l0 -5 l3 -35 l0 -3 q0 -18 -14 -18 q-18 0 -33 11 q-15 11 -15 27 q3 21 3 27 l0 25 q0 7 -1 15 l-15 229 q-3 35 -11 50 q-8 15 -8 21 l6 2 l3 0 q13 0 66 -21 ZM542 -69 l0 0 ZM859 316 l0 0 ZM482 15 l0 -1 l0 1 ZM592 641 q247 17 264 21 q17 4 23.5 4 q6.5 0 19 -8.5 q12.5 -8.5 21 -19 q8.5 -10.5 8.5 -15.5 q0 -10 -24 -12 l-348 -20 l-3 0 l-1 -2 q-54 -81 -123 -142 q-15 -12 -21 -12 l0 1 q0 4 12.5 22 q12.5 18 49.5 78.5 q37 60.5 70.5 132.5 q33.5 72 28.5 101 l0 1 q-7 16 3 17 q18 3 41 -10.5 q23 -13.5 24 -19.5 q2 -13 -49 -110 l-5 -8 l9 1 ZM429 447 l0 0 ZM335 -91 q-52 13 -52 36 l0 5 q0 2 4 21 q5 19 5 48 l5 711 q0 25 -8.5 36.5 q-8.5 11.5 -8.5 15.5 l0 1 q1 1 8.5 1 q7.5 0 23.5 -4 q38 -8 38 -24 l-3 -834 q0 -14 -8 -14 q-2 1 -4 1 ZM711 258 l-1 -232 l0 -5 l5 0 l107 4 l5 0 l0 5 l23 234 l1 5 l-6 0 l-129 -6 l-5 0 l0 -5 ZM652 260 l-126 -7 l-5 0 l0 -5 l14 -228 l0 -5 l5 0 l111 3 l5 0 l0 5 l1 232 l0 5 l-5 0 Z" /><glyph glyph-name="u4E38" unicode="&#x4e38;" d="M882 33 q27 35 46 157 q6 38 15.5 38 q9.5 0 9.5 -46 l0 -20 q0 -79 -8 -122.5 q-8 -43.5 -27 -62 q-19 -18.5 -55 -23.5 q-36 -5 -102.5 -5 q-66.5 0 -102.5 19.5 q-36 19.5 -36 80.5 l0 11 q0 6 1 12 l0 1 l41 430 l1 5 l-6 0 l-185 -15 l-4 0 l-1 -4 q-20 -122 -54 -205 l-1 -4 l3 -2 q123 -92 134 -111 q2 -4 2 -9 q0 -5 -9.5 -22.5 q-9.5 -17.5 -19 -17.5 q-9.5 0 -18.5 10 q-59 61 -115 105 l-2 -6 q-70 -134 -197 -225 q-52 -38 -89 -55.5 q-37 -17.5 -45 -17.5 q-8 0 -8 2 q0 7 19 20 q80 56 155 134.5 q75 78.5 122 180.5 l1 4 l-3 2 q-59 46 -116 83 q-18 12 -18 20 q0 8 11 18 q11 10 17.5 10 q6.5 0 121.5 -82 l6 -4 q25 76 41 170 l-6 0 l-183 -15 q-11 -1 -18.5 -2 q-7.5 -1 -20 -1 q-12.5 0 -24 12 q-11.5 12 -16.5 24.5 q-5 12.5 -6 14.5 q-1 2 -1 5 q25 -6 43 -6 l26 0 q6 0 14 1 l195 17 l4 0 q9 35 13 177 l0 6 q0 24 -7 45 q-7 21 -7 25 q0 4 9 4 q9 0 30.5 -7.5 q21.5 -7.5 31 -15 q9.5 -7.5 9.5 -18.5 l0 -2 q-5 -126 -17 -209 l195 17 l15 1 q16 0 29 -10 q13 -10 13 -19.5 q0 -9.5 -2.5 -17.5 q-2.5 -8 -3.5 -15 l-41 -408 q-2 -19 -2 -39.5 q0 -20.5 18 -33 q18 -12.5 72 -12.5 q91 0 113 28 ZM686 560 l0 0 ZM215 520 l-1 0 l1 0 Z" /><glyph glyph-name="u4E3A" unicode="&#x4e3a;" d="M399.5 606 q-12.5 -13 -17.5 -13 q-5 0 -28 23 q-23 23 -120 87 q-14 9 -14 16 q0 7 8.5 18 q8.5 11 15.5 11 q16 0 100 -60 q68 -46 68 -57.5 q0 -11.5 -12.5 -24.5 ZM638 307 q16 -15 34.5 -36.5 q18.5 -21.5 18.5 -30.5 q0 -9 -15 -23.5 q-15 -14.5 -24 -14.5 q-9 0 -17 11 q-52 71 -110 123 q-19 17 -19 25 q0 8 10.5 18.5 q10.5 10.5 19 10.5 q8.5 0 20.5 -10.5 q12 -10.5 38.5 -34.5 q26.5 -24 43.5 -38 ZM543 772 q-3 -115 -21 -224 l6 0 l280 15 l15 1 q15 0 29 -11 q14 -11 14 -20 q0 -9 -3 -15 q-3 -6 -4 -12 l0 -1 q-8 -172 -28.5 -298 q-20.5 -126 -30 -165 q-9.5 -39 -15 -64 q-5.5 -25 -22 -41 q-16.5 -16 -35.5 -16 q-19 0 -39 13 q-82 51 -141.5 103 q-59.5 52 -59.5 61 q0 9 6 9 q10 0 40 -17.5 q30 -17.5 99 -52.5 q69 -35 81 -35 q12 0 14 12 q61 215 71 493 l0 5 l-5 0 l-277 -14 l-4 0 l-1 -4 q-41 -192 -150 -336 q-85 -112 -188 -180 q-42 -29 -70.5 -41.5 q-28.5 -12.5 -34.5 -12.5 q-6 0 -6 4 q0 7 15 18 q185 128 279 306 q59 112 89 236 l1 6 l-6 0 l-204 -11 l-31 -1 l-8 0 q-16 4 -29.5 26 q-13.5 22 -13.5 27 q0 5 3.5 5 q3.5 0 15.5 -3 q12 -3 33 -3 l9 0 l239 10 l4 0 l1 4 q17 97 17 197 q0 29 -4 38.5 q-4 9.5 -4 14.5 q0 5 8.5 5 q8.5 0 24.5 -5 q41 -14 41 -26 ZM823 564 l0 0 Z" /><glyph glyph-name="u4E3B" unicode="&#x4e3b;" d="M606 699 q18 -10 18 -21 q0 -11 -9.5 -25 q-9.5 -14 -16 -14 q-6.5 0 -15.5 6 q-110 73 -224 121 q-14 6 -14 16 q0 10 6.5 19.5 q6.5 9.5 12.5 9.5 q27 0 146 -61 q64 -31 96 -51 ZM359 766 l0 0 ZM69 -8 q-10 21 -10 27 q0 6 2.5 6 q2.5 0 17.5 -3.5 q15 -3.5 37 -3.5 l8 0 l337 12 l5 0 l0 243 l-5 0 l-174 -8 l-25 -1 q-19 0 -28.5 8 q-9.5 8 -16.5 23.5 q-7 15.5 -7 20.5 q6 0 17.5 -3 q11.5 -3 30.5 -3 l8 0 l196 9 l5 0 l0 219 l-5 0 l-229 -12 l-31 -1 q-18 0 -24 4 q-21 14 -25 29.5 q-4 15.5 -5 18.5 l0 2 q5 0 15 -3 q10 -3 37 -3 l13 0 l524 30 q24 2 36 6 q12 4 17 4 q5 0 17 -8 q33 -22 33 -37 q0 -8 -20 -10 l-289 -16 l-5 0 l0 -220 l5 0 l173 8 l1 0 q27 3 34.5 6 q7.5 3 12 3 q4.5 0 16.5 -8 q12 -8 21 -18.5 q9 -10.5 9 -17 q0 -6.5 -17 -8.5 l-251 -11 l-5 0 l0 -244 l5 0 l304 11 q26 2 37.5 6 q11.5 4 15 4 q3.5 0 16.5 -9 q38 -24 38 -41 q0 -9 -19 -11 l-772 -28 l-34 -1 q-34 0 -47 29 ZM922 -8 l0 0 ZM781 287 l0 0 Z" /><glyph glyph-name="u4E3E" unicode="&#x4e3e;" d="M252 758 q11 -9 56.5 -63 q45.5 -54 45.5 -69 q0 -7 -14 -17.5 q-14 -10.5 -20.5 -10.5 q-6.5 0 -15.5 13 q-22 43 -87 119 q-5 7 -5 12 q0 5 10 13 q10 8 18 8 q8 0 12 -5 ZM217 730 l0 0 ZM473 756 q56 -86 56 -104 q0 -5 -13.5 -15 q-13.5 -10 -24 -10 q-10.5 0 -14.5 12 q-30 72 -72 133 q-5 7 -5 14 q0 5 12.5 11 q12.5 6 20 6 q7.5 0 17 -13 q9.5 -13 23.5 -34 ZM84 576 l0 5 l1 0 q29 -6 47 -6 l8 0 l436 20 l3 0 l1 2 q110 140 110 202 q0 6 4 6 q7 0 20 -8 q35 -24 36 -38 q-1 -7 -30 -49 q-29 -42 -91 -103 l-9 -10 l192 9 q23 1 34.5 5.5 q11.5 4.5 18.5 4.5 q7 0 26.5 -15 q19.5 -15 19.5 -27 q0 -6 -18 -8 l-248 -12 l-11 -1 l7 -7 q60 -69 144.5 -130 q84.5 -61 176.5 -106 q16 -7 16 -11 q-1 -3 -7 -11 q-21 -26 -39 -26 q-7 0 -17 6 q-204 118 -330 281 l-2 2 l-2 0 l-162 -8 l-3 0 l-1 -2 q-106 -145 -244 -236 q-55 -37 -91.5 -53.5 q-36.5 -16.5 -41.5 -16.5 q-5 0 -5 3 q0 5 19 18 q182 125 288 275 l6 8 l-10 0 l-177 -8 l-24 -1 q-19 0 -23 5 l-1 0 q-21 18 -26 40 l0 1 l-1 0 ZM714 797 l0 0 ZM171 151 l4 0 q36 -6 48 -6 l7 0 l236 8 l5 0 l0 5 l1 127 l0 5 l-5 0 l-124 -6 l-17 0 q-15 0 -27 6 q-11 6 -21 37 l-1 0 l0 1 q23 -6 44 -6 l15 0 l132 6 l5 0 l0 64 q0 39 -14 62 q-1 2 -2 5 l5 0 q9 0 28.5 -6 q19.5 -6 24.5 -12.5 q5 -6.5 5 -18.5 l0 -91 l5 0 l96 4 q22 1 36 4.5 q14 3.5 20 3.5 q6 0 23 -11.5 q17 -11.5 17 -21.5 q0 -8 -15 -10 l-177 -8 l-5 0 l0 -137 l5 0 l214 7 q17 1 32.5 4 q15.5 3 20 3 q4.5 0 14.5 -5 q26 -12 26 -26 q0 -11 -12 -13 l-296 -11 l-5 0 l0 -199 q0 -15 -12 -15 q-2 0 -13 4 q-29 11 -29 29 l0 5 q5 33 5 89 l0 85 l-5 0 l-228 -9 l-13 0 q-21 0 -32.5 7.5 q-11.5 7.5 -19.5 36.5 l0 1 l-1 0 l0 3 ZM343 284 l0 0 ZM494 -96 l0 0 ZM820 125 l-1 0 l1 0 ZM702 300 l0 0 Z" /><glyph glyph-name="u4E45" unicode="&#x4e45;" d="M413 717 q17 50 17 61 l0 14 q0 2 -1 10.5 q-1 8.5 6 8.5 q11 0 34.5 -14.5 q23.5 -14.5 23 -23.5 q-0.5 -9 -15 -53 q-14.5 -44 -54.5 -119 l-5 -8 l192 17 l1 0 q5 1 10 1 l9 0 q18 0 31 -10.5 q13 -10.5 13 -20.5 q0 -10 -4.5 -16.5 q-4.5 -6.5 -14.5 -36.5 q-10 -30 -37 -88 q-27 -58 -58 -104 l2 -3 q72 -114 169 -207.5 q97 -93.5 216 -153.5 l0 -1 q12 -5 13 -9 q-2 -5 -17.5 -22 q-15.5 -17 -27.5 -17 q-12 0 -39 16 q-73 45 -171 137 q-98 92 -170 209 l-4 6 l-4 -6 q-104 -145 -238 -244 q-106 -79 -192 -111 q-34 -13 -41.5 -13 q-7.5 0 -9.5 1 q0 6 19 18 q173 99 328 269 q155 170 208 354 l-211 -17 l-3 0 l-1 -2 q-52 -82 -103.5 -138.5 q-51.5 -56.5 -89 -85.5 q-37.5 -29 -42.5 -29 q-5 0 -6 1 q0 8 14 23 q120 123 202 289 q35 68 52 118 Z" /><glyph glyph-name="u4E48" unicode="&#x4e48;" d="M407 733 l0 4 q0 2 -1 8.5 q-1 6.5 5.5 6.5 q6.5 0 21 -7.5 q14.5 -7.5 26.5 -18.5 q12 -11 12 -17.5 q0 -6.5 -3 -11.5 q-70 -154 -174 -275.5 q-104 -121.5 -179 -175.5 q-29 -21 -35 -21 q-4 0 -4 6.5 q0 6.5 15 20.5 q130 131 223 283 q93 152 93 198 ZM135 26 q0 0 39 -2 l19 0 q6 0 13 1 l8 0 l2 2 q110 123 180 231 q70 108 120 218 q6 16 6 28 l0 16 q0 4 -1 9 l0 4 q0 7 6 7 q6 0 21 -8 q42 -21 42 -37 q0 -3 -1 -6 q-122 -246 -301 -449 l-8 -9 l12 1 q238 23 430 54 l8 1 q-46 65 -95 118 q-12 16 -12 21.5 q0 5.5 12 15.5 q13 10 19.5 10 q6.5 0 23 -18 q16.5 -18 75.5 -86.5 q59 -68.5 84 -105.5 q25 -37 36 -53.5 q11 -16.5 11 -26 q0 -9.5 -21 -21.5 q-23 -15 -37 8 q-58 91 -68 101 l-3 0 q-272 -50 -508 -77 q-39 -4 -50.5 -4 q-11.5 0 -20.5 2 q-16 3 -35 38 q-5 12 -6 17 ZM635 205 l0 0 Z" /><glyph glyph-name="u4E49" unicode="&#x4e49;" d="M575 615 q0 -9 -11.5 -19 q-11.5 -10 -18 -10 q-6.5 0 -12.5 8 q-63 77 -121 126 q-7 6 -7 11.5 q0 5.5 9 16 q9 10.5 18 10.5 q9 0 57 -46 q48 -46 67 -67 q19 -21 19 -30 ZM164 -22 q-47 -22 -80.5 -34 q-33.5 -12 -33.5 -7 l0 1 q0 12 21 23 q235 124 392 312 l3 3 l-3 3 q-99 117 -189 289 q-44 84 -44 96.5 q0 12.5 14.5 18 q14.5 5.5 22.5 5.5 q12 0 28 -39 q16 -39 75 -139 q59 -100 130 -189 l4 5 q71 97 126 219 q55 122 55 176 l0 9 q0 5 -0.5 9.5 q-0.5 4.5 0 5 q0.5 0.5 4.5 0.5 q4 0 20 -8 q44 -22 45 -44 q-11 -43 -51 -136 q-64 -152 -162 -276 l-3 -3 l3 -3 q114 -120 238 -195 q73 -43 167 -83 q13 -4 14 -10 q-2 -3 -10 -12 q-27 -31 -48 -31 q-3 0 -8 2 q-216 103 -387 283 l-4 4 l-4 -4 q-135 -159 -335 -251 Z" /><glyph glyph-name="u4E4B" unicode="&#x4e4b;" d="M79 142 q53 17 85 17 q32 0 47 -2 l2 0 l1 1 q162 87 280.5 175 q118.5 88 217.5 173 l12 10 l-473 -39 q-11 -1 -19 -2 q-8 -1 -13.5 -1 q-5.5 0 -14.5 2 q-19 4 -34 42 q-3 7 -3 12 l1 0 q5 0 16 -3 q11 -3 24 -3 l16 0 q4 0 9 1 l224 18 l5 0 l0 5 l-3 160 q0 24 -6.5 35.5 q-6.5 11.5 -6.5 17.5 q0 2 9.5 2 q9.5 0 30 -7 q20.5 -7 25 -11.5 q4.5 -4.5 4.5 -14.5 l0 -182 l5 0 l216 18 l1 0 q6 1 12 1 l10 0 q18 0 32.5 -13 q14.5 -13 14.5 -23.5 q0 -10.5 -5.5 -16 q-5.5 -5.5 -9.5 -10.5 q-219 -199 -496 -357 l-10 -5 l10 -4 q151 -55 311.5 -94.5 q160.5 -39.5 332.5 -43.5 q15 -1 17 -4 l-5 -14 q-15 -41 -38 -41 l-9 0 q-312 27 -608 145 q-56 21 -107 21 q-51 0 -94 -16 l0 -1 q-5 -2 -13 -2 q-8 0 -15 12.5 q-7 12.5 -7 21.5 q0 14 19 20 ZM904 -59 l0 0 ZM791 504 l-1 0 l1 0 Z" /><glyph glyph-name="u4E4C" unicode="&#x4e4c;" d="M158 92 q-15 -2 -30 -2 q-15 0 -29.5 7.5 q-14.5 7.5 -26.5 43.5 l-1 0 q0 2 0 4 q5 0 18 -3.5 q13 -3.5 35 -3.5 l8 0 l462 28 q21 1 31.5 5.5 q10.5 4.5 16 4.5 q5.5 0 26.5 -16 q21 -16 21 -29 q0 -7 -18 -9 l-512 -30 l-1 0 ZM880 315 l-5 -23 l0 -1 q-20 -328 -75 -369 q-22 -17 -35.5 -17 q-13.5 0 -40.5 13 q-59 26 -106 66 q-19 16 -19 20 q0 4 6 4 q6 0 38.5 -12.5 q32.5 -12.5 111.5 -28.5 l1 0 q9 0 12 9 q42 86 55 316 l0 5 l-5 0 l-519 -21 l-5 0 l0 -17 q0 -14 -9 -14 q-4 0 -16 5 q-32 11 -32 29 l0 5 q5 48 5 57 l5 266 q0 44 -5.5 61.5 q-5.5 17.5 -5.5 23 q0 5.5 12 5.5 q12 0 61 -20 l2 0 l67 4 l2 0 l2 2 q57 68 63 100 q4 15 4 25 q0 10 4.5 10 q4.5 0 19.5 -8 q40 -18 41 -31 q-2 -6 -27 -36 q-25 -30 -45 -49 l-9 -10 l238 14 l6 0 q14 0 27 -8 q13 -8 13 -17.5 q0 -9.5 -3 -16 q-3 -6.5 -11 -40.5 q-8 -34 -35 -131 q-13 -74 -32.5 -89.5 q-19.5 -15.5 -30.5 -14.5 q-26 2 -75.5 49.5 q-49.5 47.5 -50.5 62.5 l2 0 q10 0 28 -10 q75 -44 85.5 -44.5 q10.5 -0.5 14.5 7.5 l2 7 l-2 0 l13 50 q0 8 2 10 l33 133 l1 6 l-6 0 l-350 -22 l-5 0 l0 -5 l-3 -298 l0 -5 l5 0 l538 25 l1 0 l6 1 q16 0 26 -13 q10 -13 10 -20 ZM671 698 l0 0 Z" /><glyph glyph-name="u4E4E" unicode="&#x4e4e;" d="M446 657 q-147 -29 -271 -35 l-7 0 q-28 0 -28 6 q0 6 61.5 17.5 q61.5 11.5 159.5 35.5 q317 74 346 114 q4 4 10 4 q6 0 22 -17.5 q16 -17.5 16 -31.5 q0 -14 -13 -17 q-143 -45 -245 -65 l1 -5 q33 -137 46 -326 l0 -5 l5 0 l300 17 q27 2 41.5 6.5 q14.5 4.5 21.5 4.5 q7 0 19 -8 q32 -21 32 -37 q0 -8 -21 -10 l-389 -21 l-5 0 l0 -5 q4 -70 4 -109 q0 -190 -20 -232 l-1 0 q-15 -34 -36 -34 q-21 0 -84.5 37 q-63.5 37 -100.5 66.5 q-37 29.5 -37 41.5 q0 3 6 3 q6 0 58 -25.5 q52 -25.5 129 -48.5 l5 0 q10 0 11 10 q15 60 15 193 q0 46 -2 94 l0 5 l-5 0 l-368 -20 q-20 -2 -35 -2 q-15 0 -26.5 11.5 q-11.5 11.5 -16.5 25 q-5 13.5 -5 17.5 q6 0 16 -2.5 q10 -2.5 33 -2.5 l12 0 l387 22 l5 0 l0 5 q-11 190 -45 318 l-1 5 ZM712 482 q-72 -89 -113 -105 q-3 -2 -5 -2 q2 8 26.5 43 q24.5 35 67.5 109.5 q43 74.5 43 110.5 q0 13 7 13 q11 0 23 -7 q34 -21 34 -36 q0 -2 -24 -42.5 q-24 -40.5 -59 -83.5 ZM376.5 389.5 q-12.5 -12.5 -19.5 -12.5 q-7 0 -10.5 3.5 q-3.5 3.5 -9.5 11.5 q-39 61 -117 147 q-9 11 -9 17.5 q0 6.5 10 15.5 q11 9 17 9 q18 0 84.5 -80 q66.5 -80 66.5 -89.5 q0 -9.5 -12.5 -22 ZM337 392 l0 0 Z" /><glyph glyph-name="u4E50" unicode="&#x4e50;" d="M863 14 l-5 0 q-3 2 -9 10 q-94 110 -195 201 q-6 5 -6 10 l0 5 q2 4 13 15.5 q11 11.5 17 11 q6 -0.5 36 -25 q30 -24.5 94.5 -87.5 q64.5 -63 79 -78.5 q14.5 -15.5 14 -24.5 q-0.5 -9 -17 -23 q-16.5 -14 -21.5 -14 ZM91 -17 q3 6 14 16 q148 130 185 210 q15 32 15.5 40 q0.5 8 1.5 10 q19 -1 50 -32 q12 -11 12.5 -15.5 q0.5 -4.5 -4.5 -13.5 q-95 -118 -235 -197 q-29 -16 -39 -18 ZM541 -47 q0 -15 -11 -29.5 q-11 -14.5 -25.5 -14.5 q-14.5 0 -48.5 15 q-34 15 -81.5 48.5 q-47.5 33.5 -47.5 43.5 q1 1 7.5 1 q6.5 0 54 -18.5 q47.5 -18.5 96.5 -26.5 l0 6 l-2 353 l0 5 l-5 0 l-275 -12 l-1 1 q-24 8 -24 33 q0 7 2 16 q38 114 55 246 l0 1 q0 33 -5.5 49.5 q-5.5 16.5 -5.5 25.5 q0 4 13 4 q13 0 63 -24 l1 -1 l2 0 q114 12 240 49 q126 37 163 68 l1 0 q1 2 4.5 2 q3.5 0 11.5 -9 l1 0 q25 -22 25 -37 q0 -15 -12 -19 q-225 -79 -437 -94 l-4 0 l-1 -4 q-19 -147 -57 -251 l-2 -7 l7 0 l234 12 l5 0 l0 144 q0 24 -8.5 37.5 q-8.5 13.5 -8.5 17.5 q0 4 15 4 q15 0 44 -13 q13 -5 13 -16 l0 -170 l5 0 l228 13 q33 3 41.5 6.5 q8.5 3.5 12.5 3 q4 -0.5 16 -8.5 q36 -24 36 -38 q0 -7 -21 -9 l-314 -16 l-5 0 l0 -5 l4 -352 l1 -30 ZM855 356 l-1 0 l1 0 Z" /><glyph glyph-name="u4E58" unicode="&#x4e58;" d="M472 684 q-142 -24 -253 -30 l-8 0 q-23 0 -23 5 q0 9 28 14 q286 50 463 113 q16 7 25.5 19 q9.5 12 14 12 q4.5 0 14 -12 q9.5 -12 16 -28 q6.5 -16 6.5 -21.5 q0 -5.5 -3 -9.5 q-9 -8 -225 -51 l-4 -1 l0 -100 l5 0 l263 15 q31 1 47 6 q16 5 21.5 5 q5.5 0 15.5 -6 q31 -19 31 -34 q0 -7 -18 -9 l-360 -20 l-5 0 l0 -242 l1 -2 q133 -130 268 -203 q72 -39 159 -72 q11 -4 11 -10.5 q0 -6.5 -34 -31.5 q-8 -7 -13 -7 q-5 0 -38.5 14 q-33.5 14 -88.5 45 q-135 77 -255 202 l-9 9 l0 -332 q0 -20 -13.5 -20 q-13.5 0 -31.5 12 q-18 12 -18 28 q0 4 4 24 q5 20 5 49 l1 216 l0 13 l-9 -10 q-157 -168 -360 -246 q-51 -19 -51 -12 q0 10 26 25 q86 50 187 124.5 q101 74.5 206 186.5 l1 1 l0 2 l1 228 l0 5 l-5 0 l-283 -15 l-21 -1 q-35 0 -51 27 q-5 12 -8 22 q4 0 11.5 -3 q7.5 -3 33.5 -3 l13 0 l305 17 l5 0 l0 93 ZM112 558 l1 0 q-1 0 -1 0 ZM163 531 l0 0 ZM888 571 l-1 0 l1 0 ZM219 654 l0 0 ZM742 290 q86 0 124 22 q5 3 9 3 q4 0 13 -5 q27 -12 27 -25.5 q0 -13.5 -17 -19.5 q-48 -20 -142 -20 q-45 0 -71 5 q-26 5 -39.5 22.5 q-13.5 17.5 -13.5 56.5 l0 159 q0 23 -5.5 32.5 q-5.5 9.5 -6.5 12.5 q1 1 9 1 q8 0 32 -6 q24 -6 24 -18 l-1 -98 l0 -7 q20 6 69 31.5 q49 25.5 61 51.5 q5 9 9.5 9 q4.5 0 10.5 -9 q13 -26 13 -39.5 q0 -13.5 -8 -18.5 q-65 -33 -155 -63 l0 -38 q0 -22 10 -30 q10 -8 34 -9 l14 0 ZM834 488 l0 -1 l0 1 ZM651 531 l0 0 ZM150 198 q-16 0 -40 47 q0 2 7 2 l4 0 q25 0 90.5 17.5 q65.5 17.5 96.5 29.5 l3 2 l0 3 l-2 80 l0 5 l-5 0 l-98 -7 l-1 0 q-5 -1 -9 -1 l-10 0 q-13 0 -23 9 q-22 18 -22 37 l0 1 l3 0 l41 -6 l9 0 l110 4 l5 0 l0 5 l-1 33 q0 23 -9 35.5 q-9 12.5 -10 16.5 l3 0 q7 0 22 -2 q43 -4 43 -22 l2 -168 l0 -8 q58 25 62.5 25 q4.5 0 5.5 -1 q0 -10 -43 -35 q-92 -54 -159 -78 q-67 -24 -75 -24 Z" /><glyph glyph-name="u4E5D" unicode="&#x4e5d;" d="M247.5 47 q-46.5 -40 -88 -65 q-41.5 -25 -69.5 -36.5 q-28 -11.5 -34 -11.5 q-6 0 -6 2 q0 6 20 20 q111 75 178 156 q117 143 157 352 l1 7 l-187 -17 q-11 -1 -18.5 -2 q-7.5 -1 -20 -1 q-12.5 0 -24 12 q-11.5 12 -16.5 24.5 q-5 12.5 -6 14.5 q-1 2 -1 5 q25 -6 43 -6 l26 0 q6 0 14 1 l195 18 l4 0 l1 4 q13 89 16 190 l0 6 q0 24 -7 45 q-7 21 -7 25 q0 4 9 4 q9 0 30.5 -7.5 q21.5 -7.5 31 -15 q9.5 -7.5 9.5 -18.5 l0 -2 q-4 -105 -21 -225 l196 19 l15 1 q16 0 29 -10 q13 -10 13 -19.5 q0 -9.5 -2.5 -17.5 q-2.5 -8 -3.5 -15 l-41 -389 q-2 -19 -2 -33.5 q0 -14.5 7 -26.5 q13 -25 76 -25 q63 0 87 6.5 q24 6.5 34 21 q10 14.5 24.5 53.5 q14.5 39 22.5 90.5 q8 51.5 16 51.5 q10 0 10 -46 l0 -20 q0 -79 -8 -122.5 q-8 -43.5 -27.5 -62 q-19.5 -18.5 -55.5 -23.5 q-36 -5 -108.5 -5 q-72.5 0 -104.5 23 q-30 23 -30 75 l0 12 q0 7 1 13 l41 412 l1 6 l-194 -18 l-4 0 l-1 -4 q-23 -118 -54.5 -194.5 q-31.5 -76.5 -75.5 -134 q-44 -57.5 -90.5 -97.5 ZM688 546 l0 0 ZM216 502 l-1 0 l1 0 Z" /><glyph glyph-name="u4E5F" unicode="&#x4e5f;" d="M936 259 q15 0 15 -125 q0 -46 -2.5 -73.5 q-2.5 -27.5 -13.5 -46.5 q-24 -39 -112 -50 q-133 -17 -218 -17 q-234 0 -300 28 q-64 26 -64 127 l0 3 l2 274 l0 7 l-115 -41 q-13 -4 -22 -7.5 q-9 -3.5 -14 -3.5 q-24 0 -50 30 q-2 4 -1.5 6 q0.5 2 16 3.5 q15.5 1.5 48.5 12.5 l135 50 l3 2 l0 3 l1 121 q0 37 -16 68 q-2 6 -2 10 q0 0 7 0 q5 0 30 -7.5 q25 -7.5 30 -14 q5 -6.5 5 -18.5 l-1 -136 l0 -7 l178 65 l3 2 l0 3 l1 199 q0 36 -15 63 l0 1 q-2 3 -2 6 q3 1 11 1 q8 0 26 -7 q18 -7 25 -13 q7 -6 7 -20 l-1 -207 l0 -7 l206 74 q8 4 21.5 4 q13.5 0 25.5 -8 q12 -8 12 -22 l-5 -30 l0 -1 q-3 -214 -29 -341 q-5 -23 -23 -39 q-18 -16 -32 -16 q-26 0 -82.5 55 q-56.5 55 -56.5 72 q0 3 4.5 3 q4.5 0 34 -18 q29.5 -18 57.5 -31.5 q28 -13.5 32 -13.5 q12 0 14 15 q27 125 27 283 l0 34 l-203 -72 l-3 -1 l0 -4 l-2 -367 q0 -17 -11 -17 q-17 0 -32.5 14.5 q-15.5 14.5 -15.5 22 q0 7.5 3.5 24 q3.5 16.5 3.5 61.5 l1 239 l0 7 l-177 -63 l-3 -1 l0 -4 l-2 -281 l0 -6 q0 -41 9 -63 q9 -22 32 -30 q44 -17 114.5 -20.5 q70.5 -3.5 155.5 -3.5 q85 0 196 18 q65 11 82 38 q24 37 39 170 q4 35 13 35 ZM128 345 l1 0 q-1 0 -1 0 Z" /><glyph glyph-name="u4E60" unicode="&#x4e60;" d="M647 340 q0 -25 -239 -168 q-143 -86 -171 -89 q-10 -2 -39.5 19.5 q-29.5 21.5 -31.5 32.5 q0 1 0 2 q0 1 2.5 1.5 q2.5 0.5 33.5 6.5 q31 6 70.5 22 q39.5 16 148 65.5 q108.5 49.5 163 80.5 q54.5 31 63.5 27 ZM285 514 q-19 12 -19 21.5 q0 9.5 11 21 q11 11.5 19 11.5 q8 0 56 -21 q48 -21 177 -98 q22 -14 22 -24.5 q0 -10.5 -12 -28 q-12 -17.5 -22 -17.5 q-10 0 -41 23 q-31 23 -191 112 ZM836 671 q-3 -305 -47 -568 q-21 -131 -32 -153 q-23 -47 -49 -47 q-15 0 -26.5 4 q-11.5 4 -43.5 25 q-32 21 -156 128 q-15 12 -15 19 q0 7 8 7 q8 0 37.5 -18.5 q29.5 -18.5 95 -54.5 q65.5 -36 81.5 -36 l2 0 q8 8 9 12 q71 253 78 686 l0 5 l-5 0 l-542 -26 l-1 0 q-15 -2 -33 -2 q-18 0 -35 25 q-12 16 -12 21.5 q0 5.5 1 6.5 q5 0 13.5 -2.5 q8.5 -2.5 28.5 -2.5 l591 30 l16 1 q15 0 29 -11 q14 -11 14 -20.5 q0 -9.5 -3.5 -16 q-3.5 -6.5 -3.5 -12.5 ZM800 731 l0 0 Z" /><glyph glyph-name="u4E66" unicode="&#x4e66;" d="M863 614.5 q1 -8.5 -11 -22.5 q-12 -14 -21 -14 q-9 0 -54 50 q-45 50 -72 72 q-27 22 -27 29.5 q0 7.5 10 18.5 q10 11 16 11 q6 0 39 -25 q33 -25 76 -68 q43 -43 44 -51.5 ZM204 601 q0 1 2 1 l3 0 q28 -9 50 -9 l5 0 l160 10 l0 143 q0 30 -8 40 q-8 10 -9 14 q3 1 11.5 1 q8.5 0 31 -6 q22.5 -6 27.5 -10.5 q5 -4.5 5 -14.5 l0 -163 l194 12 l9 0 q24 0 33.5 -11.5 q9.5 -11.5 9.5 -17 q0 -5.5 -3.5 -11 q-3.5 -5.5 -4.5 -14.5 l-27 -192 l138 8 q3 1 6 1 l6 0 q27 0 38.5 -12 q11.5 -12 11.5 -17.5 q0 -5.5 -2 -11 q-2 -5.5 -8.5 -73.5 q-6.5 -68 -20.5 -139 q-14 -71 -37.5 -92 q-23.5 -21 -35.5 -21 q-25 0 -88 49 q-63 49 -63 72 q0 3 8 3 q8 0 62 -27.5 q54 -27.5 66.5 -27.5 q12.5 0 19.5 15 q22 56 35 231 l-347 -21 l1 -391 q0 -21 -10.5 -21 q-10.5 0 -33.5 13.5 q-23 13.5 -23 24.5 l0 10 q0 3 4 23 q4 20 4 43 l0 294 l-255 -15 q-6 -1 -13 -1 l-12 0 q-20 0 -28 6 q-20 18 -29 53 q4 -1 13 -4 q9 -3 36 -3 l12 0 l276 16 l0 196 l-41 -2 l-96 -7 q-6 -1 -14 -1 l-14 0 q-25 0 -31 8 q-17 21 -24 49 ZM676 619 l0 0 ZM638 370 l26 198 l-182 -10 l0 -196 l156 8 Z" /><glyph glyph-name="u4E70" unicode="&#x4e70;" d="M447 173 l-301 -13 q-11 0 -29 7 q-16 7 -28 43 q-1 3 -2 5 q5 -1 14.5 -4.5 q9.5 -3.5 37.5 -3.5 l10 0 l329 15 l3 0 l2 3 q30 73 46 201 q3 30 3 75 l0 18 q0 34 -18 59 q-2 3 -2 9 q0 6 9 6 q32 0 59 -13 q13 -7 13 -26 q-2 -88 -16 -180 q-14 -92 -33 -142 l-2 -7 l7 0 l254 12 q24 2 35 6.5 q11 4.5 14.5 4.5 q3.5 0 14.5 -7 q35 -22 35 -39 q0 -8 -18 -10 l-361 -16 l-3 0 l-1 -3 q-60 -106 -185 -176 q-102 -55 -204 -80 q-33 -7 -37 -8 q-4 0 -4 6 q0 12 21 19 q131 49 232 122 q69 50 109 109 l6 8 l-10 0 ZM884 192 l-1 0 l1 0 ZM105 691 l0 3 q5 0 13.5 -3 q8.5 -3 44.5 -3 l646 42 l1 0 q4 1 9 1 l9 0 q18 0 29 -10 q11 -10 11 -15 l0 -5 q0 -20 -93 -135 q-46 -57 -62 -57 q-2 0 -2 7 q0 7 32.5 61 q32.5 54 46.5 103 l-7 0 l-617 -39 q-24 -1 -36.5 8.5 q-12.5 9.5 -23.5 41.5 l-1 0 ZM361 331 q20 -12 20 -22 q0 -10 -11.5 -23 q-11.5 -13 -18.5 -12.5 q-7 0.5 -56.5 31.5 q-49.5 31 -131.5 69 q-12 7 -12 14 q0 7 7.5 18.5 q7.5 11.5 15.5 11.5 q8 0 62.5 -23 q54.5 -23 124.5 -64 ZM163 374 l0 1 l0 -1 ZM455 456 q-3 -18 -14 -29 q-11 -11 -17.5 -10 q-6.5 1 -49.5 36.5 q-43 35.5 -117 78.5 q-11 7 -10 14 q1 7 8.5 18.5 q7.5 11.5 15 10.5 q7.5 -1 61 -31.5 q53.5 -30.5 106.5 -70.5 q18 -12 17 -17 ZM257 532 l0 0 ZM862 -43 q0 -10 -12 -23.5 q-12 -13.5 -21 -13.5 q-9 0 -18 10 l-1 0 q-55 41 -113.5 80.5 q-58.5 39.5 -134.5 73.5 q-7 6 -7 10 q0 4 4 12 q9 22 22 22 q7 0 51 -21 q98 -46 219 -132 q11 -8 11 -18 Z" /><glyph glyph-name="u4E71" unicode="&#x4e71;" d="M942 243 q15 0 15 -137 q0 -44 -3.5 -73.5 q-3.5 -29.5 -19.5 -47.5 q-29 -34 -158 -34 q-61 0 -84 13.5 q-23 13.5 -34 38.5 q-11 25 -11 70 l3 655 q0 31 -14 55 l0 1 q-1 2 -1 4 q0 2 7 2 q7 0 23 -5 q40 -12 40 -27 l-3 -677 q0 -28 5 -44 q10 -30 80.5 -30 q70.5 0 97.5 17 q20 14 29 66 q9 52 15 102.5 q6 50.5 13 50.5 ZM206 267 l2 0 l83 7 l5 0 l0 5 l1 153 l0 5 l-5 0 l-183 -11 l-13 -1 q-36 0 -49 48 l30 -4 l1 0 l26 1 l189 13 l5 0 l0 5 l1 140 l0 7 l-6 -2 q-130 -40 -166 -40 q-11 0 -11 3 q0 8 29 18 q155 52 274 132 q22 15 30 28.5 q8 13.5 13 13.5 q5 -1 20.5 -23 q15.5 -22 15.5 -41 q0 -3 -5 -8 q-81 -40 -139 -62 l-3 -2 l0 -3 l-2 -157 l0 -5 l5 0 l151 9 q37 3 45.5 6 q8.5 3 13 3 q4.5 0 22 -13 q17.5 -13 17.5 -26 q0 -10 -21 -12 l-228 -14 l-5 0 l0 -5 l-2 -153 l0 -5 l5 0 l112 6 l13 1 q10 0 25 -11 q15 -11 15 -20 q0 -9 -3.5 -14 q-3.5 -5 -4.5 -13 l-26 -185 l0 -2 q1 -2 14 -20 q13 -18 13 -22.5 q0 -4.5 -5.5 -5 q-5.5 -0.5 -19.5 -1.5 l-254 -4 l-5 0 l0 -5 l3 -37 l0 -5 q0 -16 -11 -16 q-17 0 -41 17 q-10 8 -10 17 l4 44 l0 11 q0 6 -1 14 l-17 187 q-2 34 -10 51.5 q-8 17.5 -8 20 q0 2.5 9.5 2.5 q9.5 0 61.5 -20 ZM96 425 l0 0 ZM170 26 l0 -1 l0 1 ZM229 -56 l0 0 ZM485 -10 l0 0 ZM446 233 l-237 -11 l-5 0 l0 -5 l17 -180 l0 -5 l5 0 l200 4 l5 0 l0 4 l20 187 l1 6 l-6 0 Z" /><glyph glyph-name="u4E86" unicode="&#x4e86;" d="M518 461 q40 -120 40 -352 l-1 -49 q0 -104 -25 -143 q-11 -16 -26 -16 q-45 0 -167 97 q-67 55 -67 72 q1 1 6.5 1 q5.5 0 59 -31.5 q53.5 -31.5 138.5 -63.5 l5 0 q10 0 11 12 q11 73 11 152 q0 253 -57 351 q-8 13 -8 20 q0 7 10 15 q11 8 24 8 q13 0 25 -23 l2 -6 l5 4 q104 77 192 181 l7 9 l-443 -29 q-20 -2 -33 -2 q-13 0 -22 8 q-26 25 -26 45 l0 1 l1 0 q4 0 13 -2.5 q9 -2.5 29 -2.5 l517 33 l12 0 q16 0 31 -12 q15 -12 15 -20.5 q0 -8.5 -6 -13.5 q-9 -6 -15 -12 q-129 -137 -255 -229 l-3 -2 ZM739 750 l0 0 Z" /><glyph glyph-name="u4E89" unicode="&#x4e89;" d="M186 218 q24 -6 46 -6 l229 9 l5 0 l0 5 l-1 103 l0 5 l-5 0 l-337 -14 l-1 0 q-6 -1 -12 -1 l-11 0 q-21 0 -31.5 11 q-10.5 11 -13.5 23 l0 1 l-3 9 l34 -4 l1 0 l374 16 l5 0 l0 5 l-1 95 l0 5 l-5 0 l-175 -8 l-18 0 q-41 0 -52 43 q5 0 15 -2.5 q10 -2.5 35 -2.5 l15 0 l190 9 l2 0 l1 1 q76 64 132 133 l7 9 l-254 -14 l-2 0 l-1 -1 q-119 -108 -220 -167 q-37 -22 -43 -22 q-6 0 -6 4 q0 7 20 22 q154 118 284 283 q12 15 13 33.5 q1 18.5 8 18.5 q16 0 37.5 -20.5 q21.5 -20.5 21.5 -25.5 q0 -5 -16 -25.5 q-16 -20.5 -44 -45.5 l-11 -10 l241 14 l8 0 q16 0 31 -11.5 q15 -11.5 14.5 -21 q-0.5 -9.5 -53.5 -60.5 q-54 -54 -89 -81 l-13 -10 l212 10 l2 0 q2 1 4 1 l5 0 q20 0 31 -12.5 q11 -12.5 11 -17.5 q0 -5 -2.5 -9 q-2.5 -4 -3.5 -10 l-11 -90 l-1 -6 l6 0 l52 3 q34 2 45.5 5.5 q11.5 3.5 17 3.5 q5.5 0 16.5 -5 q30 -15 30 -31 q0 -9 -25 -11 l-143 -6 l-4 0 l-14 -108 l0 -3 l2 -2 q24 -21 24 -32 q0 -8 -23 -10 l-243 -10 l-5 0 l0 -5 l2 -201 l2 -30 q0 -11 -11 -24.5 q-11 -13.5 -23.5 -13.5 q-12.5 0 -51 17.5 q-38.5 17.5 -89.5 54.5 q-51 37 -52 49 q2 1 10.5 1 q8.5 0 49 -18.5 q40.5 -18.5 104.5 -34.5 l6 -1 l0 6 l-1 193 l0 5 l-5 0 l-207 -9 l-14 0 q-44 0 -54 47 ZM639 706 l0 0 ZM284 472 l0 0 ZM732 492 l-210 -9 l-5 0 l0 -5 l1 -96 l0 -5 l5 0 l200 9 l5 0 l0 5 l9 96 l1 5 l-6 0 ZM718 344 l-194 -7 l-5 0 l0 -5 l1 -104 l0 -5 l5 0 l183 7 l5 0 l0 5 l10 104 l1 5 l-6 0 Z" /><glyph glyph-name="u4E8B" unicode="&#x4e8b;" d="M764 599 q12 -7 12 -13.5 q0 -6.5 -10 -23.5 l0 -1 l-16 -63 l-1 -3 l3 -2 q23 -22 23 -28 q0 -6 -7.5 -7 q-7.5 -1 -16.5 -2 l-232 -11 l-5 0 l0 -68 l5 0 l222 13 l11 1 q9 0 24 -8.5 q15 -8.5 15 -19.5 q0 -11 -3.5 -16.5 q-3.5 -5.5 -4.5 -12.5 l-8 -44 l-1 -6 l6 0 l76 3 q16 1 35.5 7.5 q19.5 6.5 24 6.5 q4.5 0 15.5 -7 q31 -19 31 -32 q0 -7 -22 -9 l-168 -7 l-4 0 l-12 -69 l0 -3 q24 -24 24 -30.5 q0 -6.5 -6 -8 q-6 -1.5 -16 -2.5 l-238 -10 l-5 0 l0 -112 l2 -46 q0 -31 -17.5 -48 q-17.5 -17 -31.5 -17 q-37 0 -120 67 q-44 36 -44.5 43 q-0.5 7 4.5 7 q10 0 56.5 -21.5 q46.5 -21.5 99.5 -30.5 l0 156 l-5 0 l-190 -8 l-27 -1 q-32 0 -46 38 l-1 0 q-1 4 -2 7 q4 -1 11 -3.5 q7 -2.5 32 -2.5 l12 0 l211 8 l5 0 l0 73 l-5 0 l-339 -15 l-7 0 q-12 0 -30 5 q-16 5 -25 35 l0 1 l-1 0 l0 3 q5 0 16 -3 q11 -3 26 -3 l8 0 l352 15 l5 0 l0 65 l-5 0 l-199 -10 l-14 0 q-25 0 -37 10.5 q-12 10.5 -15 19.5 l-4 12 l41 -6 l1 0 l226 13 l5 0 l0 68 l-5 0 l-176 -8 l-6 0 l2 -13 l0 -4 q0 -8 -12 -8 l-11 2 l-1 0 q-29 3 -29 21 l0 34 q0 6 -1 12 l-7 53 q-2 31 -12 45.5 q-10 14.5 -11 19.5 q3 1 13.5 1 q10.5 0 59.5 -18 l2 0 l189 11 l5 0 l0 68 l-5 0 l-284 -16 l-1 0 q-6 -1 -12 -1 l-11 0 q-21 0 -32.5 11 q-11.5 11 -15.5 22 l-4 13 q5 0 16 -3 q11 -3 33 -3 l9 0 l302 18 l5 0 l0 55 q0 33 -16 53 q-1 2 -2 4 q2 1 9 1 q7 0 27.5 -5.5 q20.5 -5.5 26 -13.5 q5.5 -8 5.5 -20 l0 -70 l5 0 l255 15 q18 1 33.5 6.5 q15.5 5.5 21 5.5 q5.5 0 26 -15 q20.5 -15 20.5 -27 q0 -6 -17 -8 l-339 -19 l-5 0 l0 -68 l5 0 l205 12 l16 1 q11 0 25 -7 ZM751 456 l0 0 ZM739 606 l0 0 ZM857 680 l-1 0 l1 0 ZM217 531 l0 1 l0 -1 ZM224 478 l0 0 ZM260 325 l0 0 ZM758 133 l0 0 ZM709 570 l-190 -11 l-5 0 l0 -79 l5 0 l178 9 l4 0 l14 81 l-6 0 ZM458 556 l-189 -11 l-6 0 l9 -73 l1 -4 l4 0 l181 9 l5 0 l0 79 l-5 0 ZM727 349 l-208 -11 l-5 0 l0 -65 l5 0 l200 8 l4 0 l9 62 l1 6 l-6 0 ZM713 243 l-194 -9 l-5 0 l0 -5 l1 -63 l0 -5 l5 0 l184 7 l4 0 l10 69 l1 6 l-6 0 Z" /><glyph glyph-name="u4E8C" unicode="&#x4e8c;" d="M270 540 q-7 -1 -14 -1 l-16 0 q-20 0 -29.5 7.5 q-9.5 7.5 -17 24.5 q-7.5 17 -7.5 23 l0 3 l2 0 q2 0 12.5 -3 q10.5 -3 37.5 -3 l13 0 l421 25 q22 2 35 6.5 q13 4.5 18 4.5 q5 0 17 -8 q34 -22 34 -41 q0 -9 -21 -11 l-484 -27 l-1 0 ZM108 130 l713 30 q28 2 42.5 6.5 q14.5 4.5 20 4.5 q5.5 0 19.5 -8.5 q14 -8.5 25 -20.5 q11 -12 11 -20 q0 -11 -20 -13 l-767 -32 q-10 -1 -18 -1 l-14 0 q-22 0 -28.5 5 q-6.5 5 -20.5 21 q-14 16 -14 23.5 q0 7.5 1 10.5 q5 0 15.5 -3 q10.5 -3 34.5 -3 Z" /><glyph glyph-name="u4E8E" unicode="&#x4e8e;" d="M148 380 l-26 -1 q-20 0 -29 6 q-18 16 -23.5 31.5 q-5.5 15.5 -5.5 20.5 q3 0 13 -3.5 q10 -3.5 37 -3.5 l12 0 l354 17 l5 0 l0 5 l-2 222 l0 5 l-5 0 l-191 -11 l-1 0 q-6 -1 -13 -1 l-12 0 q-19 0 -25 5 q-33 24 -33 50 l0 1 l1 0 q2 0 12 -3.5 q10 -3.5 37 -3.5 l12 0 l435 26 q24 1 34 5 q10 4 16.5 4 q6.5 0 20 -9.5 q13.5 -9.5 23 -20.5 q9.5 -11 9.5 -15 q0 -7 -21 -9 l-232 -14 l-5 0 l0 -5 l1 -222 l0 -5 l5 0 l279 13 q24 1 34 5 q10 4 16.5 4 q6.5 0 20 -9 q13.5 -9 23 -20 q9.5 -11 9.5 -16 q0 -9 -21 -11 l-361 -17 l-5 0 l0 -5 l2 -394 l2 -36 q0 -3 -4 -16 q-11 -35 -35 -35 q-46 0 -165 84 q-69 49 -69 63 q0 4 7 4 q7 0 18 -5 q107 -56 186 -69 l0 6 l-3 394 l0 5 l-5 0 l-332 -16 Z" /><glyph glyph-name="u4E8F" unicode="&#x4e8f;" d="M590 -25 l4 0 q11 0 16.5 11 q5.5 11 43.5 114 q19 52 29 131 l1 6 l-6 0 l-308 -14 q-13 -1 -21 -3.5 q-8 -2.5 -13 -2.5 q-5 0 -14 3 q-25 9 -25 26 q0 7 3 13 l81 173 l3 7 l-8 0 l-218 -10 l-1 0 q-7 -1 -13 -1 l-12 0 q-21 0 -27.5 6.5 q-6.5 6.5 -15 20.5 q-8.5 14 -8.5 19 l0 6 q5 0 16.5 -3 q11.5 -3 36.5 -3 l9 0 l687 32 q26 1 43 5.5 q17 4.5 22 4.5 q5 0 15 -8 q10 -8 17 -18.5 q7 -10.5 7 -16.5 q0 -6 -10 -8 l-2 0 l-477 -23 l-3 0 l-77 -166 l-3 -7 l8 0 l322 14 l8 0 q15 0 31 -8.5 q16 -8.5 16 -20 q0 -11.5 -4 -21 q-4 -9.5 -7 -32.5 q-3 -23 -27 -105.5 q-24 -82.5 -41 -123.5 q-26 -66 -67 -66 q-22 0 -72.5 31.5 q-50.5 31.5 -80.5 54 q-30 22.5 -47 39.5 q-17 17 -17 21.5 q0 4.5 9.5 4.5 q9.5 0 68.5 -31 q59 -31 128 -51 ZM322 220 l-1 0 l1 0 ZM219 698 q31 -5 44 -5 l13 0 l398 22 q37 3 48.5 9 q11.5 6 19 6 q7.5 0 20.5 -8.5 q13 -8.5 22 -19.5 q9 -11 9 -17 q0 -10 -21 -12 l-472 -26 l-1 0 q-4 -1 -9 -1 l-10 0 q-25 0 -33.5 7 q-8.5 7 -18 22 q-9.5 15 -9.5 18 l0 5 Z" /><glyph glyph-name="u4E91" unicode="&#x4e91;" d="M687 698 l1 0 q26 3 34 6.5 q8 3.5 12.5 3.5 q4.5 0 16.5 -7.5 q12 -7.5 21.5 -18 q9.5 -10.5 9.5 -17 q0 -6.5 -18 -8.5 l-479 -33 q-20 -2 -33 -2 q-13 0 -24 10.5 q-11 10.5 -17 23.5 q-6 13 -6 16 l0 3 q5 0 17 -3 q12 -3 27 -3 l438 29 ZM764 657 l-1 0 l1 0 ZM124 25 q0 0 39 -3 l18 0 q6 0 13 1 l32 3 l3 0 l1 2 q94 147 193 339 l4 7 l-8 0 l-284 -14 l-1 0 q-8 -1 -15 -1 l-13 0 q-22 0 -32 13 q-20 27 -20 40 l2 0 l45 -6 l1 0 l749 39 q27 2 39 6.5 q12 4.5 17 4.5 q5 0 16 -9 q11 -9 19.5 -21 q8.5 -12 8.5 -18 q0 -6 -16 -8 l-432 -22 l-3 0 l-1 -3 q-87 -155 -200 -333 l-6 -9 l11 1 q158 19 410 67 l8 2 q-67 81 -139 157 q-8 8 -8 14 q0 6 12 17 q12 11 20 11 q8 0 15 -9 q87 -91 185.5 -205 q98.5 -114 98.5 -125.5 q0 -11.5 -13.5 -23 q-13.5 -11.5 -24.5 -11.5 q-11 0 -19 11 q-51 72 -95 125 l-2 3 l-3 -1 q-311 -64 -523 -92 q-36 -5 -52 -5 q-16 0 -27.5 12.5 q-11.5 12.5 -17 26 q-5.5 13.5 -5.5 16.5 l0 1 ZM194 23 l-1 0 l1 0 Z" /><glyph glyph-name="u4E92" unicode="&#x4e92;" d="M299 192 q-17 0 -35 33 q-6 12 -6 19 q0 7 6.5 16 q6.5 9 23.5 56 q67 207 99 330 l2 6 l-7 0 l-162 -10 l-1 0 q-7 -1 -14 -1 l-15 0 q-26 0 -40 13 q-14 13 -18.5 26 q-4.5 13 -4.5 17 q5 0 17 -3 q12 -3 34 -3 l562 35 q32 2 44.5 6 q12.5 4 20 4 q7.5 0 21 -9 q13.5 -9 23.5 -20.5 q10 -11.5 10 -16.5 q0 -9 -21 -11 l-387 -23 l-4 0 q-14 -56 -47 -159 l-2 -7 l7 0 l257 15 l10 0 q21 0 34.5 -10 q13.5 -10 13.5 -17 q0 -7 -3 -11.5 q-3 -4.5 -48 -187.5 q-45 -183 -66 -246 l7 0 l232 7 q29 2 43.5 6 q14.5 4 25 4 q10.5 0 40.5 -33 q9 -12 9 -18 q0 -6 -20 -8 l-837 -25 q-36 0 -51 28 q-3 7 -11 29 q5 0 17 -3 q12 -3 35 -3 l446 14 l4 0 l1 4 q42 140 48 174 l-6 0 l-247 -12 l-40 -5 ZM940 -9 l0 0 ZM662 505 l0 0 ZM383 439 q-11 -46 -60 -185 l-2 -7 l7 0 l273 13 l4 0 q18 73 30 125.5 q12 52.5 17 68.5 l-7 0 l-258 -15 l-4 0 Z" /><glyph glyph-name="u4E94" unicode="&#x4e94;" d="M242 395 l158 7 l4 0 l42 228 l1 6 l-6 0 l-203 -12 l-1 0 q-7 -1 -14 -1 l-15 0 q-20 0 -29.5 7.5 q-9.5 7.5 -17.5 21 q-8 13.5 -7.5 19 q0.5 5.5 2 5.5 q1.5 0 12 -3 q10.5 -3 37.5 -3 l13 0 l511 31 q22 2 35 6.5 q13 4.5 18 4.5 q5 0 18 -8.5 q13 -8.5 23 -19.5 q10 -11 10 -16 q0 -8 -21 -10 l-300 -18 l-4 0 l-43 -228 l-1 -6 l6 0 l247 12 l6 0 q19 0 32.5 -9.5 q13.5 -9.5 13.5 -19.5 q0 -10 -7 -27 l0 -1 l-32 -306 l-1 -6 l6 0 l96 3 q17 1 37 5.5 q20 4.5 26.5 4.5 q6.5 0 20.5 -10 q14 -10 23.5 -21.5 q9.5 -11.5 9.5 -16.5 q0 -8 -16 -10 l-3 0 l-787 -22 l-18 0 q-35 0 -44 8 q-33 29 -33 41 q0 3 1 5 q5 0 15.5 -3 q10.5 -3 34.5 -3 l23 1 l213 6 l4 0 l57 312 l1 6 l-6 0 l-113 -5 q-20 -2 -37 -2 q-27 0 -42 34 q-7 14 -7 17 q0 3 2 3 q2 0 12 -3.5 q10 -3.5 37 -3.5 ZM932 4 l0 0 ZM717 418 l0 0 ZM699 370 l-240 -11 l-4 0 l-60 -314 l-1 -6 l6 0 l270 8 l5 0 l0 5 l29 313 l1 5 l-6 0 Z" /><glyph glyph-name="u4E9A" unicode="&#x4e9a;" d="M566 655 l-143 -8 l6 -615 l126 3 l11 620 ZM606 36 l256 7 q21 0 32.5 4.5 q11.5 4.5 17 4.5 q5.5 0 26 -16 q20.5 -16 20.5 -29 q0 -8 -17 -11 l-816 -23 l-21 0 q-21 0 -28 4 q-15 13 -23.5 28.5 q-8.5 15.5 -8.5 22.5 l0 3 q5 0 14.5 -4 q9.5 -4 36.5 -4 l9 0 l274 7 l-7 614 l-135 -8 q-11 -1 -15 -1 l-23 0 q-22 3 -34.5 18.5 q-12.5 15.5 -12.5 22.5 q0 7 1 9 q5 0 14.5 -3 q9.5 -3 36.5 -3 l13 0 l526 33 q23 2 35.5 6 q12.5 4 16 4 q3.5 0 15.5 -8 q35 -23 35 -35 q0 -6 -19 -8 l-207 -12 l-12 -623 ZM855 480 q0 -36 -95 -181 q-26 -42 -50 -66.5 q-24 -24.5 -32 -24.5 q-1 1 -1 7 q0 6 14.5 30.5 q14.5 24.5 56.5 121 q42 96.5 42 150.5 l0 10 q0 9 4 9 q7 0 22.5 -10.5 q15.5 -10.5 27 -24 q11.5 -13.5 11.5 -21.5 ZM189 493 q19 0 89 -154 q18 -38 29.5 -72.5 q11.5 -34.5 11.5 -43 q0 -8.5 -15.5 -20 q-15.5 -11.5 -25.5 -11.5 q-8 0 -16 19 q-29 100 -89 219 q-18 36 -18 41 q0 5 13 13.5 q13 8.5 21 8.5 Z" /><glyph glyph-name="u4E9B" unicode="&#x4e9b;" d="M914 525 q9 0 9 -33 q0 -141 -21 -178 q-16 -27 -88 -33 q-40 -4 -94.5 -4 q-54.5 0 -86 4.5 q-31.5 4.5 -48.5 22 q-17 17.5 -17 60.5 l0 3 l4 350 q0 26 -7.5 39.5 q-7.5 13.5 -8.5 16.5 q0 2 5.5 2 q5.5 0 13.5 -2 l17 -3 q22 -5 26 -12 q4 -7 4 -16 l-2 -217 l0 -8 l7 4 q118 59 150 91 q18 17 28 34 l0 1 l1 0 q3 8 5 9 q11 -1 23 -24.5 q12 -23.5 12 -29 q0 -5.5 -8 -12.5 q-45 -46 -216 -113 l-3 -2 l0 -3 l-1 -99 q0 -32 17.5 -37.5 q17.5 -5.5 72 -5.5 q54.5 0 130.5 10 q12 2 23 12 q28 23 42 143 q4 30 11 30 ZM592 770 l0 0 ZM233 315 l89 16 l0 375 q0 22 -14 44 q-4 8 -4 9.5 q0 1.5 5 1.5 q5 0 20 -2 q43 -7 43 -30 l0 -175 l5 0 l56 5 q23 1 34.5 7 q11.5 6 16.5 6 q5 0 16 -6 q26 -15 26 -32 q0 -11 -22 -13 l-128 -12 l-5 0 l0 -167 q21 4 80 18 q59 14 71.5 14 q12.5 0 15.5 -2 q-14 -21 -262 -94 q-129 -38 -145 -38 q-16 0 -27 8.5 q-11 8.5 -29 48.5 l-1 0 l0 1 q-1 2 -1 6 l0 1 q1 1 3 1 l37 -4 l1 0 q46 0 74 7 l0 4 l-6 254 q0 25 -9 37 q-9 12 -9 16 l0 1 q1 1 7 1 l10 -1 q49 -5 49 -30 l3 -270 l0 -6 ZM171 622 l0 0 ZM297 131 q-32 0 -49 50 q0 2 3 2 l36 -6 l15 0 q4 0 8 1 l326 12 l1 0 q55 10 59.5 10 q4.5 0 24 -15.5 q19.5 -15.5 19.5 -26.5 q0 -8 -19 -10 l-391 -15 q-20 -2 -33 -2 ZM721 148 l0 0 ZM192 -41 l-27 -1 q-20 0 -32.5 13 q-12.5 13 -17.5 26 l-5 13 l1 0 q5 0 17.5 -3 q12.5 -3 34.5 -3 l8 0 l621 20 q23 0 36.5 4.5 q13.5 4.5 17 4.5 q3.5 0 15.5 -7 q35 -21 35 -37 q0 -7 -19 -9 l-685 -21 ZM877 -20 l0 0 ZM115 -3 l0 0 Z" /><glyph glyph-name="u4EA4" unicode="&#x4ea4;" d="M118 622 q25 -5 52 -5 l13 0 l280 17 l5 0 l0 5 l-1 103 q0 25 -8 36.5 q-8 11.5 -8 14.5 q0 3 8 3 q8 0 23 -2 q41 -5 41 -18 l-1 -133 l0 -5 l5 0 l250 16 q35 3 45 6 q10 3 15 3 q5 0 18 -7 q35 -19 35 -35 q0 -8 -14 -10 l-670 -40 l-1 0 q-17 -2 -32.5 -2 q-15.5 0 -29.5 7 q-14 7 -27 40 l-1 0 l0 4 q0 2 3 2 ZM876 611 l-1 0 l1 0 ZM835 384 q0 -18 -14.5 -30 q-14.5 -12 -21 -12 q-6.5 0 -33.5 26 q-88 87 -167 141 q-13 9 -13 13.5 q0 4.5 4 12.5 q9 21 22.5 21 q13.5 0 118 -80.5 q104.5 -80.5 104.5 -91.5 ZM814 348 l0 0 ZM353 551 q14 0 41 -32 q10 -12 10 -19 q0 -13 -58 -62 q-56 -51 -121.5 -94 q-65.5 -43 -88.5 -43 l-2 0 l0 4 q0 3 19 19 q181 145 195 216 q2 11 5 11 ZM504 223 q109 124 109 172 q0 15 5.5 15 q5.5 0 18.5 -9 q36 -26 36 -44 q0 -2 -1 -5 q-53 -84 -127 -166 l-3 -4 l4 -3 q163 -134 395 -208 q16 -5 16 -8.5 q0 -3.5 -8 -14.5 q-22 -31 -41 -31 q-19 0 -143 59 q-145 73 -256 167 l-3 3 l-3 -3 q-167 -161 -414 -221 q-10 -3 -17.5 -3 q-7.5 0 -7.5 2 q0 6 19 14 q196 84 303 174 q69 58 80 73 l-24 25 q-123 122 -123 142 q0 7 10.5 18.5 q10.5 11.5 20 11.5 q9.5 0 18.5 -12 q48 -67 129 -145 l3 -3 l4 4 ZM672 352 l0 1 q0 0 0 -1 Z" /><glyph glyph-name="u4EA6" unicode="&#x4ea6;" d="M92 591 q0 0 42 -3 l11 0 l321 18 l5 0 l0 5 l-2 128 q0 26 -14 47 q-2 5 -2 7.5 q0 2.5 9.5 2.5 q9.5 0 27.5 -5 q35 -11 35 -29 l-1 -147 l0 -5 l5 0 l289 16 q26 2 33.5 5.5 q7.5 3.5 12 3.5 q4.5 0 15.5 -7 q31 -20 31 -35 q0 -8 -19 -10 l-262 -15 l-5 0 l0 -5 l6 -560 l2 -38 q0 -20 -16.5 -40 q-16.5 -20 -34 -20 q-17.5 0 -51.5 18.5 q-34 18.5 -78.5 59.5 q-44.5 41 -46.5 50 q0 3 8 3 q8 0 54.5 -23.5 q46.5 -23.5 105.5 -40.5 l0 7 l-3 581 l0 5 l-5 0 l-130 -8 l-5 0 l0 -21 q0 -208 -49 -340 q-38 -102 -124 -182 q-37 -34 -66 -52.5 q-29 -18.5 -36 -18.5 q-7 0 -9 1 q0 10 19 27 q80 75 125.5 154 q45.5 79 63.5 178 q19 99 19 229 l0 21 l-5 0 l-203 -11 l-26 -1 q-14 0 -19 4 q-28 26 -28 44 l0 2 ZM632 -35 l0 0 ZM80 138 q-13 -10 -18 -10 q-5 0 -5 3 q0 6 8 17 q66 83 105.5 155.5 q39.5 72.5 39.5 116.5 l0 12 q0 9 5 9 q5 0 21 -8 q42 -19 43 -38 q-2 -4 -12 -25 q-64 -137 -187 -232 ZM812 366 q110 -151 110 -178 q0 -9 -14 -22 q-14 -13 -27 -13 q-13 0 -19 15 q-68 136 -137 228 q-4 7 -8 13 q-4 6 8 17.5 q12 11.5 22.5 11.5 q10.5 0 24 -17.5 q13.5 -17.5 40.5 -54.5 Z" /><glyph glyph-name="u4EA7" unicode="&#x4ea7;" d="M316 597 q13 11 17.5 11 q4.5 0 20 -14.5 q15.5 -14.5 47 -49.5 q31.5 -35 31.5 -50 q0 -6 -14.5 -16 q-14.5 -10 -21 -10 q-6.5 0 -17.5 15 q-35 49 -55.5 69.5 q-20.5 20.5 -20.5 27 q0 6.5 13 17.5 ZM730 699 l43 9 q6 0 16 -6 q28 -17 28 -32 q0 -8 -19 -10 l-555 -33 l-16 0 q-21 0 -28.5 7.5 q-7.5 7.5 -13.5 20.5 q-6 13 -6 18 l0 1 q4 0 12 -2.5 q8 -2.5 27 -2.5 l239 14 l5 0 l0 5 l-2 85 q0 26 -7 35.5 q-7 9.5 -7 13.5 q1 1 7 1 q6 0 21 -2 q42 -6 42 -28 l-2 -101 l0 -5 l5 0 l210 12 l1 0 ZM243 627 l0 0 ZM249 441 l2 0 l273 13 l2 0 l2 2 q88 110 88 149 l0 1 l-3 21 q0 7 7 7 q7 0 23 -7 q39 -21 41 -36 q-33 -49 -104 -126 l-8 -9 l219 13 l1 0 l41 9 q5 -1 15 -6 q31 -20 31 -36 q0 -8 -18 -10 l-608 -33 l-5 0 l0 -5 q-2 -49 -6 -97 q-4 -48 -19 -109 q-27 -112 -97 -194 q-28 -34 -49.5 -51.5 q-21.5 -17.5 -26.5 -17.5 q-2 2 -2 6 q0 4 14 23 q48 65 83 149 q47 121 47 290 q0 30 -2 40 q-2 10 -9 23.5 q-7 13.5 -7 17.5 q0 0 1 0 q19 0 74 -27 ZM848 472 l1 0 l-1 0 Z" /><glyph glyph-name="u4EAB" unicode="&#x4eab;" d="M83 683 l40 -3 l12 0 l329 18 l5 0 l0 5 l-1 64 q0 25 -14 47 q-2 4 -2 7 q0 3 9 3 q9 0 31.5 -7.5 q22.5 -7.5 27 -12.5 q4.5 -5 4.5 -14 l-1 -84 l0 -5 l5 0 l297 16 l1 0 l44 9 q5 0 15 -6 q30 -19 30 -34 q0 -8 -18 -10 l-742 -40 l-23 -1 l-5 0 q-16 0 -26 12 q-10 12 -14 24 l-4 12 ZM87 671 l0 -1 l0 1 ZM340 416 l2 -13 l0 -6 q0 -14 -10 -14 q-18 0 -31 10 q-13 10 -13 23 l0 6 q1 6 1 13 l0 27 q-6 87 -25 120 q-1 3 -1 5 l6 2 l3 0 q13 0 65 -13 l1 0 l352 21 l9 0 q18 0 28.5 -11.5 q10.5 -11.5 10.5 -15.5 q0 -4 -7 -16 l0 -1 l-21 -74 l-1 -3 l3 -2 q26 -25 26 -30.5 q0 -5.5 -4 -6.5 q-9 -1 -19 -2 l-369 -19 l-6 0 ZM690 597 l0 0 ZM264 582 l0 0 ZM670 554 l-335 -19 l-5 0 l0 -5 l6 -67 l0 -5 l5 0 l313 17 l4 0 l17 73 l1 6 l-6 0 ZM472 249 q12 7 21.5 7 q9.5 0 17.5 -20 q108 54 148 78 l17 10 l-360 -25 l-1 0 q-6 -1 -13 -1 l-12 0 q-38 0 -49 34 q-4 9 -5 15 q29 -6 46 -6 l9 0 l407 26 l11 0 q28 0 46 -26 q6 -9 6 -14.5 q0 -5.5 -6 -9.5 q-64 -36 -227 -117 l1 -4 l4 -10 l2 -3 l3 0 l298 14 q33 2 47 7 q14 5 21 5 q7 0 17.5 -9.5 q10.5 -9.5 18 -21 q7.5 -11.5 7.5 -16 q0 -4.5 -14 -6.5 l-380 -16 l-6 0 q11 -66 11 -104 q0 -150 -53 -150 q-42 0 -154 72 q-61 40 -63 55 l3 0 q7 0 61.5 -24 q54.5 -24 131.5 -40 l4 0 q8 0 11 11 q9 42 9 89.5 q0 47.5 -10 87.5 l-4 0 l-369 -16 l-17 0 q-21 0 -33.5 9.5 q-12.5 9.5 -16.5 20.5 q-5 11 -5 16 q28 -4 48 -4 l17 0 l359 17 l8 0 l-16 31 q-8 16 -8 23.5 q0 7.5 11 14.5 ZM933 156 l-1 0 l1 0 ZM698 367 l0 0 Z" /><glyph glyph-name="u4EAE" unicode="&#x4eae;" d="M385 226 l2 0 l211 11 l15 1 q12 0 24 -9 q12 -9 12 -19 l-4 -18 l0 -1 l-6 -162 l0 -3 q0 -28 21.5 -33.5 q21.5 -5.5 84.5 -5.5 q63 0 127 9 q13 2 22 10 l1 0 q16 17 36 131 q5 34 12 34 q9 0 9 -66 q0 -66 -4 -97.5 q-4 -31.5 -22.5 -47.5 q-18.5 -16 -62 -22 q-43.5 -6 -106 -6 q-62.5 0 -99.5 3 q-37 3 -55 25 q-17 22 -17 50 l0 2 l5 177 l0 5 l-5 0 l-200 -9 l-5 0 l0 -5 q0 -99 -49.5 -155 q-49.5 -56 -131 -88 q-81.5 -32 -124.5 -32 q-8 0 -11 1 q3 7 26 16 q154 61 203 143 q33 57 33 104 q0 47 -5.5 59 q-5.5 12 -6.5 17 q3 1 10.5 1 q7.5 0 59.5 -20 ZM613 238 l0 0 ZM753 715 l43 9 q4 0 14 -6 q30 -19 30 -34 q0 -7 -17 -9 l-605 -32 l-17 0 q-15 0 -28 6 q-12 6 -24 36 q-2 5 -2 7 l0 1 q1 0 16.5 -3 q15.5 -3 28.5 -3 l6 0 l259 14 l5 0 l0 5 l-1 56 q0 25 -14 47 q-2 4 -2 6.5 q0 2.5 9.5 2.5 q9.5 0 31 -7 q21.5 -7 26 -12 q4.5 -5 4.5 -14 l-1 -76 l0 -5 l5 0 l232 11 l1 0 ZM149 685 l0 0 ZM218 643 l0 0 ZM687 474 q28 -28 28 -33 q0 -5 -1 -6 q-5 -1 -12 -2 l-343 -14 l-6 0 l2 -10 l0 -5 q0 -13 -14 -13 q-14 0 -27 8 q-12 8 -12 21 l0 6 q1 4 1 8 l0 6 q0 19 -4 40 l-8 63 q-5 30 -12.5 43.5 q-7.5 13.5 -9.5 17.5 q3 2 14 2 q11 0 60 -18 l2 0 l317 18 q37 0 48 -20 q4 -8 4 -10.5 q0 -2.5 -5 -12.5 l-1 0 l0 -1 l-20 -85 l-1 -3 ZM662 606 l0 0 ZM299 480 l0 0 ZM702 433 l-1 0 l1 0 ZM646 565 l-302 -15 l-6 0 l10 -88 l1 -4 l4 0 l281 12 l4 0 l13 89 l1 6 l-6 0 ZM221 390 l-8 -46 l6 0 l623 30 l8 0 q28 0 37 -22 l1 0 l3 -7 q-1 -5 -6.5 -10.5 q-5.5 -5.5 -9.5 -10.5 q-42 -65 -99 -116 l-1 0 q0 -1 -5 -6 q-17 -13 -24 -13 q-3 0 -3 7.5 q0 7.5 25 42.5 q25 35 48 88 l-8 0 l-603 -29 l-4 0 l-1 -4 q-37 -131 -58 -131 q-7 0 -22 9.5 q-15 9.5 -15 16.5 q0 7 13 33 q39 75 57 169 q2 16 13 16 q33 0 33 -17 ZM842 374 l0 0 Z" /><glyph glyph-name="u4EBA" unicode="&#x4eba;" d="M70 -52 q-40 -18 -40 -13 q0 8 19 22 q172 126 275 286 q128 196 143 466 l0 4 q0 21 -8 37 q-8 16 -8 19.5 q0 3.5 11 3.5 q11 0 31 -7 q42 -15 42 -39 l0 -7 q-7 -117 -38 -233 l0 -2 l1 -1 q81 -156 204 -290.5 q123 -134.5 246 -199.5 q16 -9 17 -14 q0 -4 -11 -12 q-32 -27 -52 -27 q-6 1 -33 19 q-75 51 -173 153 q-126 130 -217 290 l-5 10 l-4 -10 q-69 -191 -205 -318 q-105 -98 -195 -137 Z" /><glyph glyph-name="u4EC0" unicode="&#x4ec0;" d="M357 462 q4 -1 12.5 -4.5 q8.5 -3.5 32.5 -3.5 l12 0 l210 13 l5 0 l0 277 q0 30 -8 40 q-8 10 -8 13 q0 3 10.5 3 q10.5 0 31 -6 q20.5 -6 25.5 -10.5 q5 -4.5 5 -15.5 l0 -297 l5 0 l172 10 q33 3 42 6.5 q9 3.5 13 3.5 q4 0 14 -8 q32 -24 32 -38 q0 -5 -17 -7 l-256 -15 l-5 0 l0 -5 l1 -484 q0 -21 -14.5 -21 q-14.5 0 -32.5 13.5 q-18 13.5 -18 30.5 q0 5 4 24 q4 19 4 46 l0 392 l-5 0 l-182 -11 l-1 0 q-5 -1 -11 -1 l-16 0 q-26 0 -32 8 q-21 23 -25 47 ZM946 438 l-1 0 l1 0 ZM221 451 q-78 -95 -144 -147 q-25 -19 -28.5 -19 q-3.5 0 -3.5 4 q0 4 11 18 q208 250 259 413 q11 34 11 41 q0 7 -1 11 l0 2 q0 3 5 3 q5 0 19 -6 q37 -16 37 -35 q0 -21 -72 -147 l-32 -53 l0 -1 l-4 -599 q0 -15 -17.5 -15 q-17.5 0 -31.5 13 q-14 13 -14 21.5 q0 8.5 3.5 23 q3.5 14.5 3.5 50.5 l8 419 l0 14 l-9 -11 Z" /><glyph glyph-name="u4EC5" unicode="&#x4ec5;" d="M232 595 q36 65 55 111.5 q19 46.5 19 59.5 q0 13 -2 22 l0 3 q0 5 8.5 5 q8.5 0 22.5 -7 q36 -15 37 -31 q-1 -5 -15 -35 q-38 -92 -96 -183 l-1 -2 l0 -1 l3 -613 q0 -16 -13 -16 q-13 0 -32 12 q-17 12 -17 28 q0 4 3.5 20.5 q3.5 16.5 3.5 45.5 l2 435 l0 15 l-9 -12 q-38 -52 -79 -91 q-68 -69 -83 -69 l-1 0 q0 0 0 4 q0 3 13 21 q95 118 181 278 ZM398 664 l60 -3 l345 19 q23 0 33 -21 q4 -8 4 -11.5 q0 -3.5 -5 -10 q-5 -6.5 -6 -11.5 q-49 -183 -155 -350 l-2 -3 l2 -3 q131 -176 295 -294 q8 -5 8 -10 q0 -5 -8 -12 q-27 -22 -38.5 -22 q-11.5 0 -17.5 5 q-153 134 -267 286 l-4 5 l-4 -5 q-139 -197 -286 -281 q-28 -16 -33 -16 q-1 2 -1 7.5 q0 5.5 19 22.5 q158 135 272 312 l2 3 l-2 3 q-94 136 -138 244 q-16 37 -17 42 q0 9 12 13 q14 6 23 6 q9 0 14 -13 q57 -127 132 -242 l4 -7 l4 8 q91 156 125 301 l1 6 l-6 0 l-300 -19 q-29 0 -35 5 q-12 11 -21 26.5 q-9 15.5 -9 19.5 ZM463 613 l0 0 ZM969 -46 l0 0 ZM836 659 l1 0 l-1 0 ZM803 680 l0 0 Z" /><glyph glyph-name="u4ECA" unicode="&#x4eca;" d="M379 442 q0 30 19 30 q24 0 113.5 -32.5 q89.5 -32.5 112 -41.5 q22.5 -9 22.5 -21.5 q0 -12.5 -9 -26.5 q-9 -12 -15.5 -12 q-6.5 0 -53.5 23 q-47 23 -173 64 q-16 5 -16 17 ZM304 207 l-26 -1 l-10 0 q-10 1 -16 8 q-24 30 -24 37 q0 7 1 9 q5 0 14.5 -3 q9.5 -3 35.5 -3 l11 0 l437 22 l15 0 q32 0 39 -20 q3 -8 3 -11 q0 -3 -4.5 -8 q-4.5 -5 -23 -37 q-18.5 -32 -61 -90.5 q-42.5 -58.5 -82.5 -106.5 q-86 -101 -107 -102 q-2 0 -12 5 q-30 12 -30 26 q0 6 12 16 q137 119 226 270 l5 8 l-9 0 l-394 -19 ZM727 276 l0 0 ZM268 206 l0 0 ZM478 813 q0 8 4 8 q9 0 23 -9 q39 -23 39 -38 q0 -8 -19 -37 l-3 -3 l3 -3 q182 -237 440 -369 q11 -6 12 -10 q-1 -3 -7 -11 q-23 -30 -39.5 -30 q-16.5 0 -86.5 52 q-212 158 -348 327 l-4 -5 q-84 -127 -184.5 -223 q-100.5 -96 -234.5 -172 q-17 -8 -22.5 -8 q-5.5 0 -6.5 1 q0 8 21 24 q274 206 403 460 q10 19 10 41 l0 5 ZM73 290 l0 0 Z" /><glyph glyph-name="u4ECB" unicode="&#x4ecb;" d="M471 811 q0 7 7 7 q7 0 22.5 -6 q15.5 -6 27.5 -15.5 q12 -9.5 12 -18 q0 -8.5 -19 -37.5 l2 -3 q184 -236 443 -343 q16 -6 16 -10.5 q0 -4.5 -12 -14.5 q-26 -25 -41 -28 q-7 2 -49 24 q-229 128 -381 326 l-4 6 l-4 -6 q-104 -162 -240 -264 q-97 -73 -178 -101 q-30 -11 -32 -9 q0 7 19 19 q185 120 293 254 q80 101 108 175 q10 29 10 35 l0 10 ZM611 414 q0 24 -11.5 37 q-11.5 13 -11.5 18 q2 2 13 2 q11 0 33 -7.5 q22 -7.5 28 -13 q6 -5.5 6 -16.5 l1 -508 q0 -21 -16 -21 q-4 0 -16.5 4.5 q-12.5 4.5 -23 14.5 q-10.5 10 -10.5 20.5 q0 10.5 4 31.5 q4 21 4 43 l0 395 ZM346 397 q0 23 -9 37.5 q-9 14.5 -10 18.5 q0 3 8.5 3 q8.5 0 26.5 -5 q43 -10 43 -27 q-2 -180 -22.5 -254 q-20.5 -74 -48.5 -110 q-69 -91 -181 -135 q-22 -8 -26.5 -8 q-4.5 0 -4.5 3 q0 5 21 21 q67 49 112.5 98.5 q45.5 49.5 61.5 111.5 q29 111 29 234 l0 12 Z" /><glyph glyph-name="u4ECD" unicode="&#x4ecd;" d="M265 709 q16 45 16 56.5 q0 11.5 -4 28.5 q0 3 4.5 3 q4.5 0 19.5 -5 q44 -13 44 -36 q0 -12 -31.5 -87 q-31.5 -75 -66.5 -131 l-1 -2 l0 -1 l-1 -600 q0 -14 -15 -14 q-12 0 -29 9.5 q-17 9.5 -17 24.5 l0 6 q0 3 3 20 q3 17 3 42 l4 428 l0 16 l-9 -13 q-84 -115 -126 -146 q-16 -11 -20 -11 q-1 1 -1 5.5 q0 4.5 12 20.5 q93 122 169 278 q30 63 46 108 ZM886 453 q8 0 21.5 -10 q13.5 -10 13.5 -20 q0 -10 -3 -17 q-3 -7 -4 -13 l0 -1 q-34 -369 -79 -425 q-26 -32 -51.5 -32 q-25.5 0 -79.5 45.5 q-54 45.5 -77 74.5 q-23 29 -24 36 q3 0 7 0.5 q4 0.5 46.5 -26 q42.5 -26.5 78.5 -44 q36 -17.5 44.5 -17.5 q8.5 0 11.5 10 q44 102 69 385 l0 5 l-5 0 l-94 -5 q-11 -1 -26 -5.5 q-15 -4.5 -28 -4.5 q-13 0 -21.5 10 q-8.5 10 -8.5 19 q0 9 3 19 l75 229 l2 7 l-7 0 l-180 -12 l-5 0 l0 -5 q-16 -203 -49 -315 q-77 -255 -208 -366 q-24 -20 -28 -20 q-4 0 -4 5 q0 5 10 19 q160 211 200 512 q11 83 17 160 l0 5 l-5 0 l-67 -5 l-1 0 q-13 -2 -30.5 -2 q-17.5 0 -31.5 19 q-14 19 -15 32 l4 0 q26 -4 49 -4 l372 28 l4 0 q16 0 29.5 -9 q13.5 -9 13.5 -17 q0 -8 -4.5 -15.5 q-4.5 -7.5 -7.5 -16.5 l-75 -217 l-2 -8 l150 12 ZM778 724 l0 0 Z" /><glyph glyph-name="u4ECE" unicode="&#x4ece;" d="M675 488 l0 -3 q114 -323 297 -494 q12 -10 12 -13.5 q0 -3.5 -19 -18 q-19 -14.5 -39 -14.5 q-8 2 -37 36.5 q-29 34.5 -69 97.5 q-93 144 -157 313 l-6 15 l-4 -16 q-38 -168 -141 -295 q-79 -98 -157 -145 q-28 -17 -33 -17 l-2 0 l0 1 q1 6 19 23 q76 76 135 160 q155 223 162 622 q0 28 -15 47 q-4 6 -4 9 q0 3 10.5 3 q10.5 0 35 -8.5 q24.5 -8.5 31 -14 q6.5 -5.5 6.5 -12.5 q-2 -144 -25 -276 ZM338 715 q-7 -151 -34 -273 l0 -3 l1 -2 q51 -49 94.5 -103.5 q43.5 -54.5 77.5 -98.5 q7 -10 7 -17 q0 -16 -24 -30 q-8 -6 -15 -6 q-7 0 -18 16 q-61 101 -136 189 l-3 -9 q-30 -111 -69 -177 q-67 -113 -133 -174 q-26 -24 -30.5 -24 q-4.5 0 -4.5 4.5 q0 4.5 14 24.5 q126 172 176 380 q29 119 35 280 l0 3 q0 21 -7.5 35 q-7.5 14 -7.5 18 q0 4 8.5 4 q8.5 0 25.5 -5 q43 -12 43 -32 ZM427 198 l0 0 Z" /><glyph glyph-name="u4ED3" unicode="&#x4ed3;" d="M356 408 l2 0 l297 11 l13 1 q25 0 33.5 -12 q8.5 -12 8.5 -17 q0 -5 -3.5 -11 q-3.5 -6 -8 -49.5 q-4.5 -43.5 -20 -106.5 q-15.5 -63 -21.5 -79.5 q-6 -16.5 -21 -28.5 q-15 -12 -30.5 -12 q-15.5 0 -50 18 q-34.5 18 -77.5 58.5 q-43 40.5 -44 46 q-1 5.5 -0.5 6 q0.5 0.5 6 0.5 q5.5 0 41.5 -19.5 q36 -19.5 73.5 -33.5 q37.5 -14 43.5 -14 q9 0 14.5 16.5 q5.5 16.5 18 71 q12.5 54.5 18.5 112.5 l1 6 l-6 0 l-284 -12 l-5 0 l0 -5 l-4 -274 l0 -2 q0 -32 17 -51 q17 -19 63 -26 q46 -7 137 -7 q211 0 252 38 q32 27 45 130 q3 26 7 33.5 q4 7.5 5 7.5 q13 0 13 -81 q0 -18 -1 -37 l-2 -38 q-2 -40 -25 -62 q-46 -44 -245 -44 q-116 0 -211 7 q-47 4 -78 37 q-31 33 -31 80 l0 2 l5 298 q0 29 -8 43.5 q-8 14.5 -9 19.5 q3 1 11 1 q8 0 60 -22 ZM668 420 l0 0 ZM471 811 q0 7 7 7 q7 0 22.5 -6 q15.5 -6 27.5 -15.5 q12 -9.5 12 -18 q0 -8.5 -19 -37.5 l2 -3 q184 -236 443 -343 q16 -6 16 -10.5 q0 -4.5 -12 -14.5 q-26 -25 -41 -28 q-7 2 -50.5 26 q-43.5 24 -116.5 74 q-148 100 -263 250 l-4 6 l-4 -6 q-105 -163 -241 -264 q-97 -73 -177 -101 q-30 -11 -32 -9 q0 7 19 19 q186 121 293 254 q80 99 108 175 q10 29 10 35 l0 10 Z" /><glyph glyph-name="u4ED4" unicode="&#x4ed4;" d="M184 -50 l6 70 l4 434 l0 16 l-9 -13 q-66 -91 -101 -124 q-35 -33 -40.5 -33.5 q-5.5 -0.5 -5.5 3.5 q0 7 12 23 q140 193 201 350 q24 63 24 85 l0 7 q0 2 -1 9.5 q-1 7.5 3.5 7.5 q4.5 0 18.5 -5 q42 -13 42 -31 q0 -13 -27.5 -75 q-27.5 -62 -67.5 -132 l-1 -1 l0 -1 l1 -605 q0 -16 -12 -16 l-13 3 q-12 3 -24 11 q-10 8 -10 17 ZM648 483 l24 -87 l4 0 l198 11 q39 3 47 5.5 q8 2.5 10 2.5 l5 0 q29 0 46 -29 q5 -10 5 -15 q0 -5 -20 -7 l-280 -16 l-6 0 q16 -96 16 -194 q0 -98 -1.5 -147 q-1.5 -49 -16.5 -73 q-15 -24 -35 -24 q-33 0 -133 80 q-53 43 -53 56 q0 3 6.5 3 q6.5 0 42.5 -18.5 q36 -18.5 74.5 -35.5 q38.5 -17 42.5 -17 q12 0 15 32.5 q3 32.5 3 138.5 q0 106 -13 192 l-1 4 l-4 0 l-250 -14 l-1 0 q-6 -1 -12 -1 l-11 0 q-22 0 -27 6 l0 1 q-25 24 -25 44 q0 2 3 2 q3 0 11.5 -2.5 q8.5 -2.5 31.5 -2.5 l11 0 l259 15 l6 0 q-12 74 -42 122 q-4 9 -4 13 q0 10 15 16.5 q15 6.5 21 6.5 q9 0 15 -17 l3 -6 l5 4 q84 74 128 136 l6 9 l-281 -22 l-1 0 q-15 -2 -29 -2 l-5 0 q-16 2 -30.5 19.5 q-14.5 17.5 -14.5 34.5 q5 0 16 -2.5 q11 -2.5 32 -2.5 l12 0 l325 23 l8 0 q13 0 26 -9 q12 -10 12 -18.5 q0 -8.5 -23 -39.5 q-61 -83 -163 -173 l-3 -2 ZM578 515 l0 1 l0 -1 ZM967 364 l-1 0 l1 0 ZM791 725 l0 0 Z" /><glyph glyph-name="u4ED6" unicode="&#x4ed6;" d="M654 140 q0 -20 -12 -20 q-2 1 -12 5 q-31 11 -31 33 l0 7 q4 32 4 67 l1 203 l0 7 l-130 -50 l-3 -2 l0 -3 l-4 -318 q0 -29 12 -41 q12 -12 42 -15 q156 -19 327 5 q20 3 32 9 q12 6 21 27 q9 21 21 104 q12 83 18 83 q11 0 11 -75.5 q0 -75.5 -3.5 -115 q-3.5 -39.5 -21 -60.5 q-17.5 -21 -63.5 -26 q-105 -11 -198.5 -11 q-93.5 0 -145.5 4.5 q-52 4.5 -77 27.5 q-25 23 -25 70 l0 2 l4 307 l0 7 l-62 -23 q-15 -6 -30.5 -6 q-15.5 0 -28.5 15 q-13 15 -14 19 q3 2 12.5 2 q9.5 0 46.5 12 l73 29 l3 2 l0 3 l2 130 q0 34 -14 51 q-3 4 -4 6 q2 1 8.5 1 q6.5 0 30 -6.5 q23.5 -6.5 26.5 -14 q3 -7.5 3 -18.5 l-2 -126 l0 -7 l130 50 l3 2 l0 3 l1 232 q0 32 -17 54 q-2 3 -2 5 q2 1 10.5 1 q8.5 0 28.5 -5.5 q20 -5.5 25.5 -12 q5.5 -6.5 5.5 -18.5 l-1 -232 l0 -7 l172 66 l0 1 q9 4 16.5 4 q7.5 0 21.5 -9 q14 -9 14 -17 q0 -8 -2.5 -13 q-2.5 -5 -3.5 -11 l0 -1 q-18 -284 -45 -343 q-15 -35 -39 -35 q-24 0 -65 47 q-41 47 -41 61 l0 2 l4 0 q3 0 40.5 -24 q37.5 -24 48.5 -24 q11 0 12 11 q27 112 34 292 l0 7 l-164 -63 l-3 -2 l0 -3 l-1 -318 ZM409 605 l0 0 ZM283 758 l-4 24 q0 4 9 4 q23 0 47 -22 q10 -9 10 -18.5 q0 -9.5 -32.5 -78.5 q-32.5 -69 -64.5 -122 l-1 -2 l0 -610 q0 -14 -15.5 -14 q-15.5 0 -28.5 11 q-12 11 -12 18 l0 11 q0 3 3 20 q3 17 3 42 l4 434 l0 16 l-9 -13 q-64 -91 -120 -140 q-24 -21 -29 -21 q-5 0 -5 5 q0 5 12 21 q94 124 144.5 216.5 q50.5 92.5 69.5 148.5 q19 56 19 69 l0 1 Z" /><glyph glyph-name="u4ED8" unicode="&#x4ed8;" d="M201 454 q-62 -80 -105.5 -120.5 q-43.5 -40.5 -50 -41 q-6.5 -0.5 -6.5 1.5 q0 8 12 23 q114 142 189 293 q31 62 45 104 q15 42 15 51 q0 9 -3 27 q0 6 7.5 6 q7.5 0 22.5 -7 q40 -20 40 -34.5 q0 -14.5 -36 -88 q-36 -73.5 -70 -129.5 l-1 -2 l0 -589 q0 -16 -17.5 -16 q-17.5 0 -30.5 14 q-13 14 -13 19 l0 10 q0 2 3 18 q4 16 4 45 l4 413 l0 15 l-9 -12 ZM688 768 q-6 9 -6 13 q0 4 12 4 q12 0 35.5 -8 q23.5 -8 29 -16 q5.5 -8 5.5 -21 l1 -200 l0 -5 l5 0 l97 5 q32 3 41.5 7 q9.5 4 17 4 q7.5 0 20 -10 q12.5 -10 21 -21.5 q8.5 -11.5 8.5 -14.5 q0 -6 -22 -8 l-183 -10 l-5 0 l0 -5 l3 -484 l2 -33 q0 -19 -14 -33.5 q-14 -14.5 -26 -14.5 q-35 0 -145 81 q-59 45 -59 62 q0 2 7 2 q7 0 50 -23.5 q43 -23.5 121 -45.5 l6 -2 l0 7 l-3 480 l0 5 l-5 0 l-299 -17 l-1 0 q-7 -1 -14 -1 l-13 0 q-17 0 -31 7 q-13 8 -26 45 l-1 0 q0 2 0 4 l1 0 q2 0 13 -4 q11 -4 35 -4 l9 0 l327 18 l5 0 l0 5 l-1 177 q0 31 -18 55 ZM688 768 l0 0 ZM770 -35 l0 0 ZM487.5 370 q25.5 -25 66 -79.5 q40.5 -54.5 40.5 -63.5 q0 -9 -14 -21.5 q-14 -12.5 -23 -12.5 q-9 0 -18 14 q-42 75 -108 152 q-5 7 -5 12 q0 5 12.5 14.5 q12.5 9.5 18 9.5 q5.5 0 31 -25 ZM431 359 l0 0 ZM539 207 l0 -1 q0 0 0 1 Z" /><glyph glyph-name="u4ED9" unicode="&#x4ed9;" d="M283 757 l-4 25 q0 4 9 4 q23 0 47 -22 q10 -9 10 -17 q0 -8 -22.5 -65 q-22.5 -57 -72.5 -141 l-1 -2 l0 -604 q0 -14 -16 -14 q-16 0 -29 11.5 q-13 11.5 -13 23.5 l0 5 q0 3 3 20 q3 17 3 42 l4 430 l0 15 l-9 -12 q-71 -93 -121 -138 q-23 -21 -28 -21 q-5 0 -5 5 q0 5 12 21 q102 137 167.5 269 q65.5 132 65.5 164 l0 1 ZM828 -30 l6 51 l1 7 l-381 -34 q-21 -2 -31 -6.5 q-10 -4.5 -14.5 -4.5 q-4.5 0 -13.5 4 q-25 11 -25 30 q0 5 5 23 q6 18 6 45 l1 340 q0 41 -13 61 q-3 5 -3 8 q2 1 9 1 q7 0 28.5 -7 q21.5 -7 28 -12.5 q6.5 -5.5 6.5 -20.5 l-6 -406 l0 -5 l5 0 l161 13 l5 0 l0 5 l-1 622 q0 34 -15 53 q-3 4 -3 8 q1 1 8.5 1 q7.5 0 23.5 -3 q43 -9 43 -27 l-4 -649 l0 -5 l5 0 l170 13 l5 0 l0 5 l2 377 q0 45 -7.5 54.5 q-7.5 9.5 -7.5 12.5 q0 3 10.5 3 q10.5 0 29.5 -6.5 q19 -6.5 26 -12 q7 -5.5 7 -19.5 l-5 -538 q0 -19 -8 -20 l-15 4 q-38 13 -39 35 ZM867 -65 l1 0 q0 0 -1 0 ZM369 486 l0 -1 q0 1 0 1 ZM395 -13 l0 0 Z" /><glyph glyph-name="u4EE3" unicode="&#x4ee3;" d="M957 156 q-7 -113 -29 -189 q-14 -44 -40 -44 q-19 0 -56.5 22 q-37.5 22 -63.5 49 q-133 131 -186 341 q-13 53 -22 98 l-150 -24 q-9 -2 -20 -2 q-19 0 -42 40 l-2 5 q0 1 4 1 l1 0 q6 -1 10 -1 l13 0 q10 0 29 3 l144 22 l5 1 l-1 5 q-24 145 -27 242 q-2 31 -13.5 47.5 q-11.5 16.5 -11.5 20.5 q0 4 10 4 q10 0 26 -3 q42 -7 42 -34 q3 -117 28 -269 l1 -5 l227 35 q19 3 26 7 q7 4 12.5 4 q5.5 0 15.5 -6 q28 -18 28 -30 q0 -10 -22 -12 l-273 -42 l-5 -1 q28 -141 66 -224 q70 -149 178 -217 q7 -4 12 -4 q8 0 15.5 15.5 q7.5 15.5 23.5 66 q16 50.5 25 88 q9 37.5 15.5 37.5 q6.5 0 6.5 -33 l0 -14 ZM234 467 q-84 -104 -165 -163 q-28 -21 -32 -21.5 q-4 -0.5 -4 4 q0 4.5 12 17.5 q94 100 161.5 199.5 q67.5 99.5 120.5 223.5 q6 15 6 26 l0 13 q0 3 -1 8 l0 3 q0 6 6.5 6 q6.5 0 33 -15.5 q26.5 -15.5 26.5 -28.5 q0 -13 -36.5 -78.5 q-36.5 -65.5 -68.5 -112.5 l-1 -1 l0 -2 l1 -601 q0 -16 -12 -16 q-21 0 -35 14 q-14 14 -14 22 q0 8 3.5 22.5 q3.5 14.5 3.5 51.5 l4 426 l0 14 l-9 -11 ZM744 674 q66 -63 66 -75 q0 -12 -11.5 -22 q-11.5 -10 -18 -10 q-6.5 0 -12.5 8 q-65 78 -121 126 q-7 6 -7 11.5 q0 5.5 9 16 q9 10.5 19 9.5 q10 -1 76 -64 Z" /><glyph glyph-name="u4EE4" unicode="&#x4ee4;" d="M533 796 q11 -10 11 -19 q0 -9 -24 -45 l2 -3 q185 -229 454 -373 l0 -1 q12 -5 11.5 -9 q-0.5 -4 -7.5 -13 q-25 -29 -43 -29 q-5 1 -31 16 q-73 43 -195 145 q-122 102 -218 222 l-4 -5 q-140 -202 -336 -343 q-47 -34 -78 -50.5 q-31 -16.5 -36.5 -16.5 q-5.5 0 -5.5 6.5 q0 6.5 20 22.5 q174 137 303 301 q65 83 110 170 q10 19 10 41 l0 5 q0 8 4 8 q19 0 53 -30 ZM369 462 q0 30 19 30 q24 0 113.5 -32.5 q89.5 -32.5 112 -41.5 q22.5 -9 22.5 -21.5 q0 -12.5 -9 -26.5 q-9 -12 -15.5 -12 q-6.5 0 -53.5 23 q-47 23 -173 64 q-16 5 -16 17 ZM377 127 q24 0 120 -72 l3 -2 l3 2 q88 78 184 194 l7 9 l-395 -19 l-31 -1 q-22 0 -28 11 l0 1 q-21 32 -21 36 l0 6 q5 0 17.5 -3 q12.5 -3 34.5 -3 l9 0 l451 23 l13 0 q21 0 30 -12 q9 -12 9 -19 q0 -7 -5.5 -13 q-5.5 -6 -33.5 -40 q-63 -76 -195 -199 l-5 -5 l5 -3 q79 -55 85 -62.5 q6 -7.5 6 -12.5 q0 -5 -6 -14 q-17 -28 -30 -28 q-5 0 -17 10 q-100 90 -223 170 q-14 9 -14 16 q0 7 7 18.5 q7 11.5 20 11.5 ZM731 309 l0 0 Z" /><glyph glyph-name="u4EE5" unicode="&#x4ee5;" d="M690 252 q83 -70 142 -130 q94 -98 94 -114 q0 -16 -18 -28 q-18 -12 -22 -12 q-4 0 -13 12 q-108 143 -209 231 l-4 3 l-3 -4 q-78 -109 -195 -188 q-46 -31 -78 -46.5 q-32 -15.5 -37.5 -15.5 q-5.5 0 -5.5 7 q0 7 22 23 q190 135 276 286.5 q86 151.5 121 360.5 q7 43 7 57 q0 14 -3.5 24.5 q-3.5 10.5 -3.5 13 q0 2.5 6.5 2.5 q6.5 0 24.5 -5 q44 -11 44 -31 q0 -47 -53 -222 q-40 -126 -91 -214 l-2 -3 l-3 -4 l4 -3 ZM691 262 l0 0 ZM198 641 q0 29 -9.5 41.5 q-9.5 12.5 -9.5 16.5 q1 1 8.5 1 q7.5 0 24.5 -5 q42 -12 42 -29 l-1 -490 l0 -9 q85 53 207 147 q15 12 23 12 q4 0 4 -6 q0 -16 -91 -98.5 q-91 -82.5 -165 -137 q-74 -54.5 -88 -54.5 q-24 0 -49 33 l-15 18 q4 3 13 4 q45 9 103 47 l2 1 l0 3 l1 505 ZM482 560 q96 -88 96 -103 q0 -4 -12 -21 q-12 -17 -24 -17 q-12 0 -23 15 q-66 87 -139 152 q-11 9 -11 14 q0 5 8 15.5 q8 10.5 19 10.5 q11 0 19 -7 q8 -7 26 -22.5 q18 -15.5 41 -36.5 Z" /><glyph glyph-name="u4EEA" unicode="&#x4eea;" d="M616 720 q76 -90 72 -104 q-1 -5 -7 -12 q-31 -34 -50 -3 q-37 70 -90 130 q-18 18 7 32 q13 6 18 5 q13 -3 50 -48 ZM548 763 l0 -1 q0 0 0 1 ZM232 595 q36 65 55 111.5 q19 46.5 19 59.5 q0 13 -2 22 l0 3 q0 5 8.5 5 q8.5 0 22.5 -7 q36 -15 37 -31 q-1 -5 -15 -35 q-38 -92 -96 -183 l-1 -2 l0 -1 l3 -613 q0 -16 -13 -16 q-13 0 -32 12 q-17 12 -17 28 q0 4 3.5 20.5 q3.5 16.5 3.5 45.5 l2 435 l0 15 l-9 -12 q-38 -52 -79 -91 q-68 -69 -83 -69 l-1 0 q0 0 0 4 q0 3 13 21 q95 118 181 278 ZM325 -74 q-2 0 -2 6.5 q0 6.5 18 19.5 q162 123 272 268 l2 3 l-2 3 q-92 118 -163 252 q-70 134 -70 149 q0 15 12 19 q15 4 19 4 q9 0 15 -15 q91 -206 220 -368 l4 5 q70 100 108.5 220.5 q38.5 120.5 38.5 167.5 q0 10 -6 43 q0 4 6 4 q6 0 23 -7 q43 -15 44 -38 q-30 -143 -92 -280 q-35 -80 -90 -153 l-2 -3 l2 -3 q126 -142 284 -232 q10 -6 10 -11.5 q0 -5.5 -10 -13.5 q-28 -20 -37.5 -20 q-9.5 0 -48.5 26 q-107 71 -230 208 l-4 5 l-4 -5 q-89 -105 -193.5 -179.5 q-104.5 -74.5 -123.5 -74.5 Z" /><glyph glyph-name="u4EEC" unicode="&#x4eec;" d="M527 532 q-9 0 -18 17 q-71 101 -87.5 118.5 q-16.5 17.5 -16.5 24.5 q0 7 11 15.5 q11 8.5 17.5 8.5 q6.5 0 38 -34.5 q31.5 -34.5 59 -73.5 q27.5 -39 27.5 -46.5 q0 -7.5 -12.5 -18.5 q-12.5 -11 -18.5 -11 ZM689 52 q0 4 4 4 q4 0 39.5 -17.5 q35.5 -17.5 115.5 -47.5 l-3 664 l-166 -10 q-30 -3 -44 -4 q-35 0 -52 47 q-3 5 0 5 q5 0 16.5 -2.5 q11.5 -2.5 23 -2.5 q11.5 0 230.5 14 l11 0 q11 0 24 -9 q13 -9 13 -21 l-5 -19 l0 -1 l2 -652 l3 -36 q0 -17 -12.5 -30 q-12.5 -13 -25 -13 q-12.5 0 -43.5 17.5 q-31 17.5 -79.5 61 q-48.5 43.5 -51.5 52.5 ZM901 -36 l0 0 ZM853 702 l0 0 ZM429 -45 q0 -22 -12 -22 q-9 0 -28 10 q-19 10 -19 22.5 q0 12.5 4 34.5 q4 22 4 43 l2 418 l0 13 q0 19 -7.5 32.5 q-7.5 13.5 -7.5 16.5 q0 3 8.5 3 q8.5 0 29 -7.5 q20.5 -7.5 24.5 -12 q4 -4.5 4 -12.5 l-2 -539 ZM283 756 q0 1 -4 26 q0 4 8.5 4 q8.5 0 22.5 -6 q14 -6 24.5 -15.5 q10.5 -9.5 10.5 -17.5 q0 -8 -22.5 -65 q-22.5 -57 -73.5 -143 l0 -604 q0 -14 -16 -14 q-16 0 -29 11.5 q-13 11.5 -13 23.5 l0 5 q0 3 3 20 q3 17 3 42 l4 445 l-9 -12 q-71 -93 -121 -138 q-23 -21 -28 -21 q-5 0 -5 5 q0 5 12 21 q102 137 167.5 269 q65.5 132 65.5 164 Z" /><glyph glyph-name="u4EF6" unicode="&#x4ef6;" d="M311 320 q25 -10 51 -10 l5 0 l234 11 l5 0 l0 197 l-5 0 l-138 -8 l-3 0 l-1 -3 q-37 -65 -62.5 -94.5 q-25.5 -29.5 -36 -35.5 q-10.5 -6 -15.5 -8 l0 1 q0 7 20.5 41 q20.5 34 56.5 123.5 q36 89.5 36 136.5 l0 11 l-3 16 q0 4 0.5 4.5 q0.5 0.5 6 0.5 q5.5 0 21.5 -9 q42 -24 42 -40 q0 -7 -16.5 -44.5 q-16.5 -37.5 -26.5 -53.5 l9 1 l110 7 l5 0 l0 187 q0 27 -8.5 39.5 q-8.5 12.5 -9.5 15.5 q0 2 7 2 l10 -1 q55 -10 55 -31 l0 -208 l5 0 l111 7 q22 1 31 5 q9 4 15.5 4 q6.5 0 27 -15 q20.5 -15 20.5 -23 q0 -8 -5 -10 q-5 -2 -12 -3 l-188 -11 l-5 0 l0 -198 l5 0 l199 10 q11 1 23 2 l34 5 q4 0 16 -8 q12 -8 21.5 -19 q9.5 -11 9.5 -18.5 q0 -7.5 -19 -9.5 l-284 -12 l-5 0 l0 -350 q0 -22 -14.5 -22 q-14.5 0 -31 11.5 q-16.5 11.5 -16.5 24.5 q0 3 4 21 q4 18 4 48 l0 264 l-5 0 l-214 -9 l-22 -1 q-25 0 -35 17 l0 1 q-19 29 -19 34 l0 7 ZM365 261 l0 0 ZM853 533 l-1 0 l1 0 ZM605 807 l1 0 l-1 0 ZM595 808 l0 0 ZM288 697 q19 45 19 57.5 q0 12.5 -3 27.5 q0 5 5 5 q5 0 20 -6 q43 -16 43 -35 q0 -23 -71 -151 l-44 -73 l0 -593 q0 -15 -16.5 -15 q-16.5 0 -30.5 14 q-14 14 -14 21.5 q0 7.5 3 24.5 q4 17 4 46 l4 418 l0 15 l-9 -12 q-62 -79 -124 -131 q-26 -20 -31 -20 q-5 0 -5 2 q0 6 12 21 q106 130 185 277 q35 62 53 107 Z" /><glyph glyph-name="u4EF7" unicode="&#x4ef7;" d="M598 803 q0 11 6 11 q6 0 20 -7 q36 -21 37 -41 q-5 -10 -12 -28.5 q-7 -18.5 -14 -28.5 l2 -3 q71 -85 157 -157.5 q86 -72.5 174 -137.5 q11 -8 11 -12 q0 -9 -31 -27 q-11 -7 -16 -6 q-5 1 -33 21 q-28 20 -74 60 q-127 111 -214 220 l-4 -5 q-119 -175 -220 -263 q-54 -47 -84 -57 l0 3 q0 6 16 25 q170 191 246 339 q33 63 33 87 l0 7 ZM231 595 q35 64 54 110.5 q19 46.5 19 59.5 q0 13 -2 22 l0 3 q0 5 8.5 5 q8.5 0 23.5 -7 q36 -16 36 -30 q0 -17 -43.5 -100 q-43.5 -83 -65.5 -117 l-1 -2 l0 -594 q0 -18 -15.5 -18 q-15.5 0 -31.5 14 q-16 14 -16 22.5 q0 8.5 3 25.5 q4 17 4 46 l4 418 l0 15 l-9 -12 q-67 -91 -107.5 -127.5 q-40.5 -36.5 -47.5 -36.5 l-5 1 q0 8 12 24 q102 131 180 278 ZM690 451 q-3 5 -4 7 q0 3 13 3 q13 0 33.5 -7.5 q20.5 -7.5 25.5 -13 q5 -5.5 5 -16.5 l1 -498 q0 -21 -14 -21 q-7 0 -19.5 6.5 q-12.5 6.5 -21.5 17 q-9 10.5 -9 15.5 l0 10 q0 2 4 20 q4 18 4 45 l0 385 q0 25 -18 47 ZM690 451 l0 0 ZM543 359 q0 -128 -18.5 -198.5 q-18.5 -70.5 -51 -114 q-32.5 -43.5 -68 -71 q-35.5 -27.5 -61.5 -40 q-26 -12.5 -28.5 -12.5 q-2.5 0 -2.5 1 q0 5 17 22 q102 95 133 197 q24 79 24 208 l0 32 q0 25 -8.5 38 q-8.5 13 -8.5 19 q0 2 7 2 l10 -2 q56 -10 56 -30 l0 -51 Z" /><glyph glyph-name="u4EFB" unicode="&#x4efb;" d="M285 725 q5 16 5 28 q0 12 -3 25 q0 4 8 4 q8 0 23 -7 q36 -16 36 -29.5 q0 -13.5 -33.5 -82.5 q-33.5 -69 -65.5 -121 l-1 -2 l0 -604 q0 -15 -12 -15 q-12 0 -29 10 q-16 10 -16 27 l0 5 q0 2 3 15 q3 13 3 47 l4 429 l0 15 l-9 -12 q-72 -97 -129 -144 q-23 -19 -29 -19 q-1 1 -1 5.5 q0 4.5 12 20.5 q161 210 234 405 ZM311 364 q0 2 0 4 q1 0 2 0 l28 -6 q15 -2 27 -2 l6 0 l211 10 l5 0 l0 5 l2 222 l0 7 l-27 -8 q-142 -37 -203 -37 q-10 0 -10 2 q0 2 6.5 7.5 q6.5 5.5 79.5 25.5 q73 20 200 72.5 q127 52.5 154 87.5 q4 6 6.5 6 q2.5 0 12.5 -8 q30 -24 30 -52 q0 -12 -3 -13 l-1 0 q-123 -51 -191 -68 l0 -246 l5 0 l208 10 q26 2 38.5 6 q12.5 4 21.5 4 q9 0 25 -13.5 q16 -13.5 16 -26.5 q0 -10 -16 -12 l-293 -14 l-5 0 l0 -298 l5 0 l157 6 q29 1 39.5 4.5 q10.5 3.5 16 3.5 q5.5 0 15.5 -7 q27 -19 27 -35 q0 -9 -15 -11 l-457 -14 l-19 0 q-22 0 -34.5 6.5 q-12.5 6.5 -25.5 42.5 l-1 4 q0 2 2.5 2 q2.5 0 16 -5 q13.5 -5 39.5 -5 l5 0 l166 6 l5 0 l0 5 l2 287 l0 5 l-5 0 l-194 -9 l-26 -1 q-36 0 -53 50 l-1 0 ZM891 -10 l0 0 ZM944 341 l0 0 Z" /><glyph glyph-name="u4EFD" unicode="&#x4efd;" d="M356 747 q0 -29 -108 -207 l-1 -2 l0 -593 q0 -18 -14 -18 q-7 0 -18 7 q-27 17 -27 33 q0 5 3 22 q4 17 4 46 l4 416 l0 16 l-9 -13 q-58 -82 -129 -152 q-13 -14 -20 -14 q-2 0 -2 6.5 q0 6.5 11 19.5 q90 119 165 264 q75 145 75 178 q0 12 -2 21 l0 3 q0 5 8.5 5 q8.5 0 23.5 -7 q36 -16 36 -31 ZM966 365 q-1 -3 -10 -11 q-25 -19 -39 -19 q-5 1 -22 18 q-45 43 -122 147 q-77 104 -110 192 q-6 17 -12 32.5 q-6 15.5 -18.5 26.5 q-12.5 11 -12.5 16 q0 5 27 5 q27 0 37 -8.5 q10 -8.5 14 -22.5 q16 -54 71 -142 q72 -118 186 -221 q10 -9 11 -13 ZM498 729 q0 8 4.5 8 q4.5 0 17.5 -6 q41 -17 42 -36 l-11 -32 q-31 -93 -113 -210 q-47 -67 -119 -135 q-12 -12 -17 -12 q-5 0 -5 5.5 q0 5.5 11 20.5 q79 103 135 220 q56 117 56 157 l0 9 q0 4 -1 9 l0 2 ZM456 363 l10 0 l322 19 q12 0 24 -8 q12 -8 12 -15.5 q0 -7.5 -3 -12.5 q-3 -5 -4 -11 q-26 -232 -57 -329 q-16 -53 -38 -66 q-15 -10 -25.5 -10 q-10.5 0 -38.5 16.5 q-28 16.5 -71.5 58.5 q-43.5 42 -44.5 48.5 q-1 6.5 4 6.5 q9 0 46 -21 q37 -21 62.5 -32 q25.5 -11 29 -11 q3.5 0 6.5 2 q3 2 6.5 7.5 q3.5 5.5 5 9.5 q1.5 4 6.5 13 q33 76 56 302 l1 6 l-6 0 l-150 -9 l-4 0 l-1 -4 q-64 -217 -219 -343 q-35 -29 -63.5 -42.5 q-28.5 -13.5 -33.5 -13.5 l-1 0 q-1 1 -1 5 q0 4 21 21 q173 141 237 366 l2 6 l-7 0 l-54 -3 l-1 0 q-6 -1 -13 -1 l-12 0 q-17 0 -25 6 q-26 28 -26 44 l2 0 l46 -5 ZM788 382 l0 0 Z" /><glyph glyph-name="u4EFF" unicode="&#x4eff;" d="M211 443 q-76 -92 -137 -141 q-23 -18 -24 -18 q0 0 -6 0 q0 0 0 4 q0 4 11 19 q125 150 223 321 q62 107 62 145 l0 9 q0 3 5 3 q5 0 19 -7 q37 -19 37 -33 q0 -7 -29 -65.5 q-29 -58.5 -101 -158.5 l-1 -1 l0 -2 l-1 -586 q0 -15 -12.5 -15 q-12.5 0 -30.5 11.5 q-18 11.5 -18 26.5 q0 5 3.5 19.5 q3.5 14.5 3.5 50.5 l5 415 l0 14 l-9 -11 ZM55 307 l0 0 ZM612 564 l5 0 l0 5 l-4 161 q0 23 -16 42 q-3 3 -3 6 q2 1 6 1 l12 -1 q60 -6 60 -26 l-1 -179 l0 -5 l5 0 l176 10 q19 1 35.5 6 q16.5 5 23 5 q6.5 0 19.5 -7 q33 -18 33 -32 q0 -10 -22 -12 l-306 -17 l-4 0 l-1 -4 q-13 -81 -28 -126 l7 0 l193 11 l9 0 q17 0 32 -9.5 q15 -9.5 15 -19 q0 -9.5 -3 -14.5 q-3 -5 -4 -11 q-31 -256 -82 -388 q-7 -18 -27 -31 q-20 -13 -30 -13 q-19 0 -67.5 42 q-48.5 42 -69 70.5 q-20.5 28.5 -20.5 34.5 q0 3 6.5 3 q6.5 0 43.5 -26 q37 -26 96 -54 q3 -1 8 -1 q5 0 9 8 q60 135 77 356 l0 5 l-5 0 l-198 -9 l-4 0 l-1 -3 q-59 -187 -161 -299 q-41 -45 -70 -65 q-29 -20 -32.5 -20 q-3.5 0 -3.5 4 q0 4 12 19 q112 126 184 313 q38 101 54 217 l1 6 l-6 0 l-129 -7 l-1 0 q-6 -1 -13 -1 l-11 0 q-39 0 -54 42 q-3 3 -3 6 l1 0 q5 0 15 -2.5 q10 -2.5 34 -2.5 l208 12 ZM802 402 l0 0 ZM600 779 l0 0 Z" /><glyph glyph-name="u4F11" unicode="&#x4f11;" d="M328 81 q-25 -22 -30.5 -22 q-5.5 0 -5.5 2 q0 7 9 19 q60 79 124 179 q63 100 113 224 l3 7 l-8 0 l-115 -7 l-1 0 q-17 -2 -33 -2 q-16 0 -26.5 12.5 q-10.5 12.5 -14.5 25.5 l0 1 l-5 12 q5 0 15 -2.5 q10 -2.5 34 -2.5 l12 0 l176 10 l5 0 l0 206 q0 38 -13 57 l-1 3 q0 2 8.5 2 q8.5 0 29 -5.5 q20.5 -5.5 24.5 -11.5 q4 -6 4 -15 l0 -233 l5 0 l142 8 q18 1 35.5 6 q17.5 5 25.5 5 q8 0 21 -6.5 q13 -6.5 22 -15.5 q9 -9 9 -15 q0 -10 -23 -13 l-205 -12 l-9 -1 l5 -7 q143 -220 299 -362 q7 -6 8 -9 q-2 -5 -17.5 -15 q-15.5 -10 -28 -10 q-12.5 0 -17.5 6 q-140 141 -263 344 l-9 15 l0 -18 l-1 -525 q0 -14 -16 -14 q-10 0 -26 8.5 q-16 8.5 -16 24.5 l0 4 q7 56 7 90 l0 304 q0 22 1.5 48.5 q1.5 26.5 2.5 46.5 l3 57 l-12 -35 q-34 -105 -109 -209 q-75 -104 -138 -159 ZM869 509 l-1 0 l1 0 ZM283 757 l-4 25 q0 4 11 4 q25 0 49 -24 q9 -8 9 -16.5 q0 -8.5 -21 -60.5 q-21 -52 -78 -144 l-1 -2 l0 -604 q0 -14 -12.5 -14 q-12.5 0 -30.5 9 q-16 9 -16 26 l0 5 q0 3 3 20 q3 17 3 42 l4 431 l0 15 l-9 -12 q-77 -105 -121 -141 q-23 -19 -27 -19 q-4 0 -4 5 q0 5 12 21 q102 137 167.5 269 q65.5 132 65.5 164 l0 1 Z" /><glyph glyph-name="u4F17" unicode="&#x4f17;" d="M908 -73 q-14 1 -78 51 q-113 83 -180 202 l-5 9 l-4 -9 q-36 -86 -105 -150 q-69 -64 -143 -92 q-21 -10 -26.5 -10.5 q-5.5 -0.5 -5.5 7 q0 7.5 11 14.5 l1 0 q94 67 161 153 q93 119 93 292 q-1 17 -6.5 26.5 q-5.5 9.5 -5.5 16.5 q2 2 14.5 2 q12.5 0 39.5 -13 q15 -8 16 -22 l0 -1 l1 -8 q0 -18 -1.5 -27 q-1.5 -9 -4.5 -30 l-15 -86 l0 -2 l1 -1 q87 -172 277 -274 l0 -1 q10 -3 10 -8 q-1 -2 -6 -11 q-22 -26 -39 -28 ZM60 -80 q-11 0 -11 5 q0 7 13 15 q144 108 201 225 q46 92 58 219 q0 30 -4 38 q-4 8 -4 11 q0 6 11 6 l18 -4 q40 -10 40 -31 q0 -51 -26 -141 l-1 -3 l3 -2 q68 -62 98.5 -100 q30.5 -38 31 -44 q0.5 -6 -6.5 -16 q-17 -18 -28 -18 q-11 0 -19 11 q-53 72 -94 113 l-3 -7 q-36 -97 -110 -166.5 q-74 -69.5 -140 -98.5 q-23 -11 -27 -12 ZM527 771 q0 -10 -18 -37 l2 -3 q172 -230 414 -335 q15 -6 15 -11 q0 -11 -34 -35 q-12 -7 -16 -8 q-7 2 -46 24 q-215 125 -356 318 l-4 6 l-4 -6 q-97 -158 -224 -258 q-92 -71 -167 -99 l-27 -9 q-3 0 -4 1 q0 8 18 20 q173 118 274 249 q75 98 101 170 q10 29 10 40.5 q0 11.5 6.5 11.5 q6.5 0 21.5 -6 q38 -15 38 -33 ZM89 327 l0 0 Z" /><glyph glyph-name="u4F18" unicode="&#x4f18;" d="M809 554 l-2 0 q-7 0 -13 10 q-38 63 -100 121 q-6 6 -6 12.5 q0 6.5 10.5 16.5 q10.5 10 18 10 q7.5 0 19.5 -11 q40 -39 79 -79 q29 -32 29 -43 q0 -11 -13.5 -23.5 q-13.5 -12.5 -21.5 -13.5 ZM248 -65 q0 -14 -15.5 -14 q-15.5 0 -28.5 11 q-12 11 -12 21.5 q0 10.5 3 27 q3 16.5 7 472.5 l0 16 l-9 -13 q-71 -102 -124 -150 q-22 -20 -26.5 -20 q-4.5 0 -4.5 5.5 q0 5.5 12 21.5 q110 149 181 306 q28 61 40 99.5 q12 38.5 12 46.5 l0 1 l-4 28 q0 5 6.5 5 q6.5 0 21 -7 q14.5 -7 26 -17.5 q11.5 -10.5 11.5 -18.5 q0 -8 -1 -11 l0 -1 l-1 0 q-37 -101 -93 -204 l-1 -1 l0 -604 ZM631 759 q-2 -168 -19 -270 l6 0 l211 13 q23 2 35.5 8 q12.5 6 16.5 6 q4 0 16 -8 q33 -23 33 -39 q0 -8 -19 -10 l-302 -18 l-4 0 l-1 -4 q-20 -99 -29 -122 l0 -1 q-39 -131 -101.5 -219 q-62.5 -88 -159.5 -157 q-3 -1 -13.5 -7.5 q-10.5 -6.5 -16.5 -6.5 q-3 0 -3 6 q0 6 22 26 q173 162 224 395 q12 50 18 86 l-6 0 l-171 -9 q-25 0 -34 8 q-28 23 -28 44 l0 1 l1 0 q3 0 17 -3.5 q14 -3.5 30 -3.5 l194 11 l4 0 l1 4 q17 115 17 224 q0 48 -17 79 l0 1 q-1 2 -1 5 q0 3 6.5 3 q6.5 0 25.5 -5 q47 -12 47 -37 ZM368 428 l0 0 ZM803 -50 q-79 0 -109.5 10.5 q-30.5 10.5 -44.5 30.5 q-14 20 -14 56 l7 268 q0 37 -4 47.5 q-4 10.5 -5 13.5 q1 3 15.5 3 q14.5 0 31.5 -9 q15 -9 15 -24 l-7 -278 q0 -27 8 -41 q15 -23 106 -23 q91 0 105 17 q13 17 22 65 q9 48 12 84 q3 36 13 36 q6 0 9.5 -38.5 q3.5 -38.5 3.5 -78.5 q0 -40 -3 -67 q-3 -27 -17 -43 q-25 -29 -144 -29 Z" /><glyph glyph-name="u4F1A" unicode="&#x4f1a;" d="M51 335 l-21 -5 q0 0 -3 0 q1 7 20 20 q119 82 231.5 184.5 q112.5 102.5 194.5 235.5 q13 22 13 37.5 q0 15.5 6 15.5 q10 0 34.5 -18.5 q24.5 -18.5 24.5 -26 q0 -7.5 -5 -14.5 l-27 -38 l-3 -4 l4 -3 q142 -132 283 -217 q74 -44 155 -85 q14 -8 15 -12 q0 -4 -9 -14 q-26 -25 -40 -26 q-31 10 -137 80 q-146 95 -295 238 l-4 3 l-3 -4 q-190 -241 -432 -346 l-1 -1 l-1 0 ZM964 391 l1 1 q-1 0 -1 -1 ZM341 453 l259 14 l1 0 q25 3 33 6.5 q8 3.5 12.5 3.5 q4.5 0 17 -8.5 q12.5 -8.5 21.5 -19 q9 -10.5 9 -14.5 q0 -7 -19 -9 l-298 -17 l-1 0 q-7 -1 -14 -1 l-11 0 q-17 0 -26 6 q-31 27 -31 45 l2 0 l44 -6 l1 0 ZM167 283 l606 30 q32 3 40 6.5 q8 3.5 11 3.5 q3 0 15 -7 q35 -21 35 -38 q0 -7 -19 -9 l-380 -18 l-3 0 l-1 -3 q-76 -132 -142 -223 l-7 -9 l12 1 q163 18 329 43 l8 1 q-18 26 -88 106 q-8 10 -8 14.5 q0 4.5 10.5 15.5 q10.5 11 19.5 11 q9 0 19 -11 q121 -136 162 -190 q41 -54 41 -61.5 q0 -7.5 -14 -20.5 q-14 -13 -23.5 -13 q-9.5 0 -21.5 17 q-28 45 -68 95 l-2 2 l-3 0 l-152 -26 q-275 -47 -307.5 -47 q-32.5 0 -37.5 3 q-17 17 -24.5 30.5 q-7.5 13.5 -7.5 17.5 q0 4 3 4 l5 0 q18 -3 30 -3 l18 0 q5 0 12 1 l23 2 l3 0 l1 2 q81 117 140 230 l4 7 l-8 0 l-196 -9 l-1 0 q-7 -1 -14 -1 l-11 0 q-17 0 -26 6 q-31 26 -31 46 l2 0 l46 -6 l1 0 ZM234 6 l-1 0 l1 0 ZM186 -31 l0 0 Z" /><glyph glyph-name="u4F20" unicode="&#x4f20;" d="M520 129 q13 0 108 -72 q99 84 167 178 l6 9 l-286 -20 q-17 -1 -22.5 -2.5 q-5.5 -1.5 -13.5 -0.5 q-8 1 -21 16 q-13 15 -9 28 l3 8 q20 41 35 92 l10 34 l-132 -7 q-26 0 -39 13 q-10 9 -16 23.5 q-6 14.5 -6 16.5 q4 -1 15 -4.5 q11 -3.5 37 -3.5 l9 0 l145 7 l38 127 l-75 -4 q-10 -1 -14 -1 l-21 0 q-19 0 -36 31 q-6 13 -6 18 q9 -2 16.5 -4.5 q7.5 -2.5 35.5 -2.5 l8 0 l104 6 l35 119 q9 31 0 58 q-3 8 -2 11 q4 6 31 -9.5 q27 -15.5 29.5 -21.5 q2.5 -6 -1.5 -21 l-39 -133 l156 9 q28 1 39.5 6 q11.5 5 17 5 q5.5 0 26 -15.5 q20.5 -15.5 20.5 -25.5 q0 -5 -20 -7 l-252 -14 l-37 -127 l305 15 q30 2 42 6.5 q12 4.5 16.5 4.5 q4.5 0 16.5 -9.5 q12 -9.5 21 -20 q9 -10.5 9 -14.5 q0 -4 -21 -6 l-403 -22 l-39 -135 l312 20 l11 0 q18 0 30 -9.5 q12 -9.5 12 -17 q0 -7.5 -6.5 -14 q-6.5 -6.5 -8.5 -9.5 q-73 -97 -195 -208 q63 -48 80 -65 q18 -17 19 -23.5 q1 -6.5 -11 -20.5 q-12 -14 -19 -14 q-7 0 -37.5 29 q-30.5 29 -85.5 75 q-55 46 -102 78 q-17 12 -3 30 q7 10 14 11 ZM365 392 l0 0 ZM452 273 l-1 0 q1 0 1 0 ZM449 265 q0 0 0 1 l0 -1 ZM860 237 l0 0 ZM822 287 l0 0 ZM39 292 q-1 0 -1 3.5 q0 3.5 13 21.5 q95 118 181 278 q36 65 55 111.5 q19 46.5 19 59.5 q0 13 -2 22 l0 3 q0 5 8.5 5 q8.5 0 22.5 -7 q36 -15 37 -31 q-1 -5 -15 -35 q-38 -92 -97 -185 l3 -614 q0 -16 -13 -16 q-13 0 -31 12 q-18 12 -18 28 q0 4 3.5 20.5 q3.5 16.5 3.5 45.5 l2 450 l-9 -12 q-38 -52 -92.5 -106 q-54.5 -54 -69.5 -54 Z" /><glyph glyph-name="u4F24" unicode="&#x4f24;" d="M495 573 q-61 -77 -100.5 -106 q-39.5 -29 -52.5 -37 q0 8 31.5 44 q31.5 36 80 111.5 q48.5 75.5 68 127.5 q19.5 52 19.5 62 q0 10 -3.5 15.5 q-3.5 5.5 -3.5 10.5 q25 0 58 -20 q13 -9 13 -16 q0 -7 -24 -53 q-24 -46 -49 -85 l-5 -9 l292 20 q33 3 47 7 q14 4 19 4 q5 0 17 -6 q36 -14 36 -31 q0 -8 -24 -10 l-415 -27 l-3 0 l-1 -2 ZM592 781 l0 0 ZM691 483 q-1 -23 -13 -96 l6 0 l186 12 l7 0 q17 0 27.5 -9 q10.5 -9 10.5 -15.5 q0 -6.5 -2.5 -12.5 q-2.5 -6 -3.5 -11 l0 -1 q-16 -188 -41 -290.5 q-25 -102.5 -49.5 -119 q-24.5 -16.5 -35 -16.5 q-10.5 0 -46 15.5 q-35.5 15.5 -92.5 57.5 q-57 42 -57 55 l0 3 q11 -1 44 -17 q105 -49 140 -47 q13 0 24 23 q38 85 61 335 l1 5 l-6 0 l-181 -12 l-4 0 l-1 -4 q-46 -161 -153 -273 q-82 -88 -155 -124 q-16 -8 -25 -11 q0 7 22 27 q81 70 152 165 q71 95 101 210 l2 6 l-7 0 l-97 -7 q-32 -2 -49.5 -2 q-17.5 0 -23 3 q-5.5 3 -20 16 q-14.5 13 -14.5 29 q20 -4 60 -4 l157 10 l4 0 q7 28 11 79 l0 6 q0 24 -12 41 q-5 10 -6 15 q31 -1 62 -15 q16 -6 16 -24 l0 -2 ZM870 399 l0 0 ZM232 595 q36 65 55 111.5 q19 46.5 19 59.5 q0 13 -2 22 l0 3 q0 5 8.5 5 q8.5 0 22.5 -7 q36 -15 37 -31 q-1 -5 -15 -35 q-38 -92 -96 -183 l-1 -2 l0 -1 l3 -613 q0 -16 -13 -16 q-13 0 -32 12 q-17 12 -17 28 q0 4 3.5 20.5 q3.5 16.5 3.5 45.5 l2 435 l0 15 l-9 -12 q-38 -52 -92.5 -106 q-54.5 -54 -69.5 -54 l-1 0 l0 4 q0 3 13 21 q95 118 181 278 Z" /><glyph glyph-name="u4F30" unicode="&#x4f30;" d="M809 304 l2 0 q2 1 4 1 l6 0 q18 0 29 -13 q11 -13 11 -19 q0 -6 -3.5 -11 q-3.5 -5 -4.5 -12 l-26 -201 l0 -2 l1 -2 q24 -30 24 -36.5 q0 -6.5 -5.5 -8 q-5.5 -1.5 -15.5 -2.5 l-331 -9 l-5 0 l0 -5 l3 -36 l0 -3 q0 -16 -17 -16 q-17 0 -31 12 q-13 12 -13 21 l4 45 l0 10 q0 5 -1 11 l-17 207 q-3 37 -9 50 q-6 13 -6 16.5 q0 3.5 12 3.5 q12 0 61 -17 l2 0 l120 5 l5 0 l0 5 l-1 181 l0 5 l-5 0 l-229 -12 q-23 0 -35.5 12.5 q-12.5 12.5 -18.5 41.5 q4 0 15.5 -4 q11.5 -4 37.5 -4 l6 0 l224 12 l5 0 l0 5 l-1 204 q0 21 -7.5 34.5 q-7.5 13.5 -7.5 17.5 q1 1 7 1 q6 0 22 -3 q44 -6 44 -27 l-2 -223 l0 -5 l5 0 l179 11 q29 2 43.5 6 q14.5 4 21 4 q6.5 0 19 -7 q12.5 -7 22 -17 q9.5 -10 9.5 -18 q0 -8 -19 -10 l-275 -16 l-5 0 l0 -5 l-2 -181 l0 -5 l5 0 l144 8 ZM498 -52 l0 0 ZM831 -2 l0 0 ZM373 472 l0 0 ZM285 702 q19 48 19 60.5 q0 12.5 -3 25.5 q0 3 9 3 q9 0 24 -7 q38 -17 38 -34 q0 -9 -40.5 -89 q-40.5 -80 -68.5 -124 l-1 -2 l0 -597 q0 -16 -13 -16 q-16 0 -32 12 q-16 12 -16 22 q0 10 3.5 26.5 q3.5 16.5 3.5 45.5 l4 418 l0 16 l-9 -13 q-72 -100 -132 -150 q-26 -21 -33 -21 l-3 1 q0 8 12 23 q104 126 184 285 q35 67 54 115 ZM791 258 l-309 -14 l-5 0 l0 -5 l15 -200 l0 -5 l5 0 l274 9 l5 0 l0 5 l20 205 l1 5 l-6 0 Z" /><glyph glyph-name="u4F38" unicode="&#x4f38;" d="M858 267 q26 -26 26 -40 q0 -6 -15 -8 l-207 -8 l-5 0 l0 -5 l-1 -284 q0 -15 -11 -15 q-8 0 -21 7 q-27 12 -27 27 q7 49 7 106 l1 157 l0 5 l-5 0 l-135 -5 l-5 0 l0 -5 l2 -27 l0 -2 q0 -12 -15.5 -12 q-15.5 0 -29.5 12 q-13 12 -13 21 l0 7 q1 10 1 18 l0 32 q0 8 -1 17 l-18 266 q-4 42 -17 69 q-1 2 -1 5 q0 3 14 3 q14 0 58 -18 l2 0 l160 8 l5 0 l0 5 l1 131 q0 22 -10 42 q-10 20 -10 25 q1 1 8.5 1 q7.5 0 30 -7 q22.5 -7 27.5 -15 q4 -9 4 -18 l0 -160 l5 0 l180 9 l6 0 q20 0 34.5 -11 q14.5 -11 14.5 -20 q0 -9 -3.5 -15.5 q-3.5 -6.5 -4.5 -13.5 l-32 -281 l0 -3 ZM869 219 l0 0 ZM843 611 l0 0 ZM404 198 l0 0 ZM462 172 l0 0 ZM285 701 q16 43 16 55 q0 12 -2 21 l0 3 q0 5 8.5 5 q8.5 0 22.5 -7 q36 -16 36 -32.5 q0 -16.5 -37.5 -90.5 q-37.5 -74 -69.5 -125 l-1 -2 l0 -1 l-1 -589 q0 -16 -13 -16 q-16 0 -31 12 q-15 12 -15 21.5 q0 9.5 3 26.5 q4 17 4 46 l5 414 l0 15 l-9 -12 q-62 -84 -130 -143 q-26 -23 -30.5 -23 q-4.5 0 -4.5 5 q0 5 12 20 q115 142 190 292 q32 62 47 105 ZM829 567 l-166 -9 l-5 0 l0 -5 l-1 -114 l0 -5 l5 0 l157 8 l5 0 l0 5 l10 115 l0 5 l-5 0 ZM602 555 l-160 -9 l-5 0 l0 -5 l8 -113 l0 -5 l5 0 l151 8 l5 0 l0 5 l1 114 l0 5 l-5 0 ZM815 401 l-153 -8 l-5 0 l0 -137 l5 0 l142 5 l5 0 l0 5 l11 130 l0 5 l-5 0 ZM601 390 l-148 -8 l-5 0 l0 -5 l9 -124 l0 -5 l5 0 l138 5 l5 0 l0 5 l1 127 l0 5 l-5 0 Z" /><glyph glyph-name="u4F3A" unicode="&#x4f3a;" d="M273 758 l-4 26 q0 5 4 5 l10 -3 q28 -8 41.5 -18.5 q13.5 -10.5 13.5 -17.5 q0 -7 -21 -62.5 q-21 -55.5 -76 -150.5 l-1 -2 l0 -600 q0 -14 -13 -14 q-13 0 -31 9 q-16 9 -16 26 l0 5 q0 3 3 20 q3 17 3 42 l3 419 l0 16 l-9 -13 q-61 -84 -115 -129 q-22 -19 -25.5 -19 q-3.5 0 -3.5 4.5 q0 4.5 14 24.5 q90 122 138.5 215 q48.5 93 66.5 149.5 q18 56.5 18 66.5 l0 1 ZM382 715 q27 -7 50 -7 l6 0 l411 21 l10 0 q18 0 27 -10 q9 -10 9 -17 l-5 -23 l0 -1 l-2 -693 l1 -25 q0 -25 -15.5 -37.5 q-15.5 -12.5 -24.5 -12.5 q-9 0 -48 18 q-39 18 -102.5 61.5 q-63.5 43.5 -63.5 54.5 q1 1 7 1 q6 0 52.5 -19.5 q46.5 -19.5 132.5 -43.5 l6 -2 l0 7 l2 688 l0 5 l-5 0 l-373 -20 l-26 -1 q-17 0 -21.5 5 q-4.5 5 -16.5 21.5 q-12 16.5 -12 22 q0 5.5 1 7.5 ZM849 729 l0 0 ZM335 542 q32 -8 47 -8 l5 0 l250 11 q15 0 27 4.5 q12 4.5 15.5 4.5 q3.5 0 13.5 -6 q31 -20 31 -34 q0 -5 -17 -7 l-317 -18 q-22 0 -29 8 q-26 27 -26 44 l0 1 ZM390 489 l0 0 ZM444 387 l2 0 l192 10 l7 0 q26 0 34 -19 q3 -7 3 -9 q0 -2 -2 -6 q-2 -4 -3 -9 l-19 -123 l0 -3 l1 -1 q25 -29 25 -34.5 q0 -5.5 -6 -7 q-6 -1.5 -17 -2.5 l-196 -8 l-5 0 l0 -5 l1 -19 l0 -3 q0 -16 -16.5 -16 q-16.5 0 -29.5 11.5 q-13 11.5 -13 19.5 q0 21 3 42 l0 13 l-10 116 q-2 37 -11.5 51.5 q-9.5 14.5 -9.5 20.5 l6 2 l2 0 q13 0 62 -21 ZM679 378 l0 0 ZM638 397 l0 0 ZM461 151 l0 0 ZM617 352 l-166 -8 l-5 0 l0 -5 l9 -117 l0 -5 l5 0 l145 5 l5 0 l0 5 l12 120 l1 5 l-6 0 Z" /><glyph glyph-name="u4F3C" unicode="&#x4f3c;" d="M263 705 q15 44 15 54.5 q0 10.5 -3 25.5 q0 5 7.5 5 q7.5 0 21.5 -7 q37 -14 37 -28 q0 -16 -34.5 -90.5 q-34.5 -74.5 -63.5 -122.5 l-1 -2 l0 -1 l1 -606 q0 -14 -16.5 -14 q-16.5 0 -29 12 q-12.5 12 -12.5 21.5 q0 9.5 3 26.5 q3 17 3 41 l3 429 l0 16 l-9 -13 q-27 -39 -77 -97 q-50 -58 -68 -58 q-1 1 -1 5.5 q0 4.5 12 20.5 q99 129 168 275 q29 63 44 107 ZM751 234 q204 -218 204 -247 q0 -12 -15.5 -25 q-15.5 -13 -22 -13 q-6.5 0 -17.5 16 q-89 131 -170 223 l-5 5 q-65 -108 -151 -179 q-86 -71 -111 -71 q-4 0 -4 5 q0 9 32 33 q32 24 77 73 q144 159 189 363 q28 127 33 246 l0 13 q0 25 -5 38 q-5 13 -6 16 q2 1 8.5 1 q6.5 0 29.5 -7.5 q23 -7.5 27 -14 q4 -6.5 4 -15.5 l0 -8 q-18 -261 -88 -424 l-10 -23 l-1 -3 l2 -2 ZM848 686 l0 0 ZM425 642 q8 -6 8 -17 l-2 -446 l0 -10 l8 6 q71 50 161 128 q13 11 19.5 11 q6.5 0 6.5 -4 q0 -8 -16 -26 q-63 -71 -145.5 -147 q-82.5 -76 -96.5 -76 q-22 0 -54 29 q-6 6 -8 10 q5 3 23 8 q18 5 38 19 l11 7 l2 1 l0 3 l2 458 q0 29 -17 55 l-2 4 q0 2 8 2 q33 0 54 -15 ZM425 642 l0 0 ZM365 651 l0 0 ZM669 470 q0 -6 -9.5 -13.5 q-9.5 -7.5 -18 -10.5 q-8.5 -3 -10.5 -4 q-8 1 -17 16 q-36 61 -102 137 q-6 7 -6 14.5 q0 7.5 10 15.5 q10 8 16 8 q10 0 73.5 -71.5 q63.5 -71.5 63.5 -91.5 Z" /><glyph glyph-name="u4F46" unicode="&#x4f46;" d="M192 -47 l6 70 l4 435 l0 16 l-9 -13 q-66 -95 -124 -145 q-22 -19 -26 -19 q-4 0 -4 4.5 q0 4.5 13 22.5 q99 132 163 268 q64 136 64 169 l0 1 l-4 25 q0 4 9 4 q23 0 47 -22 q10 -9 10 -16 q0 -7 -20.5 -56.5 q-20.5 -49.5 -69.5 -141.5 l-1 -1 l0 -619 q0 -14 -15.5 -14 q-15.5 0 -29.5 12 q-13 12 -13 20 ZM425 208 l1 10 q2 9 2 16 l0 26 q0 7 -1 14 l-17 346 q-3 35 -12 52.5 q-9 17.5 -10 23.5 q2 1 10 1 q8 0 66 -21 l2 0 l321 19 l13 1 q27 0 40 -24 q4 -9 4 -14 l-7 -23 l0 -1 l-27 -355 l0 -2 l1 -1 q30 -34 30 -41 q0 -7 -6.5 -8.5 q-6.5 -1.5 -18.5 -2.5 l-328 -12 l-5 0 l0 -5 l1 -18 l0 -3 q0 -12 -15 -12 q-15 0 -30 13 q-14 13 -14 21 ZM427 274 l0 1 l0 -1 ZM484 189 l0 0 ZM800 696 l0 0 ZM773 648 l-305 -18 l-5 0 l0 -5 l7 -147 l0 -5 l5 0 l289 16 l5 0 l0 5 l9 149 l0 5 l-5 0 ZM761 442 l-283 -15 l-5 0 l0 -5 l7 -157 l0 -5 l5 0 l266 10 l5 0 l0 5 l10 162 l0 5 l-5 0 ZM342 -3 q-30 0 -49 56 l0 1 l1 0 q5 0 17.5 -3 q12.5 -3 34.5 -3 l8 0 l508 16 q23 0 35.5 4 q12.5 4 17 4 q4.5 0 16.5 -8 q35 -22 35 -38 q0 -8 -19 -10 l-572 -17 q-20 -2 -33 -2 ZM947 16 l0 0 Z" /><glyph glyph-name="u4F4D" unicode="&#x4f4d;" d="M234 594 q34 63 51.5 108.5 q17.5 45.5 17.5 57.5 l0 14 q0 4 -3 17 q0 2 7.5 2 q7.5 0 23 -7.5 q15.5 -7.5 27 -17.5 q11.5 -10 11.5 -17.5 q0 -7.5 -34 -81 q-34 -73.5 -78 -141.5 l-1 -2 l0 -603 q0 -15 -17.5 -15 q-17.5 0 -30.5 14 q-13 14 -13 21.5 q0 7.5 3 21 q3 13.5 3 47.5 l4 427 l0 15 l-9 -12 q-35 -45 -74 -85 q-69 -74 -85 -74 q-3 0 -3 6.5 q0 6.5 12 19.5 q113 140 188 285 ZM413 502 l-30 -1 q-17 0 -22 4 q-31 27 -31 49 l0 1 q5 0 15.5 -2.5 q10.5 -2.5 33.5 -2.5 l13 0 l186 10 l5 0 l0 5 l-3 158 q0 23 -19 52 q-2 3 -2 5.5 q0 2.5 13 2.5 q13 0 34.5 -7 q21.5 -7 26.5 -12.5 q5 -5.5 5 -13.5 l-1 -182 l0 -5 l5 0 l160 8 q24 2 37 6.5 q13 4.5 16.5 4 q3.5 -0.5 15.5 -6.5 q36 -21 36 -37 q0 -8 -18 -10 l-476 -26 ZM889 528 l-1 0 l1 0 ZM561 775 l0 0 ZM365 -22 l-15 0 q-22 0 -30 6 q-26 22 -31 51 l1 0 q5 0 20 -4 q15 -4 40 -4 l268 8 l4 0 l1 3 q61 169 90 347 q6 34 6 44 q0 10 -6 22.5 q-6 12.5 -6 16 q0 3.5 9 3.5 l11 -2 q28 -3 44 -12.5 q16 -9.5 16 -16.5 q0 -7 -12.5 -61.5 q-12.5 -54.5 -43 -158 q-30.5 -103.5 -65.5 -184.5 l8 0 l188 6 q23 0 37.5 4.5 q14.5 4.5 18.5 4.5 q4 0 15 -7 l1 0 q34 -19 34 -37 q0 -11 -21 -13 l-582 -16 ZM947 -6 l0 0 ZM569 149 q6 -28 6 -36.5 q0 -8.5 -9 -14.5 q-11 -6 -20 -7 l-1 0 l-11 -2 q-14 0 -18 23 q-31 170 -77 298 q-4 8 -4 16.5 q0 8.5 14.5 15 q14.5 6.5 20.5 6.5 q10 0 17 -20 q59 -159 82 -279 Z" /><glyph glyph-name="u4F4E" unicode="&#x4f4e;" d="M608 637 l-152 -40 l0 -4 l-1 -201 l0 -5 l5 0 l172 15 l6 0 q-18 109 -29 229 l-1 6 ZM192 -45 l1 11 q5 26 5 57 l4 430 l0 15 l-9 -12 q-55 -72 -98.5 -115.5 q-43.5 -43.5 -55.5 -43.5 l-1 0 l0 3 q0 6 12 23 q112 154 172.5 279.5 q60.5 125.5 60.5 153.5 q0 12 -4 25 q1 5 9 5 q8 0 22 -6 q14 -6 24.5 -15.5 q10.5 -9.5 10.5 -20 q0 -10.5 -28 -73.5 q-28 -63 -68 -130 l-1 -2 l0 -604 q0 -14 -9 -14 q-22 0 -35 11 q-12 11 -12 23 ZM462 641 l3 0 q84 20 185.5 59 q101.5 39 125.5 69 q5 8 9 11 q5 -4 17 -21 q12 -17 12 -31.5 q0 -14.5 -9 -17.5 q-74 -30 -146 -54 l0 -4 q10 -139 28 -242 l1 -4 l4 0 q106 10 123.5 15.5 q17.5 5.5 27 5.5 q9.5 0 27.5 -14 q18 -14 18 -27 q0 -8 -17 -10 l-170 -13 l-6 0 l1 -6 q25 -115 60.5 -199.5 q35.5 -84.5 66.5 -131.5 q31 -47 47 -47 q15 1 33.5 40.5 q18.5 39.5 46.5 123.5 q8 22 14 28 q2 -6 2 -19 q0 -60 -49 -212 q-12 -36 -37 -36.5 q-25 -0.5 -72 50 q-47 50.5 -90.5 153 q-43.5 102.5 -70.5 247.5 l-1 4 l-4 0 l-182 -14 l-5 0 l0 -5 l-2 -270 l0 -7 l7 2 q68 28 112.5 50.5 q44.5 22.5 52.5 22.5 l1 0 l0 -3 q-1 -14 -63.5 -56 q-62.5 -42 -125.5 -76.5 q-63 -34.5 -75 -34.5 q-20 0 -40 33 q-9 13 -11.5 16.5 q-2.5 3.5 -2.5 8 q0 4.5 3 5.5 l18 -2 l1 0 q20 0 72 13 l0 4 l2 525 q0 55 -16 88 l-1 4 q0 2 7.5 2 q7.5 0 67.5 -23 ZM950 143 l0 0 ZM871 376 l1 0 l-1 0 ZM741 -90 q-13 -12 -19 -12 q-6 0 -13 7 q-53 57 -121 112 q-9 6 -9 12.5 q0 6.5 8.5 16 q8.5 9.5 12.5 9.5 q20 0 87 -58.5 q67 -58.5 67 -69.5 q0 -5 -13 -17 Z" /><glyph glyph-name="u4F4F" unicode="&#x4f4f;" d="M706 663 q0 -9 -10 -22.5 q-10 -13.5 -17.5 -13.5 q-7.5 0 -16.5 10 q-72 73 -159 131 q-12 8 -12 14 q0 6 9 17 q9 11 18.5 11 q9.5 0 69 -42.5 q59.5 -42.5 106.5 -85.5 q12 -10 12 -19 ZM293 769 l-3 13 q0 4 8 4 q24 0 48 -22 q10 -9 10 -17 q0 -8 -14 -39 q-35 -87 -94 -176 l-1 -2 l0 -1 l-1 -594 q0 -14 -12.5 -14 q-12.5 0 -30.5 9 q-16 9 -16 26 l0 5 q0 3 3 20 q3 17 3 42 l8 427 l0 15 l-9 -12 q-59 -77 -100.5 -116.5 q-41.5 -39.5 -48.5 -39.5 q-7 0 -7 2 q0 8 12 23 q87 110 166 248.5 q79 138.5 79 187.5 l0 11 ZM835 279 l-189 -10 l-5 0 l0 -252 l5 0 l203 5 q23 0 35.5 4 q12.5 4 19.5 4 q7 0 19 -8 q12 -8 21 -18.5 q9 -10.5 9 -18.5 q0 -8 -17 -10 l-2 0 l-563 -13 l-30 -1 q-20 0 -31.5 13.5 q-11.5 13.5 -15.5 25.5 l-5 15 l0 1 l1 0 q5 0 16.5 -3 q11.5 -3 43.5 -3 l231 6 l5 0 l0 250 l-5 0 l-112 -6 l-30 -1 q-17 0 -21 4 q-32 28 -32 41 q0 4 1 7 q5 0 15 -2.5 q10 -2.5 33 -2.5 l13 0 l132 6 l5 0 l0 221 l-5 0 l-162 -9 l-1 0 q-7 -1 -14 -1 l-14 0 q-18 0 -26.5 7 q-8.5 7 -18.5 21 q-9 14 -9 19 q0 5 1 7 q5 0 15 -2.5 q10 -2.5 33 -2.5 l13 0 l383 21 q25 2 36.5 6 q11.5 4 15.5 4 q4 0 16 -7 q36 -23 36 -38 q0 -6 -17 -8 l-222 -13 l-5 0 l0 -222 l5 0 l103 5 q24 2 37 6.5 q13 4.5 16.5 4.5 q3.5 0 14.5 -7 q37 -24 37 -36 q0 -7 -18 -9 ZM835 279 l-1 0 l1 0 ZM936 -25 l0 0 Z" /><glyph glyph-name="u4F53" unicode="&#x4f53;" d="M376 514 q-35 0 -51 47 l0 1 l1 0 l48 -5 l14 0 l195 11 l5 0 l0 5 l1 170 q0 28 -9 40 q-9 12 -9 15 q0 3 8 3 q8 0 24 -4 q36 -9 36 -26 l-1 -195 l0 -5 l5 0 l151 9 q32 2 42 6 q10 4 16.5 4 q6.5 0 19.5 -7.5 q13 -7.5 22.5 -17.5 q9.5 -10 9.5 -17 q0 -4 -13 -5 l-234 -13 l-9 0 l5 -8 q140 -231 318 -385 q11 -8 11 -12 q0 -4 -6 -11 q-19 -23 -38 -23 q-7 0 -14 6 q-120 118 -238 291 q-16 22 -41 84 l-10 23 l0 -40 q3 -45 3 -74 l-1 -138 l0 -80 l5 0 l51 3 q26 1 39 6 q13 5 19.5 5 q6.5 0 17.5 -7 q34 -20 34 -35 q0 -6 -11 -8 l-2 0 l-148 -8 l-5 0 l0 -5 l-1 -180 q0 -23 -14 -23 q-16 0 -30.5 14.5 q-14.5 14.5 -14.5 21.5 q8 64 8 89 l0 80 l-5 0 l-55 -3 q-10 -1 -18 -1 l-15 0 q-22 0 -33 8 q-11 8 -18 22.5 q-7 14.5 -7 18.5 l48 -6 l1 0 l14 1 l84 4 l5 0 l0 26 l1 121 l0 67 q0 34 3 88 l1 19 l2 46 l-12 -45 q-30 -108 -108.5 -224 q-78.5 -116 -138.5 -171 q-26 -24 -31 -24 q-5 0 -5 5.5 q0 5.5 14 23.5 q145 186 234 424 l2 7 l-7 0 l-124 -7 q-24 -2 -41 -2 ZM924 97 l1 0 q-1 0 -1 0 ZM891 543 l-1 0 l1 0 ZM283 757 l-4 25 q0 4 9 4 q23 0 47 -22 q10 -9 10 -17.5 q0 -8.5 -14 -40.5 q-32 -83 -82 -165 l-1 -2 l0 -604 q0 -14 -15.5 -14 q-15.5 0 -28.5 11 q-12 11 -12 18 l0 11 q0 3 3 20 q3 17 3 42 l4 430 l0 15 l-9 -12 q-69 -93 -124 -140 q-23 -19 -27 -19 q-4 0 -4 5 q0 5 12 21 q102 137 167.5 269 q65.5 132 65.5 164 l0 1 Z" /><glyph glyph-name="u4F55" unicode="&#x4f55;" d="M285 725 q5 16 5 28 q0 12 -3 25 q0 4 8 4 q8 0 23 -7 q35 -16 36 -30 q-1 -5 -13 -33 q-34 -87 -90 -175 l-1 -2 l0 -599 q0 -15 -16 -15 q-16 0 -29.5 11.5 q-13.5 11.5 -13.5 21.5 q0 10 3 23.5 q3 13.5 3 47.5 l4 426 l0 15 l-9 -12 q-63 -86 -125 -138 q-23 -20 -29 -20 q-1 1 -1 5.5 q0 4.5 12 20.5 q166 217 236 403 ZM945 626 l-118 -6 l-5 0 l0 -5 l1 -618 l3 -38 q0 -21 -16 -35 q-16 -14 -25 -14 q-9 0 -39 15 q-76 34 -146 91 q-20 18 -22 25 q2 1 8.5 1 q6.5 0 40 -15.5 q33.5 -15.5 135.5 -42.5 l6 -2 l0 7 l-1 623 l0 5 l-5 0 l-332 -16 l-37 -2 q-18 0 -30.5 11 q-12.5 11 -17.5 24 q-6 13 -6 18 q5 0 15 -2.5 q10 -2.5 34 -2.5 l14 0 l465 22 q22 1 32.5 5 q10.5 4 16.5 4 q6 0 18 -8 q31 -20 31 -34 q0 -8 -20 -10 ZM945 626 l-1 0 l1 0 ZM393 599 l0 0 ZM826 -41 l0 0 ZM427 450 l2 0 l183 10 l8 0 q17 0 27 -9.5 q10 -9.5 10 -16 q0 -6.5 -2.5 -10 q-2.5 -3.5 -3.5 -8.5 l-17 -133 l0 -3 l1 -1 q27 -30 27 -36.5 q0 -6.5 -5 -7.5 q-9 -1 -19 -2 l-188 -7 l-5 0 l0 -5 l1 -19 l0 -4 q0 -15 -9 -15 q-13 0 -30 8.5 q-17 8.5 -17 20.5 q3 21 3 26 l0 24 q0 7 -1 15 l-12 131 q-3 30 -11 42 q-8 12 -10 17 q3 1 13.5 1 q10.5 0 54.5 -18 ZM446 202 l0 0 ZM638 233 l0 0 ZM612 460 l0 0 ZM392 277 l0 -1 l0 1 ZM589 415 l-151 -8 l-5 0 l0 -5 l8 -128 l0 -5 l5 0 l134 5 l5 0 l0 5 l9 131 l0 5 l-5 0 Z" /><glyph glyph-name="u4F59" unicode="&#x4f59;" d="M65 334 q-12 -6 -18 -6 q-6 0 -6 2 q0 7 18 20 q173 122 293 261 q60 70 113 148 q11 19 11 44 l0 7 q0 10 8 10 q20 0 41 -16 q21 -16 21 -21.5 q0 -5.5 -3 -10.5 l-20 -31 l-2 -4 l2 -2 q190 -208 433 -326 q12 -7 15 -10 q-1 -4 -9 -13 q-25 -28 -43 -28 q-6 2 -44.5 24 q-38.5 22 -101.5 66 q-155 109 -275 247 l-4 5 l-4 -5 q-89 -123 -193 -206.5 q-104 -83.5 -232 -154.5 ZM321 481 q-2 4 -2 8 q5 0 13 -2.5 q8 -2.5 27 -2.5 l12 0 l220 14 q21 1 31.5 5 q10.5 4 16 4 q5.5 0 16.5 -6.5 q11 -6.5 19.5 -16 q8.5 -9.5 8.5 -15.5 q0 -9 -18 -11 l-133 -8 l-5 0 l0 -5 l-1 -112 l0 -5 l5 0 l213 10 q22 1 32.5 5 q10.5 4 16 4 q5.5 0 25 -14 q19.5 -14 19.5 -26 q0 -8 -15 -10 l-3 0 l-288 -14 l-5 0 l0 -5 l-2 -287 l2 -40 q0 -29 -15.5 -38 q-15.5 -9 -27.5 -9 q-12 0 -55.5 19.5 q-43.5 19.5 -103.5 69.5 q-21 17 -21 21 q0 4 7.5 4 q7.5 0 46.5 -16 q39 -16 108 -34 l6 -1 l0 6 l2 302 l0 5 l-5 0 l-233 -12 l-21 -1 q-12 0 -24 6 q-11 6 -23 38 q-2 4 -2 8 q5 0 13 -2.5 q8 -2.5 27 -2.5 l12 0 l251 11 l5 0 l0 5 l1 112 l0 5 l-5 0 l-80 -5 l-21 -1 q-9 0 -22.5 5.5 q-13.5 5.5 -24.5 34.5 ZM321 481 l0 0 ZM368 441 l0 0 ZM214 267 l0 0 ZM526 -49 l0 0 ZM822 297 l0 0 ZM157 -10 q-38 -20 -42.5 -20 q-4.5 0 -3.5 5.5 q1 5.5 39.5 38.5 q38.5 33 92 95 q53.5 62 61.5 100 q2 11 7 11 q3 -1 15 -7 q36 -21 36 -41 q0 -4 -3 -6 l0 -1 q-55 -67 -109.5 -111 q-54.5 -44 -92.5 -64 ZM645 215 q14 0 95.5 -73.5 q81.5 -73.5 98 -91 q16.5 -17.5 16.5 -27 q0 -9.5 -13 -23.5 q-13 -14 -19 -14 q-6 0 -17 11 q-77 89 -175 174 q-11 8 -11 17 q0 9 10 18 q10 9 15 9 ZM806 -3 l0 1 l0 -1 Z" /><glyph glyph-name="u4F5C" unicode="&#x4f5c;" d="M417 478.5 q40 72.5 69 136 q29 63.5 43.5 110 q14.5 46.5 14.5 59.5 l0 12 q0 2 -1 12 q-1 10 3 10 q24 0 55 -24 q12 -9 12 -16 q0 -23 -51 -132 l-20 -42 l-3 -8 l330 25 q18 1 31 6 q13 5 18 5 q5 0 17 -10 q30 -23 30 -35 q0 -6 -17 -8 l-313 -22 l-5 0 l0 -142 l5 0 l154 9 q19 1 31 6 q12 5 17.5 5 q5.5 0 18 -9 q12.5 -9 21.5 -19.5 q9 -10.5 9 -15.5 q0 -5 -17 -7 l-234 -15 l-5 0 l0 -5 l1 -133 l0 -5 l5 0 l175 10 q24 2 35.5 6.5 q11.5 4.5 18 4.5 q6.5 0 23 -15 q16.5 -15 21.5 -30 q0 -7 -17 -9 l-256 -13 l-5 0 l0 -253 q0 -16 -12 -16 q-22 0 -35.5 13 q-13.5 13 -13.5 26 q5 40 5 68 l2 530 l0 5 l-5 0 l-57 -4 l-3 0 l-1 -2 q-83 -142 -158 -207 q-29 -25 -35 -25 l-1 0 l0 3 q1 8 30.5 48 q29.5 40 69.5 112.5 ZM308 764 l0 7 l-2 14 q0 5 1 6 q1 1 7.5 1 q6.5 0 22 -7 q15.5 -7 28 -17.5 q12.5 -10.5 12.5 -18 q0 -7.5 -15 -39.5 q-35 -82 -97 -179 l-1 -2 l0 -1 l2 -584 q0 -19 -13 -19 l-12 3 q-12 3 -23 11.5 q-11 8.5 -11 20 q0 11.5 3 24.5 q3 13 3 46 l3 411 l0 15 l-9 -12 q-70 -94 -136 -147 q-25 -20 -29.5 -20 q-4.5 0 -4.5 5 q0 5 11 19 q106 129 183 273 q77 144 77 190 Z" /><glyph glyph-name="u4F60" unicode="&#x4f60;" d="M874 615 l9 0 q11 0 25 -9 q14 -9 14 -18.5 q0 -9.5 -5 -15.5 q-5 -6 -12 -16 q-7 -10 -24 -34 q-73 -105 -90 -105 q-2 0 -2 6.5 q0 6.5 23.5 51.5 q23.5 45 37.5 94 l-7 0 l-182 -10 l-5 0 l0 -5 l4 -555 l2 -35 q0 -27 -31 -44 q-12 -5 -19.5 -5 q-7.5 0 -37.5 18.5 q-30 18.5 -74.5 61 q-44.5 42.5 -44.5 55.5 q0 2 5 2 q5 0 22 -10 q65 -42 125 -59 l0 7 l-4 560 l0 5 l-5 0 l-113 -6 l-3 0 l-1 -2 q-44 -71 -96 -130.5 q-52 -59.5 -64 -59.5 q-1 1 -1 3 q0 7 9 20 q77 112 130.5 229 q53.5 117 53.5 160 l0 9 q0 5 -1 10 l0 3 q0 5 2 5 q17 0 54 -28 q11 -9 11 -16 q0 -7 -17 -47.5 q-17 -40.5 -49 -102.5 l-5 -7 l9 0 l357 20 ZM874 615 l0 0 ZM568 768 l0 0 ZM631 -80 l0 1 q0 0 0 -1 ZM662 -36 l0 0 ZM318 768 l-1 8 l0 2 q0 4 3.5 4 q3.5 0 16.5 -6 q41 -16 41 -35 q0 -11 -40.5 -84 q-40.5 -73 -75.5 -125 l-1 -1 l0 -2 l-1 -587 q0 -15 -12 -15 q-20 0 -34 13 q-14 13 -14 24 l0 5 q0 2 3 16 q4 14 4 50 l5 407 l0 15 l-9 -12 q-77 -98 -142 -150 q-14 -11 -18 -11 q-4 0 -4 4.5 q0 4.5 25 34 q25 29.5 81.5 111 q56.5 81.5 114.5 191.5 q58 110 58 142 l0 1 ZM442 376 q0 6 2 6 q6 0 21 -8 q15 -8 28 -19.5 q13 -11.5 13 -18.5 q0 -7 -3 -14 q-35 -81 -77.5 -140 q-42.5 -59 -75 -90.5 q-32.5 -31.5 -37.5 -31.5 q-5 0 -6 1 q0 8 25.5 46.5 q25.5 38.5 64.5 114.5 q46 94 46 133 l0 9 q0 4 -1 9 l0 3 ZM503 322 l0 0 ZM791 366 q89 -119 122.5 -176 q33.5 -57 34 -64 q0.5 -7 -13.5 -22.5 q-14 -15.5 -26 -15.5 q-12 0 -16 13 q-49 103 -148 238 q-4 6 -4 12 q0 6 14 16 q16 10 22.5 10 q6.5 0 14.5 -11 Z" /><glyph glyph-name="u4F6C" unicode="&#x4f6c;" d="M500 307 q2 1 15 1 q13 0 29 -8 l2 2 q47 37 85 74 l9 10 l-13 -1 q-235 -11 -250 -11 q-15 0 -29 6 q-13 6 -25 37 l-1 4 q15 -4 38.5 -4 q23.5 0 206.5 8 l5 0 l0 138 l-5 0 l-114 -7 q-27 0 -42 27 l0 1 q-7 11 -8 17 q11 -3 37.5 -3 q26.5 0 126.5 6 l5 0 l0 123 q0 25 -12 48 q-1 2 -1 4 q3 1 13.5 1 q10.5 0 30.5 -7.5 q20 -7.5 20 -21.5 l-2 -138 l0 -5 l5 0 l32 1 q25 2 41 5.5 q16 3.5 20 3.5 q4 0 13 -6 q26 -19 26 -33 q0 -4 -8 -5 l-124 -7 l-5 0 l0 -5 l-1 -129 l0 -5 l5 0 l54 2 l2 0 l2 2 q65 75 118 167 q3 4 7 20 q5 16 6 29 l3 8 q5 0 17 -7.5 q12 -7.5 22.5 -19 q10.5 -11.5 10.5 -19 q0 -7.5 -29.5 -53 q-29.5 -45.5 -87.5 -115.5 l-7 -8 l11 0 l91 4 q28 1 44 6 q16 5 21 5 q5 0 15 -7 q26 -20 26 -36 q0 -5 -14 -7 l-233 -11 l-2 0 l-2 -1 q-70 -70 -133 -115 l-2 -1 l0 -3 l-4 -141 l0 -8 l7 4 q121 61 163.5 96.5 q42.5 35.5 54.5 61.5 q1 3 2 4 q12 -3 30 -33 q9 -14 9 -24 l-2 -9 l0 -1 l-1 0 q-115 -70 -252 -118 q-2 -1 -7 -1 l-5 0 l0 -5 l-2 -55 q0 -26 10 -40 q15 -21 131.5 -21 q116.5 0 138.5 22 q18 21 32.5 91 q14.5 70 22.5 85 q4 -13 4 -64.5 q0 -51.5 -3.5 -94 q-3.5 -42.5 -19.5 -57.5 q-29 -30 -180 -30 q-74 0 -112.5 6.5 q-38.5 6.5 -54.5 25.5 q-16 19 -16 66 l4 201 l0 9 q-95 -59 -145.5 -81.5 q-50.5 -22.5 -57.5 -22.5 l-1 0 q0 1 0 2 q0 7 22 21 q99 58 177 118 l3 2 l-1 4 l-12 26 ZM937 399 l-1 0 l1 0 ZM732 612 l0 0 ZM453 556 l0 0 ZM244 588 q34 60 52.5 104.5 q18.5 44.5 18.5 58.5 q0 14 -2 21 l0 3 q0 6 8.5 6 q8.5 0 22.5 -7 l0 -1 q36 -17 37 -30 l-14 -35 q-39 -98 -109 -196 l-1 -1 l0 -575 q0 -16 -13 -16 q-17 0 -32.5 11.5 q-15.5 11.5 -15.5 21.5 q0 10 3 27 q4 17 4 45 l5 406 l0 14 l-9 -11 q-119 -144 -148 -144 l-1 0 l0 3 q0 6 12 21 q103 132 182 274 Z" /></font>
</defs>
</svg>
